SplineFontDB: 3.2
FontName: FoundryGridnik-Bold
FullName: FoundryGridnik-Bold
FamilyName: FoundryGridnik
Weight: Bold
Copyright: (c)The digitally encoded machine readable outline data for producing the typefaces licensed to you is copyrighted \\(C\\), 1998 by The Foundry, London. All Rights Reserved.
Version: 001.000
ItalicAngle: 0
UnderlinePosition: -125
UnderlineWidth: 50
Ascent: 800
Descent: 200
InvalidEm: 0
sfntRevision: 0x00010000
LayerCount: 2
Layer: 0 0 "Back" 1
Layer: 1 0 "Fore" 0
XUID: [1021 463 -1335672306 6341323]
UniqueID: 4693971
StyleMap: 0x0020
FSType: 0
OS2Version: 2
OS2_WeightWidthSlopeOnly: 0
OS2_UseTypoMetrics: 0
CreationTime: 1174035884
ModificationTime: 1640687084
PfmFamily: 81
TTFWeight: 700
TTFWidth: 5
LineGap: 0
VLineGap: 0
Panose: 0 0 0 0 0 0 0 0 0 0
OS2TypoAscent: 667
OS2TypoAOffset: 0
OS2TypoDescent: -191
OS2TypoDOffset: 0
OS2TypoLinegap: 70
OS2WinAscent: 883
OS2WinAOffset: 0
OS2WinDescent: 325
OS2WinDOffset: 0
HheadAscent: 883
HheadAOffset: 0
HheadDescent: -325
HheadDOffset: 0
OS2SubXSize: 650
OS2SubYSize: 650
OS2SubXOff: 0
OS2SubYOff: 150
OS2SupXSize: 650
OS2SupYSize: 650
OS2SupXOff: 0
OS2SupYOff: 500
OS2StrikeYSize: 50
OS2StrikeYPos: 225
OS2CapHeight: 667
OS2XHeight: 476
OS2CodePages: 00000001.00000000
OS2UnicodeRanges: 800000af.50002048.00000000.00000000
DEI: 91125
LangName: 1033 "+/6kA-The digitally encoded machine readable outline data for producing the typefaces licensed to you is copyrighted +AFwA(C+AFwA), 1998 by The Foundry, London. All Rights Reserved." "" "" "FoundryGridnik-Bold:1174053884" "" "001.000"
Encoding: UnicodeBmp
UnicodeInterp: none
NameList: AGL For New Fonts
DisplaySize: -48
AntiAlias: 1
FitToEm: 0
WinInfo: 0 38 14
BeginPrivate: 7
BlueValues 9 [467 487]
BlueScale 4 0.05
StdHW 5 [120]
StdVW 5 [114]
StemSnapH 9 [114 120]
StemSnapV 8 [93 114]
ForceBold 4 true
EndPrivate
BeginChars: 65537 224

StartChar: exclam
Encoding: 33 33 2
Width: 304
Flags: MW
HStem: 0 128<88 216 88 216>
VStem: 88 128<0 128>
LayerCount: 2
Fore
SplineSet
209 226 m 1
 95 226 l 1
 95 667 l 1
 209 667 l 1
 209 226 l 1
216 0 m 1
 88 0 l 1
 88 128 l 1
 216 128 l 1
 216 0 l 1
EndSplineSet
EndChar

StartChar: quotedbl
Encoding: 34 34 3
Width: 518
Flags: MW
HStem: 464 203<98 205 98 205 312 419 98 312>
VStem: 98 107<464 667> 312 107<464 667>
LayerCount: 2
Fore
SplineSet
419 464 m 1
 312 464 l 1
 312 667 l 1
 419 667 l 1
 419 464 l 1
205 464 m 1
 98 464 l 1
 98 667 l 1
 205 667 l 1
 205 464 l 1
EndSplineSet
EndChar

StartChar: numbersign
Encoding: 35 35 4
Width: 608
Flags: MW
HStem: 0 294<59 138 8 160 59 59 262 341 8 363 262 262> 397 92<60 165 60 190 60 266 291 368 494 599>
LayerCount: 2
Fore
SplineSet
599 397 m 1
 469 397 l 1
 442 294 l 1
 547 294 l 1
 547 202 l 1
 416 202 l 1
 363 0 l 1
 262 0 l 1
 316 202 l 1
 213 202 l 1
 160 0 l 1
 59 0 l 1
 113 202 l 1
 8 202 l 1
 8 294 l 1
 138 294 l 1
 165 397 l 1
 60 397 l 1
 60 489 l 1
 190 489 l 1
 245 694 l 1
 345 694 l 1
 291 489 l 1
 393 489 l 1
 448 694 l 1
 549 694 l 1
 494 489 l 1
 599 489 l 1
 599 397 l 1
368 397 m 1
 266 397 l 1
 239 294 l 1
 341 294 l 1
 368 397 l 1
EndSplineSet
EndChar

StartChar: dollar
Encoding: 36 36 5
Width: 608
Flags: MW
HStem: 0 100<183.5 278 213 278 213 278 330 394 394 397 213 330> 567 100<211 214 214 278 330 395 194 330>
VStem: 77 114<410 415 415 544> 278 52<-95 0 -95 0 100 280 387 567 667 762> 417 114<123 252 252 257>
LayerCount: 2
Fore
SplineSet
531 117 m 2
 531 98 525 82 511 68 c 2
 464 21 l 2
 450 7 433 0 414 0 c 2
 330 0 l 1
 330 -95 l 1
 278 -95 l 1
 278 0 l 1
 193 0 l 2
 174 0 158 6 144 20 c 2
 77 87 l 1
 147 158 l 1
 199 106 l 2
 203 102 208 100 213 100 c 2
 278 100 l 1
 278 286 l 1
 146 302 l 2
 110 306 77 343 77 379 c 2
 77 550 l 2
 77 569 83 585 97 599 c 2
 144 646 l 2
 158 660 175 667 194 667 c 2
 278 667 l 1
 278 762 l 1
 330 762 l 1
 330 667 l 1
 415 667 l 2
 434 667 450 661 464 647 c 2
 531 580 l 1
 461 509 l 1
 409 561 l 2
 405 565 400 567 395 567 c 2
 330 567 l 1
 330 381 l 1
 462 365 l 2
 498 361 531 324 531 288 c 2
 531 117 l 2
278 387 m 1
 278 567 l 1
 214 567 l 2
 208 567 204 565 200 561 c 2
 197 558 l 2
 193 554 191 550 191 544 c 2
 191 415 l 2
 191 405 199 396 209 395 c 2
 278 387 l 1
417 123 m 2
 417 252 l 2
 417 262 409 271 399 272 c 2
 330 280 l 1
 330 100 l 1
 394 100 l 2
 400 100 404 102 408 106 c 2
 411 109 l 2
 415 113 417 117 417 123 c 2
EndSplineSet
EndChar

StartChar: percent
Encoding: 37 37 6
Width: 912
Flags: MW
HStem: 0 63<615 738 641 738 738 739 641 758> 280 63<148 271 174 271 271 272 174 291> 609 63<173 174 174 271>
VStem: 84 77<354 355 355 597> 284 77<355 597 597 598> 551 77<74 75 75 317> 751 77<75 317 317 318>
LayerCount: 2
Fore
SplineSet
828 69 m 2
 828 58 823 47 816 40 c 2
 790 14 l 2
 780 4 770 0 758 0 c 2
 621 0 l 2
 609 0 599 4 589 14 c 2
 563 40 l 2
 556 47 551 58 551 69 c 2
 551 323 l 2
 551 334 556 345 563 352 c 2
 589 378 l 2
 599 388 609 392 621 392 c 2
 758 392 l 2
 770 392 780 388 790 378 c 2
 816 352 l 2
 823 345 828 334 828 323 c 2
 828 69 l 2
655 672 m 1
 318 0 l 1
 244 0 l 1
 581 672 l 1
 655 672 l 1
361 349 m 2
 361 338 356 327 349 320 c 2
 323 294 l 2
 313 284 303 280 291 280 c 2
 154 280 l 2
 142 280 132 284 122 294 c 2
 96 320 l 2
 89 327 84 338 84 349 c 2
 84 603 l 2
 84 614 89 625 96 632 c 2
 122 658 l 2
 132 668 142 672 154 672 c 2
 291 672 l 2
 303 672 313 668 323 658 c 2
 349 632 l 2
 356 625 361 614 361 603 c 2
 361 349 l 2
751 75 m 2
 751 317 l 2
 751 319 750 321 748 323 c 2
 744 327 l 2
 743 328 740 329 738 329 c 2
 641 329 l 2
 639 329 636 328 635 327 c 2
 631 323 l 2
 629 321 628 319 628 317 c 2
 628 75 l 2
 628 73 629 71 631 69 c 2
 635 65 l 2
 636 64 639 63 641 63 c 2
 738 63 l 2
 740 63 743 64 744 65 c 2
 748 69 l 2
 750 71 751 73 751 75 c 2
284 355 m 2
 284 597 l 2
 284 599 283 601 281 603 c 2
 277 607 l 2
 276 608 273 609 271 609 c 2
 174 609 l 2
 172 609 169 608 168 607 c 2
 164 603 l 2
 162 601 161 599 161 597 c 2
 161 355 l 2
 161 353 162 351 164 349 c 2
 168 345 l 2
 169 344 172 343 174 343 c 2
 271 343 l 2
 273 343 276 344 277 345 c 2
 281 349 l 2
 283 351 284 353 284 355 c 2
EndSplineSet
EndChar

StartChar: ampersand
Encoding: 38 38 7
Width: 706
Flags: MW
HStem: 0 100<202.5 404 233 404 404 406.5 233 425> 565 99
VStem: 98 114<118 121 121 220> 332 110
LayerCount: 2
Fore
SplineSet
650 76 m 1
 574 0 l 1
 514 60 l 1
 474 20 l 2
 460 6 444 0 425 0 c 2
 212 0 l 2
 193 0 177 6 163 20 c 2
 119 64 l 2
 105 78 98 95 98 115 c 2
 98 235 l 2
 98 254 105 271 119 285 c 2
 204 370 l 1
 144 430 l 2
 125 449 116 475 116 501 c 0
 116 527 125 553 144 572 c 2
 208 636 l 2
 227 655 253 664 279 664 c 0
 305 664 331 655 350 636 c 2
 414 572 l 2
 433 553 442 527 442 501 c 0
 442 475 433 449 414 430 c 2
 355 371 l 1
 519 207 l 1
 579 267 l 1
 650 196 l 1
 650 196 591 135 590 135 c 1
 650 76 l 1
320 487 m 2
 334 501 338 518 320 536 c 2
 303 553 l 2
 285 571 269 567 255 553 c 2
 238 536 l 2
 220 518 224 501 238 487 c 2
 279 446 l 1
 320 487 l 2
443 131 m 1
 279 295 l 1
 218 234 l 2
 214 230 212 226 212 220 c 2
 212 121 l 2
 212 115 214 111 218 107 c 2
 219 106 l 2
 223 102 228 100 233 100 c 2
 404 100 l 2
 409 100 414 102 418 106 c 2
 443 131 l 1
EndSplineSet
EndChar

StartChar: quotesingle
Encoding: 39 39 8
Width: 304
Flags: MW
HStem: 464 203<98 205 98 205>
VStem: 98 107<464 667>
LayerCount: 2
Fore
SplineSet
205 464 m 1
 98 464 l 1
 98 667 l 1
 205 667 l 1
 205 464 l 1
EndSplineSet
EndChar

StartChar: parenleft
Encoding: 40 40 9
Width: 402
Flags: MW
VStem: 84 114<78.5 88 88 526>
LayerCount: 2
Fore
SplineSet
374 -117 m 1
 299 -193 l 1
 104 2 l 2
 90 16 84 32 84 51 c 2
 84 563 l 2
 84 582 90 598 104 612 c 2
 299 807 l 1
 374 731 l 1
 219 576 l 2
 205 562 198 545 198 526 c 2
 198 88 l 2
 198 69 205 52 219 38 c 2
 374 -117 l 1
EndSplineSet
EndChar

StartChar: parenright
Encoding: 41 41 10
Width: 402
Flags: MW
VStem: 204 114<88 526 526 535.5>
LayerCount: 2
Fore
SplineSet
318 51 m 2
 318 32 312 16 298 2 c 2
 103 -193 l 1
 28 -117 l 1
 183 38 l 2
 197 52 204 69 204 88 c 2
 204 526 l 2
 204 545 197 562 183 576 c 2
 28 731 l 1
 103 807 l 1
 298 612 l 2
 312 598 318 582 318 563 c 2
 318 51 l 2
EndSplineSet
EndChar

StartChar: asterisk
Encoding: 42 42 11
Width: 600
Flags: MW
VStem: 253 94<498 498>
LayerCount: 2
Fore
SplineSet
537 457 m 1
 374 408 l 1
 475 275 l 1
 395 214 l 1
 300 351 l 1
 205 214 l 1
 125 275 l 1
 226 408 l 1
 63 457 l 1
 94 552 l 1
 253 498 l 1
 250 667 l 1
 350 667 l 1
 347 498 l 1
 506 552 l 1
 537 457 l 1
EndSplineSet
EndChar

StartChar: plus
Encoding: 43 43 12
Width: 608
Flags: MW
HStem: 188 100<65 254 65 254 354 542> 456 20<254 354 354 354>
VStem: 254 100<0 188 0 188 288 476>
LayerCount: 2
Fore
SplineSet
542 188 m 1
 354 188 l 1
 354 0 l 1
 254 0 l 1
 254 188 l 1
 65 188 l 1
 65 288 l 1
 254 288 l 1
 254 476 l 1
 354 476 l 1
 354 288 l 1
 542 288 l 1
 542 188 l 1
EndSplineSet
EndChar

StartChar: comma
Encoding: 44 44 13
Width: 304
Flags: MW
VStem: 95 114<-57 128>
LayerCount: 2
Fore
SplineSet
209 -58 m 2
 209 -80 204 -93 189 -108 c 2
 127 -170 l 1
 58 -101 l 1
 88 -71 l 2
 92 -67 95 -63 95 -57 c 2
 95 128 l 1
 209 128 l 1
 209 -58 l 2
EndSplineSet
EndChar

StartChar: hyphen
Encoding: 45 45 14
Width: 490
Flags: MW
HStem: 188 100<105 385 105 385>
VStem: 105 280<188 288 188 288>
LayerCount: 2
Fore
SplineSet
385 188 m 1
 105 188 l 1
 105 288 l 1
 385 288 l 1
 385 188 l 1
EndSplineSet
EndChar

StartChar: period
Encoding: 46 46 15
Width: 304
Flags: MW
HStem: 0 128<88 216 88 216>
VStem: 88 128<0 128>
LayerCount: 2
Fore
SplineSet
216 0 m 1
 88 0 l 1
 88 128 l 1
 216 128 l 1
 216 0 l 1
EndSplineSet
EndChar

StartChar: slash
Encoding: 47 47 16
Width: 553
Flags: W
LayerCount: 2
Fore
SplineSet
513 755 m 1
 144 -84 l 1
 40 -84 l 1
 409 755 l 1
 513 755 l 1
EndSplineSet
EndChar

StartChar: zero
Encoding: 48 48 17
Width: 608
Flags: MW
HStem: 0 100<191 386 222 386 386 389 222 407> 567 100<219 222 222 386>
VStem: 84 114<121.5 124 124 543> 410 114<124 543 543 545.5>
LayerCount: 2
Fore
SplineSet
524 117 m 2
 524 98 519 83 505 69 c 2
 458 22 l 2
 444 8 427 0 407 0 c 2
 201 0 l 2
 181 0 164 8 150 22 c 2
 103 69 l 2
 89 83 84 98 84 117 c 2
 84 550 l 2
 84 569 89 584 103 598 c 2
 150 645 l 2
 164 659 181 667 201 667 c 2
 407 667 l 2
 427 667 444 659 458 645 c 2
 505 598 l 2
 519 584 524 569 524 550 c 2
 524 117 l 2
410 124 m 2
 410 543 l 2
 410 548 409 553 405 557 c 2
 401 561 l 2
 397 565 392 567 386 567 c 2
 222 567 l 2
 216 567 211 565 207 561 c 2
 203 557 l 2
 199 553 198 548 198 543 c 2
 198 124 l 2
 198 119 199 114 203 110 c 2
 207 106 l 2
 211 102 216 100 222 100 c 2
 386 100 l 2
 392 100 397 102 401 106 c 2
 405 110 l 2
 409 114 410 119 410 124 c 2
EndSplineSet
EndChar

StartChar: one
Encoding: 49 49 18
Width: 608
Flags: MW
HStem: 0 100<143 263 377 497 143 263>
VStem: 263 114<100 553 553 553>
LayerCount: 2
Fore
SplineSet
497 0 m 1
 143 0 l 1
 143 100 l 1
 263 100 l 1
 263 553 l 1
 179 478 l 1
 111 546 l 1
 247 667 l 1
 377 667 l 1
 377 100 l 1
 497 100 l 1
 497 0 l 1
EndSplineSet
EndChar

StartChar: two
Encoding: 50 50 19
Width: 608
Flags: MW
HStem: 0 100<198 524 198 524> 567 100<219 222 222 386>
VStem: 84 114<100 196 100 226 100 240> 410 114<430 543 543 545.5>
LayerCount: 2
Fore
SplineSet
524 0 m 1
 84 0 l 1
 84 226 l 2
 84 254 99 278 125 290 c 2
 398 412 l 2
 405 415 410 422 410 430 c 2
 410 543 l 2
 410 548 409 553 405 557 c 2
 401 561 l 2
 397 565 392 567 386 567 c 2
 222 567 l 2
 216 567 211 565 207 561 c 2
 152 506 l 1
 81 576 l 1
 150 645 l 2
 164 659 181 667 201 667 c 2
 407 667 l 2
 427 667 444 659 458 645 c 2
 505 598 l 2
 519 584 524 569 524 550 c 2
 524 399 l 2
 524 371 509 347 483 335 c 2
 210 214 l 2
 203 211 198 204 198 196 c 2
 198 100 l 1
 524 100 l 1
 524 0 l 1
EndSplineSet
EndChar

StartChar: three
Encoding: 51 51 20
Width: 608
Flags: MW
HStem: 0 100<191 386 222 386 386 389 222 407> 302 100<250 368 250 368> 567 100<219 222 222 386>
VStem: 410 114<124 260 260 262.5 444 543 543 545.5>
LayerCount: 2
Fore
SplineSet
524 117 m 2
 524 98 519 83 505 69 c 2
 458 22 l 2
 444 8 427 0 407 0 c 2
 201 0 l 2
 181 0 164 8 150 22 c 2
 81 91 l 1
 152 161 l 1
 207 106 l 2
 211 102 216 100 222 100 c 2
 386 100 l 2
 392 100 397 102 401 106 c 2
 405 110 l 2
 409 114 410 119 410 124 c 2
 410 260 l 2
 410 265 409 270 405 274 c 2
 383 296 l 2
 379 300 374 302 368 302 c 2
 250 302 l 1
 250 402 l 1
 368 402 l 2
 374 402 379 404 383 408 c 2
 405 430 l 2
 409 434 410 439 410 444 c 2
 410 543 l 2
 410 548 409 553 405 557 c 2
 401 561 l 2
 397 565 392 567 386 567 c 2
 222 567 l 2
 216 567 211 565 207 561 c 2
 152 506 l 1
 81 576 l 1
 150 645 l 2
 164 659 181 667 201 667 c 2
 407 667 l 2
 427 667 444 659 458 645 c 2
 505 598 l 2
 519 584 524 569 524 550 c 2
 524 437 l 2
 524 418 517 401 503 387 c 2
 468 352 l 1
 504 316 l 2
 518 302 524 287 524 268 c 2
 524 117 l 2
EndSplineSet
EndChar

StartChar: four
Encoding: 52 52 21
Width: 608
Flags: MW
HStem: 168 100<181 333 181 333 447 531>
VStem: 333 114<0 168 0 168 268 531 531 531>
LayerCount: 2
Fore
SplineSet
531 168 m 1
 447 168 l 1
 447 0 l 1
 333 0 l 1
 333 168 l 1
 52 168 l 1
 52 254 l 1
 305 667 l 1
 447 667 l 1
 447 268 l 1
 531 268 l 1
 531 168 l 1
333 268 m 1
 333 531 l 1
 181 268 l 1
 333 268 l 1
EndSplineSet
EndChar

StartChar: five
Encoding: 53 53 22
Width: 608
Flags: MW
HStem: 0 100<191 386 222 386 386 389 222 407> 313 100<226 386> 567 100<226 496 226 226>
VStem: 112 114<413 567 413 667 413 667> 410 114<124 289 289 291.5>
LayerCount: 2
Fore
SplineSet
524 117 m 2
 524 98 519 83 505 69 c 2
 458 22 l 2
 444 8 427 0 407 0 c 2
 201 0 l 2
 181 0 164 8 150 22 c 2
 81 91 l 1
 152 161 l 1
 207 106 l 2
 211 102 216 100 222 100 c 2
 386 100 l 2
 392 100 397 102 401 106 c 2
 405 110 l 2
 409 114 410 119 410 124 c 2
 410 289 l 2
 410 294 409 299 405 303 c 2
 401 307 l 2
 397 311 392 313 386 313 c 2
 112 313 l 1
 112 667 l 1
 496 667 l 1
 496 567 l 1
 226 567 l 1
 226 413 l 1
 407 413 l 2
 427 413 444 405 458 391 c 2
 505 344 l 2
 519 330 524 315 524 296 c 2
 524 117 l 2
EndSplineSet
EndChar

StartChar: six
Encoding: 54 54 23
Width: 608
Flags: MW
HStem: 0 100<191 386 222 386 386 389 222 407> 313 100<219 222 222 386> 567 100<219 222 222 386>
VStem: 84 114<124 289 413 543> 410 114<124 289 289 291.5>
LayerCount: 2
Fore
SplineSet
527 576 m 1
 456 506 l 1
 401 561 l 2
 397 565 392 567 386 567 c 2
 222 567 l 2
 216 567 211 565 207 561 c 2
 203 557 l 2
 199 553 198 548 198 543 c 2
 198 413 l 1
 407 413 l 2
 427 413 444 405 458 391 c 2
 505 344 l 2
 519 330 524 315 524 296 c 2
 524 117 l 2
 524 98 519 83 505 69 c 2
 458 22 l 2
 444 8 427 0 407 0 c 2
 201 0 l 2
 181 0 164 8 150 22 c 2
 103 69 l 2
 89 83 84 98 84 117 c 2
 84 550 l 2
 84 569 89 584 103 598 c 2
 150 645 l 2
 164 659 181 667 201 667 c 2
 407 667 l 2
 427 667 444 659 458 645 c 2
 527 576 l 1
410 124 m 2
 410 289 l 2
 410 294 409 299 405 303 c 2
 401 307 l 2
 397 311 392 313 386 313 c 2
 222 313 l 2
 216 313 211 311 207 307 c 2
 203 303 l 2
 199 299 198 294 198 289 c 2
 198 124 l 2
 200 119 199 114 203 110 c 2
 207 106 l 2
 211 102 216 100 222 100 c 2
 386 100 l 2
 392 100 397 102 401 106 c 2
 405 110 l 2
 409 114 410 119 410 124 c 2
EndSplineSet
EndChar

StartChar: seven
Encoding: 55 55 24
Width: 608
Flags: W
LayerCount: 2
Fore
SplineSet
524 602 m 1
 264 0 l 1
 143 0 l 1
 390 567 l 1
 82 567 l 1
 82 667 l 1
 524 667 l 1
 524 602 l 1
EndSplineSet
EndChar

StartChar: eight
Encoding: 56 56 25
Width: 608
Flags: MW
HStem: 0 100<191 386 222 386 386 389 222 407> 288 100<237 368 240 368> 567 100<219 222 222 386>
VStem: 84 114<121.5 124 124 246 427.5 430 430 543> 410 114<124 246 246 248.5 430 543 543 545.5>
LayerCount: 2
Fore
SplineSet
524 117 m 2
 524 98 519 83 505 69 c 2
 458 22 l 2
 444 8 427 0 407 0 c 2
 201 0 l 2
 181 0 164 8 150 22 c 2
 103 69 l 2
 89 83 84 98 84 117 c 2
 84 254 l 2
 84 273 90 288 104 302 c 2
 140 338 l 1
 105 373 l 2
 91 387 84 404 84 423 c 2
 84 550 l 2
 84 569 89 584 103 598 c 2
 150 645 l 2
 164 659 181 667 201 667 c 2
 407 667 l 2
 427 667 444 659 458 645 c 2
 505 598 l 2
 519 584 524 569 524 550 c 2
 524 423 l 2
 524 404 517 387 503 373 c 2
 468 338 l 1
 504 302 l 2
 518 288 524 273 524 254 c 2
 524 117 l 2
410 430 m 2
 410 543 l 2
 410 548 409 553 405 557 c 2
 401 561 l 2
 397 565 392 567 386 567 c 2
 222 567 l 2
 216 567 211 565 207 561 c 2
 203 557 l 2
 199 553 198 548 198 543 c 2
 198 430 l 2
 198 425 199 420 203 416 c 2
 225 394 l 2
 229 390 234 388 240 388 c 2
 368 388 l 2
 374 388 379 390 383 394 c 2
 405 416 l 2
 409 420 410 425 410 430 c 2
410 124 m 2
 410 246 l 2
 410 251 409 256 405 260 c 2
 383 282 l 2
 379 286 374 288 368 288 c 2
 240 288 l 2
 234 288 229 286 225 282 c 2
 203 260 l 2
 199 256 198 251 198 246 c 2
 198 124 l 2
 198 119 199 114 203 110 c 2
 207 106 l 2
 211 102 216 100 222 100 c 2
 386 100 l 2
 392 100 397 102 401 106 c 2
 405 110 l 2
 409 114 410 119 410 124 c 2
EndSplineSet
EndChar

StartChar: nine
Encoding: 57 57 26
Width: 608
Flags: MW
HStem: 0 100<191 386 222 386 386 389 222 407> 254 100<191 386 222 386 386 389 222 410> 567 100<219 222 222 386>
VStem: 84 114<375.5 378 378 543> 410 114<124 254 254 254 378 543 543 543>
LayerCount: 2
Fore
SplineSet
524 117 m 2
 524 98 519 83 505 69 c 2
 458 22 l 2
 444 8 427 0 407 0 c 2
 201 0 l 2
 181 0 164 8 150 22 c 2
 81 91 l 1
 152 161 l 1
 207 106 l 2
 211 102 216 100 222 100 c 2
 386 100 l 2
 392 100 397 102 401 106 c 2
 405 110 l 2
 409 114 410 119 410 124 c 2
 410 254 l 1
 201 254 l 2
 181 254 164 262 150 276 c 2
 103 323 l 2
 89 337 84 352 84 371 c 2
 84 550 l 2
 84 569 89 584 103 598 c 2
 150 645 l 2
 164 659 181 667 201 667 c 2
 407 667 l 2
 427 667 444 659 458 645 c 2
 505 598 l 2
 519 584 524 569 524 550 c 2
 524 117 l 2
410 378 m 2
 410 543 l 2
 408 548 409 553 405 557 c 2
 401 561 l 2
 397 565 392 567 386 567 c 2
 222 567 l 2
 216 567 211 565 207 561 c 2
 203 557 l 2
 199 553 198 548 198 543 c 2
 198 378 l 2
 198 373 199 368 203 364 c 2
 207 360 l 2
 211 356 216 354 222 354 c 2
 386 354 l 2
 392 354 397 356 401 360 c 2
 405 364 l 2
 409 368 410 373 410 378 c 2
EndSplineSet
EndChar

StartChar: colon
Encoding: 58 58 27
Width: 304
Flags: MW
HStem: 0 128<88 216 88 216> 348 128<88 216 88 216>
VStem: 88 128<0 128 348 476>
LayerCount: 2
Fore
SplineSet
216 348 m 1
 88 348 l 1
 88 476 l 1
 216 476 l 1
 216 348 l 1
216 0 m 1
 88 0 l 1
 88 128 l 1
 216 128 l 1
 216 0 l 1
EndSplineSet
EndChar

StartChar: semicolon
Encoding: 59 59 28
Width: 304
Flags: MW
HStem: 348 128<88 216 88 216>
VStem: 88 128<348 476>
LayerCount: 2
Fore
SplineSet
216 348 m 1
 88 348 l 1
 88 476 l 1
 216 476 l 1
 216 348 l 1
209 -58 m 2
 209 -80 204 -93 189 -108 c 2
 127 -170 l 1
 58 -101 l 1
 88 -71 l 2
 92 -67 95 -63 95 -57 c 2
 95 128 l 1
 209 128 l 1
 209 -58 l 2
EndSplineSet
EndChar

StartChar: less
Encoding: 60 60 29
Width: 608
Flags: MW
HStem: 456 20<388 388>
LayerCount: 2
Fore
SplineSet
458 405 m 1
 291 238 l 1
 458 71 l 1
 388 0 l 1
 150 238 l 1
 388 476 l 1
 458 405 l 1
EndSplineSet
EndChar

StartChar: equal
Encoding: 61 61 30
Width: 608
Flags: MW
HStem: 89 100<66 542 66 542> 289 100<66 542 66 542>
LayerCount: 2
Fore
SplineSet
542 289 m 1
 66 289 l 1
 66 389 l 1
 542 389 l 1
 542 289 l 1
542 89 m 1
 66 89 l 1
 66 189 l 1
 542 189 l 1
 542 89 l 1
EndSplineSet
EndChar

StartChar: greater
Encoding: 62 62 31
Width: 608
Flags: MW
HStem: 456 20<220 220>
LayerCount: 2
Fore
SplineSet
458 238 m 1
 220 0 l 1
 150 71 l 1
 317 238 l 1
 150 405 l 1
 220 476 l 1
 458 238 l 1
EndSplineSet
EndChar

StartChar: question
Encoding: 63 63 32
Width: 516
Flags: MW
HStem: 0 128<168 296 168 296> 567 100<180 183 183 294>
VStem: 168 128<0 128> 318 114<465 543 543 545.5>
LayerCount: 2
Fore
SplineSet
432 459 m 2
 432 440 425 423 411 409 c 2
 295 293 l 2
 291 289 289 285 289 279 c 2
 289 226 l 1
 175 226 l 1
 175 285 l 2
 175 304 181 320 195 334 c 2
 312 451 l 2
 316 455 318 460 318 465 c 2
 318 543 l 2
 318 548 317 553 313 557 c 2
 309 561 l 2
 305 565 300 567 294 567 c 2
 183 567 l 2
 177 567 172 565 168 561 c 2
 113 506 l 1
 42 576 l 1
 111 645 l 2
 125 659 142 667 162 667 c 2
 315 667 l 2
 335 667 352 659 366 645 c 2
 413 598 l 2
 427 584 432 569 432 550 c 2
 432 459 l 2
296 0 m 1
 168 0 l 1
 168 128 l 1
 296 128 l 1
 296 0 l 1
EndSplineSet
EndChar

StartChar: at
Encoding: 64 64 33
Width: 842
Flags: MW
HStem: -56 100<225.5 688 269 688 269 688> 115 70<342 410 385 410 410 413 385 449> 426 70<382 385 385 410> 567 100<266.5 269 269 574>
VStem: 98 100<113 116 116 495> 265 93<208.5 211 211 400> 478 93<253 358 358 360.5> 644 100<193 496 496 499>
LayerCount: 2
Fore
SplineSet
744 184 m 2
 744 179 742 174 738 170 c 2
 689 121 l 2
 685 117 681 115 675 115 c 2
 569 115 l 2
 563 115 559 117 555 121 c 2
 509 167 l 1
 463 121 l 2
 459 117 455 115 449 115 c 2
 345 115 l 2
 339 115 335 117 331 121 c 2
 271 181 l 2
 267 185 265 189 265 195 c 2
 265 416 l 2
 265 422 267 426 271 430 c 2
 331 490 l 2
 335 494 339 496 345 496 c 2
 443 496 l 2
 449 496 453 494 457 490 c 2
 496 450 l 1
 501 496 l 1
 578 496 l 1
 571 427 l 1
 571 222 l 2
 571 216 573 212 577 208 c 2
 605 180 l 2
 615 170 629 170 634 175 c 2
 638 179 l 2
 642 183 644 187 644 193 c 2
 644 496 l 2
 644 502 642 507 638 511 c 2
 588 561 l 2
 584 565 579 567 574 567 c 2
 269 567 l 2
 264 567 259 565 255 561 c 2
 204 510 l 2
 200 506 198 501 198 495 c 2
 198 116 l 2
 198 110 200 105 204 101 c 2
 255 50 l 2
 259 46 264 44 269 44 c 2
 688 44 l 1
 688 -56 l 1
 228 -56 l 2
 223 -56 218 -54 214 -50 c 2
 104 60 l 2
 100 64 98 68 98 74 c 2
 98 537 l 2
 98 543 100 547 104 551 c 2
 214 661 l 2
 218 665 223 667 228 667 c 2
 615 667 l 2
 620 667 625 665 629 661 c 2
 738 552 l 2
 742 548 744 543 744 537 c 2
 744 184 l 2
478 253 m 2
 478 358 l 2
 478 363 476 368 472 372 c 2
 424 420 l 2
 420 424 416 426 410 426 c 2
 385 426 l 2
 379 426 374 424 370 420 c 2
 364 414 l 2
 360 410 358 405 358 400 c 2
 358 211 l 2
 358 206 360 201 364 197 c 2
 370 191 l 2
 374 187 379 185 385 185 c 2
 410 185 l 2
 416 185 420 187 424 191 c 2
 472 239 l 2
 476 243 478 248 478 253 c 2
EndSplineSet
EndChar

StartChar: A
Encoding: 65 65 34
Width: 690
Flags: MW
HStem: 167 107<252 436 252 477 211 436>
LayerCount: 2
Fore
SplineSet
662 0 m 1
 540 0 l 1
 477 167 l 1
 211 167 l 1
 148 0 l 1
 28 0 l 1
 275 667 l 1
 417 667 l 1
 662 0 l 1
436 274 m 1
 344 538 l 1
 252 274 l 1
 436 274 l 1
EndSplineSet
EndChar

StartChar: B
Encoding: 66 66 35
Width: 703
Flags: MW
HStem: 0 114<232 457 457 459.5 232 484> 278 112<232 431 232 433> 553 114<232 457 232 232>
VStem: 112 120<114 278 390 553> 499 120<156 210 210 213 456 511 511 514>
LayerCount: 2
Fore
SplineSet
619 135 m 2
 619 116 612 99 598 85 c 2
 533 20 l 2
 519 6 503 0 484 0 c 2
 112 0 l 1
 112 667 l 1
 484 667 l 2
 503 667 519 660 532 647 c 2
 598 581 l 2
 612 567 619 551 619 531 c 2
 619 441 l 2
 619 422 612 405 598 391 c 2
 541 334 l 1
 598 277 l 2
 612 263 619 247 619 227 c 2
 619 135 l 2
499 456 m 2
 499 511 l 2
 499 517 497 521 493 525 c 2
 471 547 l 2
 467 551 463 553 457 553 c 2
 232 553 l 1
 232 390 l 1
 433 390 l 2
 438 390 443 392 447 396 c 2
 493 442 l 2
 497 446 499 450 499 456 c 2
499 156 m 2
 499 210 l 2
 499 216 497 220 493 224 c 2
 445 272 l 2
 441 276 437 278 431 278 c 2
 232 278 l 1
 232 114 l 1
 457 114 l 2
 462 114 467 116 471 120 c 2
 493 142 l 2
 497 146 499 150 499 156 c 2
EndSplineSet
EndChar

StartChar: C
Encoding: 67 67 36
Width: 633
Flags: MW
HStem: 0 114<227.5 428 263 428 428 431 263 454> 553 114<260 263 263 428>
VStem: 84 120<170.5 173 173 494>
LayerCount: 2
Fore
SplineSet
591 108 m 1
 504 21 l 2
 490 7 473 0 454 0 c 2
 237 0 l 2
 218 0 201 7 187 21 c 2
 105 103 l 2
 91 117 84 134 84 153 c 2
 84 514 l 2
 84 533 91 550 105 564 c 2
 187 646 l 2
 201 660 218 667 237 667 c 2
 454 667 l 2
 473 667 490 660 504 646 c 2
 591 559 l 1
 510 479 l 1
 442 547 l 2
 438 551 434 553 428 553 c 2
 263 553 l 2
 257 553 253 551 249 547 c 2
 210 508 l 2
 206 504 204 499 204 494 c 2
 204 173 l 2
 204 168 206 163 210 159 c 2
 249 120 l 2
 253 116 257 114 263 114 c 2
 428 114 l 2
 434 114 438 116 442 120 c 2
 510 188 l 1
 591 108 l 1
EndSplineSet
EndChar

StartChar: D
Encoding: 68 68 37
Width: 703
Flags: MW
HStem: 0 114<232 440 440 443 232 466> 553 114<232 440 232 232>
VStem: 112 120<114 553 114 667 114 667> 499 120<173 494 494 496.5>
LayerCount: 2
Fore
SplineSet
619 153 m 2
 619 134 612 117 598 103 c 2
 516 21 l 2
 502 7 485 0 466 0 c 2
 112 0 l 1
 112 667 l 1
 466 667 l 2
 485 667 502 660 516 646 c 2
 598 564 l 2
 612 550 619 533 619 514 c 2
 619 153 l 2
499 173 m 2
 499 494 l 2
 499 499 497 504 493 508 c 2
 454 547 l 2
 450 551 446 553 440 553 c 2
 232 553 l 1
 232 114 l 1
 440 114 l 2
 446 114 450 116 454 120 c 2
 493 159 l 2
 497 163 499 168 499 173 c 2
EndSplineSet
EndChar

StartChar: E
Encoding: 69 69 38
Width: 643
Flags: MW
HStem: 0 114<232 559 232 559> 277 114<232 559 232 559> 553 114<232 559 232 232>
VStem: 112 120<114 277 391 553>
LayerCount: 2
Fore
SplineSet
559 0 m 1
 112 0 l 1
 112 667 l 1
 559 667 l 1
 559 553 l 1
 232 553 l 1
 232 391 l 1
 559 391 l 1
 559 277 l 1
 232 277 l 1
 232 114 l 1
 559 114 l 1
 559 0 l 1
EndSplineSet
EndChar

StartChar: F
Encoding: 70 70 39
Width: 615
Flags: MW
HStem: 277 114<232 559 232 559> 553 114<232 559 232 232>
VStem: 112 120<0 277 0 391 391 553>
LayerCount: 2
Fore
SplineSet
559 277 m 1
 232 277 l 1
 232 0 l 1
 112 0 l 1
 112 667 l 1
 559 667 l 1
 559 553 l 1
 232 553 l 1
 232 391 l 1
 559 391 l 1
 559 277 l 1
EndSplineSet
EndChar

StartChar: G
Encoding: 71 71 40
Width: 748
Flags: MW
HStem: 0 114<227.5 421 263 421 421 424 263 440> 277 114<367 532 367 652> 553 114<260 263 263 471>
VStem: 84 120<170.5 173 173 494> 367 285<277 391 133 391>
LayerCount: 2
Fore
SplineSet
678 0 m 1
 569 0 l 1
 554 85 l 1
 490 21 l 2
 476 7 459 0 440 0 c 2
 237 0 l 2
 218 0 201 7 187 21 c 2
 105 103 l 2
 91 117 84 134 84 153 c 2
 84 514 l 2
 84 533 91 550 105 564 c 2
 187 646 l 2
 201 660 218 667 237 667 c 2
 497 667 l 2
 516 667 533 660 547 646 c 2
 634 559 l 1
 553 479 l 1
 485 547 l 2
 481 551 477 553 471 553 c 2
 263 553 l 2
 257 553 253 551 249 547 c 2
 210 508 l 2
 206 504 204 499 204 494 c 2
 204 173 l 2
 204 168 206 163 210 159 c 2
 249 120 l 2
 253 116 257 114 263 114 c 2
 421 114 l 2
 427 114 431 116 435 120 c 2
 526 211 l 2
 530 215 532 219 532 225 c 2
 532 277 l 1
 367 277 l 1
 367 391 l 1
 652 391 l 1
 652 133 l 1
 678 0 l 1
EndSplineSet
EndChar

StartChar: H
Encoding: 72 72 41
Width: 731
Flags: MW
HStem: 277 114<232 499 232 499>
VStem: 112 120<0 277 0 391 391 667> 499 120<0 277 277 277 391 667>
LayerCount: 2
Fore
SplineSet
619 0 m 1
 499 0 l 1
 499 277 l 1
 232 277 l 1
 232 0 l 1
 112 0 l 1
 112 667 l 1
 232 667 l 1
 232 391 l 1
 499 391 l 1
 499 667 l 1
 619 667 l 1
 619 0 l 1
EndSplineSet
EndChar

StartChar: I
Encoding: 73 73 42
Width: 444
Flags: MW
HStem: 0 114 553 114
VStem: 162 120<106 561 106 561>
LayerCount: 2
Fore
SplineSet
402 0 m 1
 42 0 l 1
 42 106 l 1
 162 106 l 1
 162 561 l 1
 42 561 l 1
 42 667 l 1
 402 667 l 1
 402 561 l 1
 282 561 l 1
 282 106 l 1
 402 106 l 1
 402 0 l 1
EndSplineSet
EndChar

StartChar: J
Encoding: 74 74 43
Width: 574
Flags: MW
HStem: 0 114<134.5 297 170 297 297 300 170 323> 553 114<166 356 166 476>
VStem: 166 310<553 667>
LayerCount: 2
Fore
SplineSet
476 153 m 2
 476 134 469 117 455 103 c 2
 373 21 l 2
 359 7 342 0 323 0 c 2
 144 0 l 2
 125 0 108 7 94 21 c 2
 7 108 l 1
 88 188 l 1
 156 120 l 2
 160 116 164 114 170 114 c 2
 297 114 l 2
 303 114 307 116 311 120 c 2
 350 159 l 2
 354 163 356 168 356 173 c 2
 356 553 l 1
 166 553 l 1
 166 667 l 1
 476 667 l 1
 476 153 l 2
EndSplineSet
EndChar

StartChar: K
Encoding: 75 75 44
Width: 626
Flags: MW
VStem: 112 120<0 277 0 390 390 667>
LayerCount: 2
Fore
SplineSet
619 0 m 1
 465 0 l 1
 232 277 l 1
 232 0 l 1
 112 0 l 1
 112 667 l 1
 232 667 l 1
 232 390 l 1
 471 667 l 1
 619 667 l 1
 329 334 l 1
 619 0 l 1
EndSplineSet
EndChar

StartChar: L
Encoding: 76 76 45
Width: 580
Flags: MW
HStem: 0 114<232 559 232 559>
VStem: 112 120<114 667 114 667 114 667>
LayerCount: 2
Fore
SplineSet
559 0 m 1
 112 0 l 1
 112 667 l 1
 232 667 l 1
 232 114 l 1
 559 114 l 1
 559 0 l 1
EndSplineSet
EndChar

StartChar: M
Encoding: 77 77 46
Width: 908
Flags: MW
VStem: 112 117<0 530 0 667> 679 117<0 530 530 530>
LayerCount: 2
Fore
SplineSet
796 0 m 1
 679 0 l 1
 679 530 l 1
 516 0 l 1
 392 0 l 1
 229 530 l 1
 229 0 l 1
 112 0 l 1
 112 667 l 1
 296 667 l 1
 454 150 l 1
 612 667 l 1
 796 667 l 1
 796 0 l 1
EndSplineSet
EndChar

StartChar: N
Encoding: 78 78 47
Width: 731
Flags: MW
VStem: 112 117<0 517 0 667> 502 117<150 667>
LayerCount: 2
Fore
SplineSet
619 0 m 1
 449 0 l 1
 229 517 l 1
 229 0 l 1
 112 0 l 1
 112 667 l 1
 282 667 l 1
 502 150 l 1
 502 667 l 1
 619 667 l 1
 619 0 l 1
EndSplineSet
EndChar

StartChar: O
Encoding: 79 79 48
Width: 735
Flags: MW
HStem: 0 114<227.5 472 263 472 472 475 263 498> 553 114<260 263 263 472>
VStem: 84 120<170.5 173 173 494> 531 120<173 494 494 496.5>
LayerCount: 2
Fore
SplineSet
651 153 m 2
 651 134 644 117 630 103 c 2
 548 21 l 2
 534 7 517 0 498 0 c 2
 237 0 l 2
 218 0 201 7 187 21 c 2
 105 103 l 2
 91 117 84 134 84 153 c 2
 84 514 l 2
 84 533 91 550 105 564 c 2
 187 646 l 2
 201 660 218 667 237 667 c 2
 498 667 l 2
 517 667 534 660 548 646 c 2
 630 564 l 2
 644 550 651 533 651 514 c 2
 651 153 l 2
531 173 m 2
 531 494 l 2
 531 499 529 504 525 508 c 2
 486 547 l 2
 482 551 478 553 472 553 c 2
 263 553 l 2
 257 553 253 551 249 547 c 2
 210 508 l 2
 206 504 204 499 204 494 c 2
 204 173 l 2
 204 168 206 163 210 159 c 2
 249 120 l 2
 253 116 257 114 263 114 c 2
 472 114 l 2
 478 114 482 116 486 120 c 2
 525 159 l 2
 529 163 531 168 531 173 c 2
EndSplineSet
EndChar

StartChar: P
Encoding: 80 80 49
Width: 668
Flags: MW
HStem: 263 114<232 457 457 460 232 484 232 457> 553 114<232 457 232 232>
VStem: 112 120<0 263 0 377 377 553> 499 120<419 511 511 514>
LayerCount: 2
Fore
SplineSet
619 399 m 2
 619 379 612 363 598 349 c 2
 532 283 l 2
 519 270 503 263 484 263 c 2
 232 263 l 1
 232 0 l 1
 112 0 l 1
 112 667 l 1
 484 667 l 2
 503 667 519 660 532 647 c 2
 598 581 l 2
 612 567 619 551 619 531 c 2
 619 399 l 2
499 419 m 2
 499 511 l 2
 499 517 497 521 493 525 c 2
 471 547 l 2
 467 551 463 553 457 553 c 2
 232 553 l 1
 232 377 l 1
 457 377 l 2
 463 377 467 379 471 383 c 2
 493 405 l 2
 497 409 499 413 499 419 c 2
EndSplineSet
EndChar

StartChar: Q
Encoding: 81 81 50
Width: 735
Flags: MW
HStem: 0 114<227.5 329 263 329 263 378 474 475 474 474> 553 114<260 263 263 472>
VStem: 84 120<170.5 173 173 494> 531 120<173 494 494 496.5>
LayerCount: 2
Fore
SplineSet
651 153 m 2
 651 134 644 117 630 103 c 2
 548 21 l 2
 534 7 517 0 498 0 c 2
 474 0 l 1
 519 -105 l 1
 437 -139 l 1
 378 0 l 1
 237 0 l 2
 218 0 201 7 187 21 c 2
 105 103 l 2
 91 117 84 134 84 153 c 2
 84 514 l 2
 84 533 91 550 105 564 c 2
 187 646 l 2
 201 660 218 667 237 667 c 2
 498 667 l 2
 517 667 534 660 548 646 c 2
 630 564 l 2
 644 550 651 533 651 514 c 2
 651 153 l 2
531 173 m 2
 531 494 l 2
 531 499 529 504 525 508 c 2
 486 547 l 2
 482 551 478 553 472 553 c 2
 263 553 l 2
 257 553 253 551 249 547 c 2
 210 508 l 2
 206 504 204 499 204 494 c 2
 204 173 l 2
 204 168 206 163 210 159 c 2
 249 120 l 2
 253 116 257 114 263 114 c 2
 329 114 l 1
 305 171 l 1
 387 208 l 1
 426 114 l 1
 472 114 l 2
 478 114 482 116 486 120 c 2
 525 159 l 2
 529 163 531 168 531 173 c 2
EndSplineSet
EndChar

StartChar: R
Encoding: 82 82 51
Width: 722
Flags: MW
HStem: 263 114<232 305 232 457 232 460 232 484> 553 114<232 457 232 232>
VStem: 112 120<0 263 0 377 377 553> 499 120<419 511 511 514>
LayerCount: 2
Fore
SplineSet
666 0 m 1
 519 0 l 1
 322 254 l 2
 318 260 312 263 305 263 c 2
 232 263 l 1
 232 0 l 1
 112 0 l 1
 112 667 l 1
 484 667 l 2
 503 667 519 660 532 647 c 2
 598 581 l 2
 612 567 619 551 619 531 c 2
 619 399 l 2
 619 379 612 363 598 349 c 2
 532 283 l 2
 519 270 503 263 484 263 c 2
 460 263 l 1
 666 0 l 1
499 419 m 2
 499 511 l 2
 499 517 497 521 493 525 c 2
 471 547 l 2
 467 551 463 553 457 553 c 2
 232 553 l 1
 232 377 l 1
 457 377 l 2
 463 377 467 379 471 383 c 2
 493 405 l 2
 497 409 499 413 499 419 c 2
EndSplineSet
EndChar

StartChar: S
Encoding: 83 83 52
Width: 707
Flags: MW
HStem: 0 114<195.5 458 231 458 458 461 231 484> 553 114<246 249 249 476>
VStem: 70 120<425 430 430 494 425 514 425 523.5> 517 120<173 237 237 242>
LayerCount: 2
Fore
SplineSet
637 153 m 2
 637 134 630 117 616 103 c 2
 534 21 l 2
 520 7 503 0 484 0 c 2
 205 0 l 2
 186 0 169 7 155 21 c 2
 70 106 l 1
 150 187 l 1
 217 120 l 2
 221 116 225 114 231 114 c 2
 458 114 l 2
 464 114 468 116 472 120 c 2
 511 159 l 2
 515 163 517 168 517 173 c 2
 517 237 l 2
 517 247 508 256 498 257 c 2
 139 305 l 2
 100 310 70 345 70 383 c 2
 70 514 l 2
 70 533 77 550 91 564 c 2
 173 646 l 2
 187 660 204 667 223 667 c 2
 502 667 l 2
 521 667 538 660 552 646 c 2
 637 561 l 1
 557 480 l 1
 490 547 l 2
 486 551 482 553 476 553 c 2
 249 553 l 2
 243 553 239 551 235 547 c 2
 196 508 l 2
 192 504 190 499 190 494 c 2
 190 430 l 2
 190 420 198 411 208 410 c 2
 568 362 l 2
 607 357 637 322 637 284 c 2
 637 153 l 2
EndSplineSet
EndChar

StartChar: T
Encoding: 84 84 53
Width: 562
Flags: MW
HStem: 553 114<28 221 28 534 341 534 341 341>
VStem: 221 120<0 553 0 553>
LayerCount: 2
Fore
SplineSet
534 553 m 1
 341 553 l 1
 341 0 l 1
 221 0 l 1
 221 553 l 1
 28 553 l 1
 28 667 l 1
 534 667 l 1
 534 553 l 1
EndSplineSet
EndChar

StartChar: U
Encoding: 85 85 54
Width: 703
Flags: MW
HStem: 0 114<241.5 426 277 426 426 429 277 452>
VStem: 98 120<170.5 173 173 667> 485 120<173 667>
LayerCount: 2
Fore
SplineSet
605 153 m 2
 605 134 598 117 584 103 c 2
 502 21 l 2
 488 7 471 0 452 0 c 2
 251 0 l 2
 232 0 215 7 201 21 c 2
 119 103 l 2
 105 117 98 134 98 153 c 2
 98 667 l 1
 218 667 l 1
 218 173 l 2
 218 168 220 163 224 159 c 2
 263 120 l 2
 267 116 271 114 277 114 c 2
 426 114 l 2
 432 114 436 116 440 120 c 2
 479 159 l 2
 483 163 485 168 485 173 c 2
 485 667 l 1
 605 667 l 1
 605 153 l 2
EndSplineSet
EndChar

StartChar: V
Encoding: 86 86 55
Width: 605
Flags: W
LayerCount: 2
Fore
SplineSet
591 667 m 1
 373 0 l 1
 230 0 l 1
 14 667 l 1
 138 667 l 1
 303 130 l 1
 470 667 l 1
 591 667 l 1
EndSplineSet
EndChar

StartChar: W
Encoding: 87 87 56
Width: 907
Flags: W
LayerCount: 2
Fore
SplineSet
865 667 m 1
 717 0 l 1
 560 0 l 1
 452 527 l 1
 345 0 l 1
 188 0 l 1
 42 667 l 1
 163 667 l 1
 268 130 l 1
 375 667 l 1
 535 667 l 1
 640 130 l 1
 747 667 l 1
 865 667 l 1
EndSplineSet
EndChar

StartChar: X
Encoding: 88 88 57
Width: 608
Flags: W
LayerCount: 2
Fore
SplineSet
566 0 m 1
 433 0 l 1
 304 226 l 1
 173 0 l 1
 42 0 l 1
 238 333 l 1
 42 667 l 1
 174 667 l 1
 304 440 l 1
 434 667 l 1
 565 667 l 1
 369 334 l 1
 566 0 l 1
EndSplineSet
EndChar

StartChar: Y
Encoding: 89 89 58
Width: 599
Flags: MW
VStem: 240 120<0 295 0 295>
LayerCount: 2
Fore
SplineSet
585 667 m 1
 360 295 l 1
 360 0 l 1
 240 0 l 1
 240 295 l 1
 14 667 l 1
 145 667 l 1
 301 408 l 1
 456 667 l 1
 585 667 l 1
EndSplineSet
EndChar

StartChar: Z
Encoding: 90 90 59
Width: 647
Flags: MW
HStem: 0 114<238 577 238 577> 553 114<70 409 70 577>
LayerCount: 2
Fore
SplineSet
577 0 m 1
 70 0 l 1
 70 77 l 1
 409 553 l 1
 70 553 l 1
 70 667 l 1
 577 667 l 1
 577 590 l 1
 238 114 l 1
 577 114 l 1
 577 0 l 1
EndSplineSet
EndChar

StartChar: bracketleft
Encoding: 91 91 60
Width: 410
Flags: MW
HStem: -190 100<226 368 226 368> 706 100<226 368 226 226>
VStem: 112 114<-90 706 -90 806 -90 806>
LayerCount: 2
Fore
SplineSet
368 -190 m 1
 112 -190 l 1
 112 806 l 1
 368 806 l 1
 368 706 l 1
 226 706 l 1
 226 -90 l 1
 368 -90 l 1
 368 -190 l 1
EndSplineSet
EndChar

StartChar: backslash
Encoding: 92 92 61
Width: 553
Flags: W
LayerCount: 2
Fore
SplineSet
513 -84 m 1
 409 -84 l 1
 40 755 l 1
 144 755 l 1
 513 -84 l 1
EndSplineSet
EndChar

StartChar: bracketright
Encoding: 93 93 62
Width: 410
Flags: MW
HStem: -190 100<42 184 42 298 42 184> 706 100<42 184 42 298>
VStem: 42 256<-190 -90 -90 -90 706 806>
LayerCount: 2
Fore
SplineSet
298 -190 m 1
 42 -190 l 1
 42 -90 l 1
 184 -90 l 1
 184 706 l 1
 42 706 l 1
 42 806 l 1
 298 806 l 1
 298 -190 l 1
EndSplineSet
EndChar

StartChar: asciicircum
Encoding: 94 94 63
Width: 608
Flags: W
LayerCount: 2
Fore
SplineSet
542 432 m 1
 471 362 l 1
 304 529 l 1
 137 362 l 1
 66 432 l 1
 304 670 l 1
 542 432 l 1
EndSplineSet
EndChar

StartChar: underscore
Encoding: 95 95 64
Width: 500
Flags: MW
HStem: -325 100<0 500 0 500>
LayerCount: 2
Fore
SplineSet
500 -325 m 1
 0 -325 l 1
 0 -225 l 1
 500 -225 l 1
 500 -325 l 1
EndSplineSet
EndChar

StartChar: grave
Encoding: 96 96 65
Width: 465
Flags: W
LayerCount: 2
Fore
SplineSet
351 528 m 1
 239 528 l 1
 100 667 l 1
 212 667 l 1
 351 528 l 1
EndSplineSet
EndChar

StartChar: a
Encoding: 97 97 66
Width: 574
Flags: MW
HStem: 0 100<146.5 313 177 313 313 315.5 177 333> 206 93<174.5 177 177 369> 376 100<164.5 167 167 348>
VStem: 42 114<118 121 121 185> 369 114<156 206 206 206 299 355 355 358>
LayerCount: 2
Fore
SplineSet
531 73 m 1
 458 0 l 1
 410 48 l 1
 382 20 l 2
 369 7 352 0 333 0 c 2
 156 0 l 2
 137 0 121 6 107 20 c 2
 63 64 l 2
 49 78 42 95 42 115 c 2
 42 191 l 2
 42 211 49 228 63 242 c 2
 100 279 l 2
 113 292 130 299 149 299 c 2
 369 299 l 1
 369 355 l 2
 369 361 367 365 363 369 c 2
 362 370 l 2
 358 374 353 376 348 376 c 2
 167 376 l 2
 162 376 157 374 153 370 c 2
 122 339 l 1
 56 405 l 1
 107 456 l 2
 120 469 137 476 156 476 c 2
 369 476 l 2
 388 476 404 469 418 456 c 2
 462 412 l 2
 476 398 483 381 483 361 c 2
 483 129 l 2
 483 123 485 119 489 115 c 2
 531 73 l 1
369 156 m 2
 369 206 l 1
 177 206 l 2
 172 206 167 204 163 200 c 2
 162 199 l 2
 158 195 156 191 156 185 c 2
 156 121 l 2
 156 115 158 111 162 107 c 2
 163 106 l 2
 167 102 172 100 177 100 c 2
 313 100 l 2
 318 100 323 102 327 106 c 2
 363 142 l 2
 367 146 369 150 369 156 c 2
EndSplineSet
EndChar

StartChar: b
Encoding: 98 98 67
Width: 581
Flags: MW
HStem: 0 100<275.5 390 289 390 390 392.5 289 411> 376 100<286.5 289 289 390>
VStem: 84 114<188 191 191 285 418 667> 411 114<0 115 121 355 355 358>
LayerCount: 2
Fore
SplineSet
525 115 m 2
 525 95 518 78 504 64 c 2
 460 20 l 2
 446 6 430 0 411 0 c 2
 285 0 l 2
 266 0 250 6 236 20 c 2
 188 68 l 1
 172 0 l 1
 68 0 l 1
 84 79 l 1
 84 667 l 1
 198 667 l 1
 198 418 l 1
 236 456 l 2
 250 470 266 476 285 476 c 2
 411 476 l 2
 430 476 446 470 460 456 c 2
 504 412 l 2
 518 398 525 381 525 361 c 2
 525 115 l 2
411 121 m 2
 411 355 l 2
 411 361 409 365 405 369 c 2
 404 370 l 2
 400 374 395 376 390 376 c 2
 289 376 l 2
 284 376 279 374 275 370 c 2
 204 299 l 2
 200 295 198 291 198 285 c 2
 198 191 l 2
 198 185 200 181 204 177 c 2
 275 106 l 2
 279 102 284 100 289 100 c 2
 390 100 l 2
 395 100 400 102 404 106 c 2
 405 107 l 2
 409 111 411 115 411 121 c 2
EndSplineSet
EndChar

StartChar: c
Encoding: 99 99 68
Width: 511
Flags: MW
HStem: 0 100<160.5 348 191 348 348 350.5 191 369> 376 100<188.5 191 191 348>
VStem: 56 114<118 121 121 355>
LayerCount: 2
Fore
SplineSet
483 85 m 1
 418 20 l 2
 404 6 388 0 369 0 c 2
 170 0 l 2
 151 0 135 6 121 20 c 2
 77 64 l 2
 63 78 56 95 56 115 c 2
 56 361 l 2
 56 381 63 398 77 412 c 2
 121 456 l 2
 135 470 151 476 170 476 c 2
 369 476 l 2
 388 476 404 470 418 456 c 2
 483 391 l 1
 412 320 l 1
 362 370 l 2
 358 374 353 376 348 376 c 2
 191 376 l 2
 186 376 181 374 177 370 c 2
 176 369 l 2
 172 365 170 361 170 355 c 2
 170 121 l 2
 170 115 172 111 176 107 c 2
 177 106 l 2
 181 102 186 100 191 100 c 2
 348 100 l 2
 353 100 358 102 362 106 c 2
 412 156 l 1
 483 85 l 1
EndSplineSet
EndChar

StartChar: d
Encoding: 100 100 69
Width: 581
Flags: MW
HStem: 0 100<160.5 292 191 292 292 294.5 191 296> 376 100<188.5 191 191 292>
VStem: 56 114<118 121 121 355> 383 114<191 285 285 288 418 667 79 667>
LayerCount: 2
Fore
SplineSet
513 0 m 1
 409 0 l 1
 393 68 l 1
 345 20 l 2
 331 6 315 0 296 0 c 2
 170 0 l 2
 151 0 135 6 121 20 c 2
 77 64 l 2
 63 78 56 95 56 115 c 2
 56 361 l 2
 56 381 63 398 77 412 c 2
 121 456 l 2
 135 470 151 476 170 476 c 2
 296 476 l 2
 315 476 331 470 345 456 c 2
 383 418 l 1
 383 667 l 1
 497 667 l 1
 497 79 l 1
 513 0 l 1
383 191 m 2
 383 285 l 2
 383 291 381 295 377 299 c 2
 306 370 l 2
 302 374 297 376 292 376 c 2
 191 376 l 2
 186 376 181 374 177 370 c 2
 176 369 l 2
 172 365 170 361 170 355 c 2
 170 121 l 2
 170 115 172 111 176 107 c 2
 177 106 l 2
 181 102 186 100 191 100 c 2
 292 100 l 2
 297 100 302 102 306 106 c 2
 377 177 l 2
 381 181 383 185 383 191 c 2
EndSplineSet
EndChar

StartChar: e
Encoding: 101 101 70
Width: 553
Flags: MW
HStem: 0 100<160.5 362 191 362 362 364.5 191 383> 206 93<170 383 170 497 170 383> 376 100<188.5 191 191 362>
VStem: 56 114<118 121 121 206 299 355> 383 114<0 85 299 355 355 358>
LayerCount: 2
Fore
SplineSet
497 206 m 1
 170 206 l 1
 170 121 l 2
 170 115 172 111 176 107 c 2
 177 106 l 2
 181 102 186 100 191 100 c 2
 362 100 l 2
 367 100 372 102 376 106 c 2
 426 156 l 1
 497 85 l 1
 432 20 l 2
 418 6 402 0 383 0 c 2
 170 0 l 2
 151 0 135 6 121 20 c 2
 77 64 l 2
 63 78 56 95 56 115 c 2
 56 361 l 2
 56 381 63 398 77 412 c 2
 121 456 l 2
 135 470 151 476 170 476 c 2
 383 476 l 2
 402 476 418 470 432 456 c 2
 476 412 l 2
 490 398 497 381 497 361 c 2
 497 206 l 1
383 299 m 1
 383 355 l 2
 383 361 381 365 377 369 c 2
 376 370 l 2
 372 374 367 376 362 376 c 2
 191 376 l 2
 186 376 181 374 177 370 c 2
 176 369 l 2
 172 365 170 361 170 355 c 2
 170 299 l 1
 383 299 l 1
EndSplineSet
EndChar

StartChar: f
Encoding: 102 102 71
Width: 415
Flags: MW
HStem: 376 100<28 112 28 112 226 387> 567 100<244.5 247 247 387>
VStem: 112 275<0 376 376 376 376 559 376 567 567 569>
LayerCount: 2
Fore
SplineSet
387 376 m 1
 226 376 l 1
 226 0 l 1
 112 0 l 1
 112 376 l 1
 28 376 l 1
 28 476 l 1
 112 476 l 1
 112 559 l 2
 112 579 119 596 133 610 c 2
 170 647 l 2
 184 661 200 667 219 667 c 2
 387 667 l 1
 387 567 l 1
 247 567 l 2
 242 567 237 565 233 561 c 2
 232 560 l 2
 228 556 226 552 226 546 c 2
 226 476 l 1
 387 476 l 1
 387 376 l 1
EndSplineSet
EndChar

StartChar: g
Encoding: 103 103 72
Width: 581
Flags: MW
HStem: -191 98<160.5 362 189 362 362 364.5 189 383> 0 100<160.5 292 191 292 292 294.5 191 296> 376 100<188.5 191 191 292>
VStem: 56 114<118 121 121 355> 383 114<-191 -76 -72 58 58 58 191 285 285 288>
LayerCount: 2
Fore
SplineSet
513 476 m 1
 497 397 l 1
 497 -76 l 2
 497 -96 490 -113 476 -127 c 2
 432 -171 l 2
 418 -185 402 -191 383 -191 c 2
 170 -191 l 2
 151 -191 135 -185 121 -171 c 2
 63 -113 l 1
 132 -44 l 1
 175 -87 l 2
 179 -91 184 -93 189 -93 c 2
 362 -93 l 2
 367 -93 372 -91 376 -87 c 2
 377 -86 l 2
 381 -82 383 -78 383 -72 c 2
 383 58 l 1
 345 20 l 2
 331 6 315 0 296 0 c 2
 170 0 l 2
 151 0 135 6 121 20 c 2
 77 64 l 2
 63 78 56 95 56 115 c 2
 56 361 l 2
 56 381 63 398 77 412 c 2
 121 456 l 2
 135 470 151 476 170 476 c 2
 296 476 l 2
 315 476 331 470 345 456 c 2
 393 408 l 1
 409 476 l 1
 513 476 l 1
383 191 m 2
 383 285 l 2
 383 291 381 295 377 299 c 2
 306 370 l 2
 302 374 297 376 292 376 c 2
 191 376 l 2
 186 376 181 374 177 370 c 2
 176 369 l 2
 172 365 170 361 170 355 c 2
 170 121 l 2
 170 115 172 111 176 107 c 2
 177 106 l 2
 181 102 186 100 191 100 c 2
 292 100 l 2
 297 100 302 102 306 106 c 2
 377 177 l 2
 381 181 383 185 383 191 c 2
EndSplineSet
EndChar

StartChar: h
Encoding: 104 104 73
Width: 584
Flags: MW
HStem: 383 93<293.5 296 296 358>
VStem: 84 114<0 285 418 667> 386 114<0 355 355 358>
LayerCount: 2
Fore
SplineSet
500 0 m 1
 386 0 l 1
 386 355 l 2
 386 361 384 365 380 369 c 2
 372 377 l 2
 368 381 363 383 358 383 c 2
 296 383 l 2
 291 383 286 381 282 377 c 2
 204 299 l 2
 200 295 198 291 198 285 c 2
 198 0 l 1
 84 0 l 1
 84 667 l 1
 198 667 l 1
 198 418 l 1
 236 456 l 2
 249 470 266 476 285 476 c 2
 386 476 l 2
 405 476 421 470 435 456 c 2
 479 412 l 2
 493 398 500 381 500 361 c 2
 500 0 l 1
EndSplineSet
EndChar

StartChar: i
Encoding: 105 105 74
Width: 310
Flags: MW
HStem: 376 100<4 105 4 219> 561 128<98 226 98 226>
VStem: -3 215
LayerCount: 2
Fore
SplineSet
226 561 m 1
 98 561 l 1
 98 689 l 1
 226 689 l 1
 226 561 l 1
219 0 m 1
 105 0 l 1
 105 376 l 1
 4 376 l 1
 4 476 l 1
 219 476 l 1
 219 0 l 1
EndSplineSet
EndChar

StartChar: j
Encoding: 106 106 75
Width: 317
Flags: MW
HStem: -190 100<-49 91 91 93.5 -49 119 -49 91> 376 100<11 112 11 226> 561 128<105 233 105 233>
VStem: -49 275<-92 -90 -90 -90>
LayerCount: 2
Fore
SplineSet
233 561 m 1
 105 561 l 1
 105 689 l 1
 233 689 l 1
 233 561 l 1
226 -82 m 2
 226 -102 219 -119 205 -133 c 2
 168 -170 l 2
 154 -184 138 -190 119 -190 c 2
 -49 -190 l 1
 -49 -90 l 1
 91 -90 l 2
 96 -90 101 -88 105 -84 c 2
 106 -83 l 2
 110 -79 112 -75 112 -69 c 2
 112 376 l 1
 11 376 l 1
 11 476 l 1
 226 476 l 1
 226 -82 l 2
EndSplineSet
EndChar

StartChar: k
Encoding: 107 107 76
Width: 521
Flags: MW
VStem: 84 114<0 213 0 287 287 667>
LayerCount: 2
Fore
SplineSet
521 0 m 1
 384 0 l 1
 198 213 l 1
 198 0 l 1
 84 0 l 1
 84 667 l 1
 198 667 l 1
 198 287 l 1
 357 476 l 1
 494 476 l 1
 297 251 l 1
 521 0 l 1
EndSplineSet
EndChar

StartChar: l
Encoding: 108 108 77
Width: 303
Flags: MW
HStem: 567 100<-3 98 -3 212>
VStem: -3 215<567 667>
LayerCount: 2
Fore
SplineSet
212 0 m 1
 98 0 l 1
 98 567 l 1
 -3 567 l 1
 -3 667 l 1
 212 667 l 1
 212 0 l 1
EndSplineSet
EndChar

StartChar: m
Encoding: 109 109 78
Width: 830
Flags: MW
HStem: 383 93<293.5 296 296 330 567.5 570 570 604>
VStem: 84 114<0 285 0 393 0 393> 358 114<0 285 0 355 0 358> 632 114<0 355 355 358>
LayerCount: 2
Fore
SplineSet
746 0 m 1
 632 0 l 1
 632 355 l 2
 632 361 630 365 626 369 c 2
 618 377 l 2
 614 381 609 383 604 383 c 2
 570 383 l 2
 565 383 560 381 556 377 c 2
 478 299 l 2
 474 295 472 291 472 285 c 2
 472 0 l 1
 358 0 l 1
 358 355 l 2
 358 361 356 365 352 369 c 2
 344 377 l 2
 340 381 335 383 330 383 c 2
 296 383 l 2
 291 383 286 381 282 377 c 2
 204 299 l 2
 200 295 198 291 198 285 c 2
 198 0 l 1
 84 0 l 1
 84 393 l 1
 64 476 l 1
 172 476 l 1
 188 408 l 1
 236 456 l 2
 250 470 266 476 285 476 c 2
 358 476 l 2
 377 476 393 470 407 456 c 2
 458 404 l 1
 510 456 l 2
 524 470 540 476 559 476 c 2
 632 476 l 2
 651 476 667 470 681 456 c 2
 725 412 l 2
 739 398 746 381 746 361 c 2
 746 0 l 1
EndSplineSet
EndChar

StartChar: n
Encoding: 110 110 79
Width: 584
Flags: MW
HStem: 383 93<293.5 296 296 358>
VStem: 84 114<0 285 0 393 0 393> 386 114<0 355 355 358>
LayerCount: 2
Fore
SplineSet
500 0 m 1
 386 0 l 1
 386 355 l 2
 386 361 384 365 380 369 c 2
 372 377 l 2
 368 381 363 383 358 383 c 2
 296 383 l 2
 291 383 286 381 282 377 c 2
 204 299 l 2
 200 295 198 291 198 285 c 2
 198 0 l 1
 84 0 l 1
 84 393 l 1
 64 476 l 1
 172 476 l 1
 188 408 l 1
 236 456 l 2
 250 470 266 476 285 476 c 2
 386 476 l 2
 405 476 421 470 435 456 c 2
 479 412 l 2
 493 398 500 381 500 361 c 2
 500 0 l 1
EndSplineSet
EndChar

StartChar: o
Encoding: 111 111 80
Width: 553
Flags: MW
HStem: 0 100<160.5 362 191 362 362 364.5 191 383> 376 100<188.5 191 191 362>
VStem: 56 114<118 121 121 355> 383 114<0 117 121 355 355 358>
LayerCount: 2
Fore
SplineSet
497 117 m 2
 497 97 490 78 476 64 c 2
 432 20 l 2
 418 6 402 0 383 0 c 2
 170 0 l 2
 151 0 135 6 121 20 c 2
 77 64 l 2
 63 78 56 95 56 115 c 2
 56 361 l 2
 56 381 63 398 77 412 c 2
 121 456 l 2
 135 470 151 476 170 476 c 2
 383 476 l 2
 402 476 418 470 432 456 c 2
 476 412 l 2
 490 398 497 381 497 361 c 2
 497 117 l 2
383 121 m 2
 383 355 l 2
 383 361 381 365 377 369 c 2
 376 370 l 2
 372 374 367 376 362 376 c 2
 191 376 l 2
 186 376 181 374 177 370 c 2
 176 369 l 2
 172 365 170 361 170 355 c 2
 170 121 l 2
 170 115 172 111 176 107 c 2
 177 106 l 2
 181 102 186 100 191 100 c 2
 362 100 l 2
 367 100 372 102 376 106 c 2
 377 107 l 2
 381 111 383 115 383 121 c 2
EndSplineSet
EndChar

StartChar: p
Encoding: 112 112 81
Width: 581
Flags: MW
HStem: 0 100<275.5 390 289 390 390 392.5 289 411> 376 100<286.5 289 289 390>
VStem: 84 114<-191 58 188 191 191 285> 411 114<0 115 121 355 355 358>
LayerCount: 2
Fore
SplineSet
525 115 m 2
 525 95 518 78 504 64 c 2
 460 20 l 2
 446 6 430 0 411 0 c 2
 285 0 l 2
 266 0 250 6 236 20 c 2
 198 58 l 1
 198 -191 l 1
 84 -191 l 1
 84 397 l 1
 68 476 l 1
 172 476 l 1
 188 408 l 1
 236 456 l 2
 250 470 266 476 285 476 c 2
 411 476 l 2
 430 476 446 470 460 456 c 2
 504 412 l 2
 518 398 525 381 525 361 c 2
 525 115 l 2
411 121 m 2
 411 355 l 2
 411 361 409 365 405 369 c 2
 404 370 l 2
 400 374 395 376 390 376 c 2
 289 376 l 2
 284 376 279 374 275 370 c 2
 204 299 l 2
 200 295 198 291 198 285 c 2
 198 191 l 2
 198 185 200 181 204 177 c 2
 275 106 l 2
 279 102 284 100 289 100 c 2
 390 100 l 2
 395 100 400 102 404 106 c 2
 405 107 l 2
 409 111 411 115 411 121 c 2
EndSplineSet
EndChar

StartChar: q
Encoding: 113 113 82
Width: 581
Flags: MW
HStem: 0 100<160.5 292 191 292 292 294.5 191 296> 376 100<188.5 191 191 292>
VStem: 56 114<118 121 121 355> 383 114<-191 58 58 58 191 285 285 288>
LayerCount: 2
Fore
SplineSet
513 476 m 1
 497 397 l 1
 497 -191 l 1
 383 -191 l 1
 383 58 l 1
 345 20 l 2
 331 6 315 0 296 0 c 2
 170 0 l 2
 151 0 135 6 121 20 c 2
 77 64 l 2
 63 78 56 95 56 115 c 2
 56 361 l 2
 56 381 63 398 77 412 c 2
 121 456 l 2
 135 470 151 476 170 476 c 2
 296 476 l 2
 315 476 331 470 345 456 c 2
 393 408 l 1
 409 476 l 1
 513 476 l 1
383 191 m 2
 383 285 l 2
 383 291 381 295 377 299 c 2
 306 370 l 2
 302 374 297 376 292 376 c 2
 191 376 l 2
 186 376 181 374 177 370 c 2
 176 369 l 2
 172 365 170 361 170 355 c 2
 170 121 l 2
 170 115 172 111 176 107 c 2
 177 106 l 2
 181 102 186 100 191 100 c 2
 292 100 l 2
 297 100 302 102 306 106 c 2
 377 177 l 2
 381 181 383 185 383 191 c 2
EndSplineSet
EndChar

StartChar: r
Encoding: 114 114 83
Width: 521
Flags: MW
HStem: 283 193<372 374.5 372 372>
VStem: 84 114<0 285 0 393 0 393> 372 107<283 355 355 358>
LayerCount: 2
Fore
SplineSet
479 283 m 1
 372 283 l 1
 372 355 l 2
 372 361 370 365 366 369 c 2
 358 377 l 2
 354 381 349 383 344 383 c 2
 296 383 l 2
 291 383 286 381 282 377 c 2
 204 299 l 2
 200 295 198 291 198 285 c 2
 198 0 l 1
 84 0 l 1
 84 393 l 1
 64 476 l 1
 172 476 l 1
 188 408 l 1
 236 456 l 2
 250 470 266 476 285 476 c 2
 365 476 l 2
 384 476 400 470 414 456 c 2
 458 412 l 2
 472 398 479 381 479 361 c 2
 479 283 l 1
EndSplineSet
EndChar

StartChar: s
Encoding: 115 115 84
Width: 525
Flags: MW
HStem: 0 100<153.5 333 184 333 333 335.5 184 355> 376 100<188.5 191 191 341>
VStem: 56 114<78 106 316 321 321 355> 354 115<121 161 161 166>
LayerCount: 2
Fore
SplineSet
469 115 m 2
 469 95 462 78 448 64 c 2
 404 20 l 2
 390 6 374 0 355 0 c 2
 163 0 l 2
 144 0 128 6 114 20 c 2
 56 78 l 1
 127 149 l 1
 170 106 l 2
 174 102 179 100 184 100 c 2
 333 100 l 2
 338 100 343 102 347 106 c 2
 348 107 l 2
 352 111 354 115 354 121 c 2
 354 161 l 2
 354 171 346 180 336 181 c 2
 118 210 l 2
 85 214 56 245 56 279 c 2
 56 361 l 2
 56 381 63 398 77 412 c 2
 121 456 l 2
 135 470 151 476 170 476 c 2
 362 476 l 2
 381 476 397 470 411 456 c 2
 469 398 l 1
 398 327 l 1
 355 370 l 2
 351 374 346 376 341 376 c 2
 191 376 l 2
 186 376 181 374 177 370 c 2
 176 369 l 2
 172 365 170 361 170 355 c 2
 170 321 l 2
 170 311 178 302 188 301 c 2
 407 272 l 2
 440 268 469 237 469 203 c 2
 469 115 l 2
EndSplineSet
EndChar

StartChar: t
Encoding: 116 116 85
Width: 408
Flags: MW
HStem: 0 100<202.5 380 240 380 240 380> 376 100<21 105 21 105 219 380>
VStem: 105 114<118 121 121 376 476 667>
LayerCount: 2
Fore
SplineSet
380 0 m 1
 212 0 l 2
 193 0 177 6 163 20 c 2
 126 57 l 2
 112 71 105 88 105 108 c 2
 105 376 l 1
 21 376 l 1
 21 476 l 1
 105 476 l 1
 105 667 l 1
 219 667 l 1
 219 476 l 1
 380 476 l 1
 380 376 l 1
 219 376 l 1
 219 121 l 2
 219 115 221 111 225 107 c 2
 226 106 l 2
 230 102 235 100 240 100 c 2
 380 100 l 1
 380 0 l 1
EndSplineSet
EndChar

StartChar: u
Encoding: 117 117 86
Width: 584
Flags: MW
HStem: 0 93<188.5 288 226 288 288 290.5 226 299> 456 20<84 198 198 198 386 500 500 500>
VStem: 84 114<118 121 121 476> 386 114<191 476 83 476>
LayerCount: 2
Fore
SplineSet
520 0 m 1
 412 0 l 1
 396 68 l 1
 348 20 l 2
 334 6 318 0 299 0 c 2
 198 0 l 2
 179 0 163 6 149 20 c 2
 105 64 l 2
 91 78 84 95 84 115 c 2
 84 476 l 1
 198 476 l 1
 198 121 l 2
 198 115 200 111 204 107 c 2
 212 99 l 2
 216 95 221 93 226 93 c 2
 288 93 l 2
 293 93 298 95 302 99 c 2
 380 177 l 2
 384 181 386 185 386 191 c 2
 386 476 l 1
 500 476 l 1
 500 83 l 1
 520 0 l 1
EndSplineSet
EndChar

StartChar: v
Encoding: 118 118 87
Width: 497
Flags: MW
HStem: 456 20<28 145 145 145 355 469 469 469>
LayerCount: 2
Fore
SplineSet
469 476 m 1
 324 0 l 1
 175 0 l 1
 28 476 l 1
 145 476 l 1
 250 105 l 1
 355 476 l 1
 469 476 l 1
EndSplineSet
EndChar

StartChar: w
Encoding: 119 119 88
Width: 805
Flags: MW
HStem: 456 20<42 156 156 156 319 489 489 489 652 763 763 763>
LayerCount: 2
Fore
SplineSet
763 476 m 1
 645 0 l 1
 493 0 l 1
 403 366 l 1
 312 0 l 1
 160 0 l 1
 42 476 l 1
 156 476 l 1
 238 105 l 1
 319 476 l 1
 489 476 l 1
 571 105 l 1
 652 476 l 1
 763 476 l 1
EndSplineSet
EndChar

StartChar: x
Encoding: 120 120 89
Width: 469
Flags: MW
HStem: 456 20<15 143 143 143 328 455 455 455>
LayerCount: 2
Fore
SplineSet
455 0 m 1
 327 0 l 1
 234 146 l 1
 140 0 l 1
 14 0 l 1
 172 238 l 1
 15 476 l 1
 143 476 l 1
 235 331 l 1
 328 476 l 1
 455 476 l 1
 298 239 l 1
 455 0 l 1
EndSplineSet
EndChar

StartChar: y
Encoding: 121 121 90
Width: 476
Flags: MW
HStem: 456 20<14 132 132 132 341 455 455 455>
LayerCount: 2
Fore
SplineSet
455 476 m 1
 240 -190 l 1
 127 -190 l 1
 174 -16 l 1
 14 476 l 1
 132 476 l 1
 236 130 l 1
 341 476 l 1
 455 476 l 1
EndSplineSet
EndChar

StartChar: z
Encoding: 122 122 91
Width: 481
Flags: MW
HStem: 0 100<198 446 198 446> 376 100<35 283 35 446>
LayerCount: 2
Fore
SplineSet
446 0 m 1
 35 0 l 1
 35 70 l 1
 283 376 l 1
 35 376 l 1
 35 476 l 1
 446 476 l 1
 446 406 l 1
 198 100 l 1
 446 100 l 1
 446 0 l 1
EndSplineSet
EndChar

StartChar: braceleft
Encoding: 123 123 92
Width: 402
Flags: MW
VStem: 166 114<-17.5 -15 -15 190 190 192.5 424 629>
LayerCount: 2
Fore
SplineSet
374 -117 m 1
 298 -193 l 1
 187 -82 l 2
 173 -68 166 -51 166 -32 c 2
 166 190 l 2
 166 195 164 200 160 204 c 2
 119 245 l 2
 103 261 93 284 93 307 c 0
 93 328 102 352 119 369 c 2
 160 410 l 2
 164 414 166 419 166 424 c 2
 166 645 l 2
 166 664 173 681 187 695 c 2
 298 807 l 1
 374 731 l 1
 286 643 l 2
 282 639 280 634 280 629 c 2
 280 418 l 2
 280 399 273 382 259 368 c 2
 213 322 l 2
 205 314 203 302 213 292 c 2
 259 246 l 2
 273 232 280 215 280 196 c 2
 280 -15 l 2
 280 -20 282 -25 286 -29 c 2
 374 -117 l 1
EndSplineSet
EndChar

StartChar: bar
Encoding: 124 124 93
Width: 304
Flags: MW
VStem: 98 107<-191 667>
LayerCount: 2
Fore
SplineSet
205 -191 m 1
 98 -191 l 1
 98 667 l 1
 205 667 l 1
 205 -191 l 1
EndSplineSet
EndChar

StartChar: braceright
Encoding: 125 125 94
Width: 402
Flags: MW
VStem: 122 114<-15 190 421.5 424 424 629 629 631.5>
LayerCount: 2
Fore
SplineSet
309 307 m 0
 309 284 299 261 283 245 c 2
 242 204 l 2
 238 200 236 195 236 190 c 2
 236 -32 l 2
 236 -51 229 -68 215 -82 c 2
 104 -193 l 1
 28 -117 l 1
 116 -29 l 2
 120 -25 122 -20 122 -15 c 2
 122 196 l 2
 122 215 129 232 143 246 c 2
 189 292 l 2
 199 302 197 314 189 322 c 2
 143 368 l 2
 129 382 122 399 122 418 c 2
 122 629 l 2
 122 634 120 639 116 643 c 2
 28 731 l 1
 104 807 l 1
 215 695 l 2
 229 681 236 664 236 645 c 2
 236 424 l 2
 236 419 238 414 242 410 c 2
 283 369 l 2
 300 352 309 328 309 307 c 0
EndSplineSet
EndChar

StartChar: asciitilde
Encoding: 126 126 95
Width: 608
Flags: W
LayerCount: 2
Fore
SplineSet
570 285 m 1
 409 124 l 2
 404 119 391 112 376 112 c 0
 360 112 348 119 342 125 c 2
 242 225 l 2
 236 231 228 231 221 225 c 2
 109 113 l 1
 39 183 l 1
 200 344 l 2
 205 349 218 356 233 356 c 0
 249 356 261 349 267 343 c 2
 367 243 l 2
 373 237 381 236 388 243 c 2
 499 354 l 1
 570 285 l 1
EndSplineSet
EndChar

StartChar: degree
Encoding: 161 161 96
Width: 304
Flags: MW
HStem: 348 128<88 216 88 216>
VStem: 88 128<348 476>
LayerCount: 2
Fore
SplineSet
216 348 m 1
 88 348 l 1
 88 476 l 1
 216 476 l 1
 216 348 l 1
209 -191 m 1
 95 -191 l 1
 95 250 l 1
 209 250 l 1
 209 -191 l 1
EndSplineSet
EndChar

StartChar: cent
Encoding: 162 162 97
Width: 608
Flags: MW
HStem: 0 100<195.5 279 226 279 226 279 331 383 383 385.5 226 331> 376 100<223.5 226 226 279 331 383 205 331>
VStem: 91 114<118 121 121 355> 279 52<-96 0 -96 0 100 376 476 575>
LayerCount: 2
Fore
SplineSet
518 85 m 1
 453 20 l 2
 439 6 423 0 404 0 c 2
 331 0 l 1
 331 -96 l 1
 279 -96 l 1
 279 0 l 1
 205 0 l 2
 186 0 170 6 156 20 c 2
 112 64 l 2
 98 78 91 95 91 115 c 2
 91 361 l 2
 91 381 98 398 112 412 c 2
 156 456 l 2
 170 470 186 476 205 476 c 2
 279 476 l 1
 279 575 l 1
 331 575 l 1
 331 476 l 1
 404 476 l 2
 423 476 439 470 453 456 c 2
 518 391 l 1
 447 320 l 1
 397 370 l 2
 393 374 388 376 383 376 c 2
 331 376 l 1
 331 100 l 1
 383 100 l 2
 388 100 393 102 397 106 c 2
 447 156 l 1
 518 85 l 1
279 100 m 1
 279 376 l 1
 226 376 l 2
 221 376 216 374 212 370 c 2
 211 369 l 2
 207 365 205 361 205 355 c 2
 205 121 l 2
 205 115 207 111 211 107 c 2
 212 106 l 2
 216 102 221 100 226 100 c 2
 279 100 l 1
EndSplineSet
EndChar

StartChar: sterling
Encoding: 163 163 98
Width: 608
Flags: MW
HStem: 0 100<70 127 241 562 70 127> 283 100<70 127 70 127 241 507> 567 100<262 265 265 429>
VStem: 127 114<100 283 100 283 383 543>
LayerCount: 2
Fore
SplineSet
570 576 m 1
 499 506 l 1
 444 561 l 2
 440 565 435 567 429 567 c 2
 265 567 l 2
 259 567 254 565 250 561 c 2
 246 557 l 2
 242 553 241 548 241 543 c 2
 241 383 l 1
 507 383 l 1
 507 283 l 1
 241 283 l 1
 241 100 l 1
 562 100 l 1
 562 0 l 1
 70 0 l 1
 70 100 l 1
 127 100 l 1
 127 283 l 1
 70 283 l 1
 70 383 l 1
 127 383 l 1
 127 550 l 2
 127 569 132 584 146 598 c 2
 193 645 l 2
 207 659 224 667 244 667 c 2
 450 667 l 2
 470 667 487 659 501 645 c 2
 570 576 l 1
EndSplineSet
EndChar

StartChar: bullet
Encoding: 165 165 99
Width: 608
Flags: MW
HStem: 247 50<86 247 86 247 361 522> 372 295<86 155 29 209 86 86 453 522 29 399>
VStem: 247 114<0 247 0 247 297 310 0 310>
LayerCount: 2
Fore
SplineSet
579 667 m 1
 430 422 l 1
 522 422 l 1
 522 372 l 1
 399 372 l 1
 361 310 l 1
 361 297 l 1
 522 297 l 1
 522 247 l 1
 361 247 l 1
 361 0 l 1
 247 0 l 1
 247 247 l 1
 86 247 l 1
 86 297 l 1
 247 297 l 1
 247 310 l 1
 209 372 l 1
 86 372 l 1
 86 422 l 1
 178 422 l 1
 29 667 l 1
 155 667 l 1
 304 415 l 1
 453 667 l 1
 579 667 l 1
EndSplineSet
EndChar

StartChar: paragraph
Encoding: 166 166 100
Width: 304
Flags: MW
HStem: -191 286<98 205 98 205> 381 286<98 205 98 205>
VStem: 98 107<-191 95 381 667>
LayerCount: 2
Fore
SplineSet
205 381 m 1
 98 381 l 1
 98 667 l 1
 205 667 l 1
 205 381 l 1
205 -191 m 1
 98 -191 l 1
 98 95 l 1
 205 95 l 1
 205 -191 l 1
EndSplineSet
EndChar

StartChar: germandbls
Encoding: 167 167 101
Width: 608
Flags: MW
HStem: -95 100<219 361 250 361 361 364 250 382> 567 100<244 247 247 358>
VStem: 109 114<502.5 505 505 543 502.5 550 502.5 559.5> 385 114<29 67 67 69.5>
LayerCount: 2
Fore
SplineSet
499 576 m 1
 428 506 l 1
 373 561 l 2
 369 565 364 567 358 567 c 2
 247 567 l 2
 241 567 236 565 232 561 c 2
 228 557 l 2
 224 553 223 548 223 543 c 2
 223 505 l 2
 223 500 224 494 229 491 c 2
 499 312 l 1
 444 229 l 1
 130 437 l 2
 110 450 109 468 109 487 c 2
 109 550 l 2
 109 569 114 584 128 598 c 2
 175 645 l 2
 189 659 206 667 226 667 c 2
 379 667 l 2
 399 667 416 659 430 645 c 2
 499 576 l 1
499 22 m 2
 499 3 494 -12 480 -26 c 2
 433 -73 l 2
 419 -87 402 -95 382 -95 c 2
 229 -95 l 2
 209 -95 192 -87 178 -73 c 2
 109 -4 l 1
 180 66 l 1
 235 11 l 2
 239 7 244 5 250 5 c 2
 361 5 l 2
 367 5 372 7 376 11 c 2
 380 15 l 2
 384 19 385 24 385 29 c 2
 385 67 l 2
 385 72 384 78 379 81 c 2
 109 260 l 1
 164 343 l 1
 478 135 l 2
 498 122 499 104 499 85 c 2
 499 22 l 2
EndSplineSet
EndChar

StartChar: registered
Encoding: 168 168 102
Width: 465
Flags: MW
HStem: 566 119<75 194 75 194 271 390 75 271>
VStem: 75 119<566 685> 271 119<566 685>
LayerCount: 2
Fore
SplineSet
390 566 m 1
 271 566 l 1
 271 685 l 1
 390 685 l 1
 390 566 l 1
194 566 m 1
 75 566 l 1
 75 685 l 1
 194 685 l 1
 194 566 l 1
EndSplineSet
EndChar

StartChar: copyright
Encoding: 169 169 103
Width: 826
Flags: MW
HStem: -24 98<342 484 342 511.5> 155 84<358.5 443 379 443 443 445 379 457> 428 84<377 379 379 443> 592 98<342 484>
VStem: 56 100<262 404 262 431.5> 261 84<272.5 274 274 393> 670 100<262 404>
LayerCount: 2
Fore
SplineSet
770 333 m 0
 770 136 610 -24 413 -24 c 0
 216 -24 56 136 56 333 c 0
 56 530 216 690 413 690 c 0
 610 690 770 530 770 333 c 0
670 333 m 0
 670 475 555 592 413 592 c 0
 271 592 156 475 156 333 c 0
 156 191 271 74 413 74 c 0
 555 74 670 191 670 333 c 0
545 223 m 1
 491 169 l 2
 481 159 470 155 457 155 c 2
 365 155 l 2
 352 155 341 160 331 169 c 2
 275 225 l 2
 265 235 261 246 261 259 c 2
 261 408 l 2
 261 421 265 432 275 442 c 2
 331 498 l 2
 341 508 352 512 365 512 c 2
 457 512 l 2
 470 512 481 508 491 498 c 2
 545 444 l 1
 488 388 l 1
 452 424 l 2
 449 427 447 428 443 428 c 2
 379 428 l 2
 375 428 373 427 370 424 c 2
 349 403 l 2
 346 400 345 396 345 393 c 2
 345 274 l 2
 345 271 346 267 349 264 c 2
 370 243 l 2
 373 240 375 239 379 239 c 2
 443 239 l 2
 447 239 449 240 452 243 c 2
 488 279 l 1
 545 223 l 1
EndSplineSet
EndChar

StartChar: trademark
Encoding: 170 170 104
Width: 386
Flags: MW
HStem: 334 70<90 244 101 232> 474 70<99 101 101 260> 597 70<99 101 101 244>
VStem: 14 70<419 421 421 461 461 463 419 468> 260 70<421 474 474 474 544 580 580 582>
LayerCount: 2
Fore
SplineSet
357 376 m 1
 315 334 l 1
 284 364 l 1
 268 348 l 2
 258 338 247 334 232 334 c 2
 97 334 l 2
 83 334 71 338 61 348 c 2
 29 380 l 2
 19 390 14 403 14 417 c 2
 14 461 l 2
 14 475 19 488 29 498 c 2
 61 530 l 2
 71 540 83 544 97 544 c 2
 260 544 l 1
 260 580 l 2
 260 584 259 588 256 591 c 2
 254 593 l 2
 251 596 248 597 244 597 c 2
 101 597 l 2
 97 597 94 596 91 593 c 2
 74 576 l 1
 29 621 l 1
 61 653 l 2
 71 663 83 667 97 667 c 2
 247 667 l 2
 261 667 273 663 283 653 c 2
 315 621 l 2
 325 611 330 598 330 584 c 2
 330 409 l 2
 330 405 331 402 334 399 c 2
 357 376 l 1
260 421 m 2
 260 474 l 1
 101 474 l 2
 97 474 93 473 90 470 c 2
 88 468 l 2
 85 465 84 467 84 463 c 2
 84 421 l 2
 84 417 85 413 88 410 c 2
 90 408 l 2
 93 405 97 404 101 404 c 2
 244 404 l 2
 248 404 251 405 254 408 c 2
 256 410 l 2
 259 413 260 417 260 421 c 2
EndSplineSet
EndChar

StartChar: acute
Encoding: 171 171 105
Width: 601
Flags: HW
LayerCount: 2
Fore
SplineSet
517 124 m 1
 446 53 l 1
 334 165 l 2
 302 197 304 238 304 238 c 1
 304 238 302 279 334 311 c 2
 446 423 l 1
 517 352 l 1
 417 252 l 2
 409 244 409 232 417 224 c 2
 517 124 l 1
297 124 m 1
 226 53 l 1
 114 165 l 2
 82 197 84 238 84 238 c 1
 84 238 82 279 114 311 c 2
 226 423 l 1
 297 352 l 1
 197 252 l 2
 189 244 189 232 197 224 c 2
 297 124 l 1
EndSplineSet
EndChar

StartChar: dieresis
Encoding: 172 172 106
Width: 608
Flags: MW
HStem: 262 100<66 442 66 542>
VStem: 442 100<0 262 262 262>
LayerCount: 2
Fore
SplineSet
542 0 m 1
 442 0 l 1
 442 262 l 1
 66 262 l 1
 66 362 l 1
 542 362 l 1
 542 0 l 1
EndSplineSet
EndChar

StartChar: notequal
Encoding: 173 173 107
Width: 608
Flags: HMW
LayerCount: 2
Fore
SplineSet
542 188 m 1
 65 188 l 1
 65 288 l 1
 542 288 l 1
 542 188 l 1
EndSplineSet
EndChar

StartChar: AE
Encoding: 174 174 108
Width: 544
Flags: MW
HStem: 230 63<226.5 317.5 226.5 335.5> 345 230<186 235 186 309 312 315.5 186 370 312 312> 627 63<226.5 317.5>
VStem: 42 64<414.5 505.5 414.5 523.5> 186 184<492 498 498 513 345 575> 438 64<414.5 505.5>
LayerCount: 2
Fore
SplineSet
502 460 m 0
 502 333 399 230 272 230 c 0
 145 230 42 333 42 460 c 0
 42 587 145 690 272 690 c 0
 399 690 502 587 502 460 c 0
438 460 m 0
 438 551 363 627 272 627 c 0
 181 627 106 551 106 460 c 0
 106 369 181 293 272 293 c 0
 363 293 438 369 438 460 c 0
370 498 m 2
 370 486 368 476 359 467 c 2
 342 450 l 2
 333 441 325 436 316 436 c 2
 311 436 l 1
 370 345 l 1
 312 345 l 1
 259 431 l 2
 258 433 255 436 251 436 c 2
 235 436 l 1
 235 345 l 1
 186 345 l 1
 186 575 l 1
 309 575 l 2
 322 575 333 570 342 561 c 2
 359 544 l 2
 368 535 370 525 370 513 c 2
 370 498 l 2
321 516 m 0
 321 519 321 522 318 525 c 2
 314 529 l 2
 311 532 309 533 305 533 c 2
 235 533 l 1
 235 478 l 1
 305 478 l 2
 309 478 311 479 314 482 c 2
 318 486 l 2
 320 488 321 492 321 496 c 2
 321 496 321 515 321 516 c 0
EndSplineSet
EndChar

StartChar: plusminus
Encoding: 177 177 109
Width: 608
Flags: MW
HStem: -100 100<66 542 66 542> 216 100<66 254 66 254 354 542> 456 20<254 354 354 354>
VStem: 254 100<56 216 56 216 316 476>
LayerCount: 2
Fore
SplineSet
542 216 m 1
 354 216 l 1
 354 56 l 1
 254 56 l 1
 254 216 l 1
 66 216 l 1
 66 316 l 1
 254 316 l 1
 254 476 l 1
 354 476 l 1
 354 316 l 1
 542 316 l 1
 542 216 l 1
542 -100 m 1
 66 -100 l 1
 66 0 l 1
 542 0 l 1
 542 -100 l 1
EndSplineSet
EndChar

StartChar: lessequal
Encoding: 178 178 110
Width: 340
Flags: MW
HStem: 267 70<100 305 100 305> 597 70<115 117 117 221>
VStem: 30 70<337 380 337 404 337 412.5> 235 70<534 583 583 584.5>
LayerCount: 2
Fore
SplineSet
305 267 m 1
 30 267 l 1
 30 404 l 2
 30 421 40 435 56 443 c 2
 227 523 l 2
 231 525 235 529 235 534 c 2
 235 583 l 2
 235 586 234 589 232 591 c 2
 230 593 l 2
 228 595 225 597 221 597 c 2
 117 597 l 2
 113 597 109 595 107 593 c 2
 77 563 l 1
 28 612 l 1
 70 654 l 2
 79 663 90 667 103 667 c 2
 232 667 l 2
 245 667 255 663 264 654 c 2
 293 625 l 2
 301 617 305 607 305 596 c 2
 305 508 l 2
 305 491 295 478 279 470 c 2
 107 390 l 2
 103 388 100 384 100 380 c 2
 100 337 l 1
 305 337 l 1
 305 267 l 1
EndSplineSet
EndChar

StartChar: greaterequal
Encoding: 179 179 111
Width: 340
Flags: MW
HStem: 267 70<96.5 221 117 221 221 223 117 232> 442 70<134 209 134 209> 597 70<115 117 117 221>
VStem: 235 70<351 417 417 418.5 538 583 583 584.5>
LayerCount: 2
Fore
SplineSet
305 428 m 2
 305 338 l 2
 305 327 301 317 293 309 c 2
 264 280 l 2
 255 271 245 267 232 267 c 2
 103 267 l 2
 90 267 79 271 70 280 c 2
 28 322 l 1
 77 371 l 1
 107 341 l 2
 109 338 113 337 117 337 c 2
 221 337 l 2
 225 337 228 339 230 341 c 2
 232 343 l 2
 234 345 235 348 235 351 c 2
 235 417 l 2
 235 420 234 423 232 425 c 2
 218 439 l 2
 216 441 213 442 209 442 c 2
 134 442 l 1
 134 512 l 1
 209 512 l 2
 213 512 216 514 218 516 c 2
 232 530 l 2
 234 532 235 535 235 538 c 2
 235 583 l 2
 235 586 234 589 232 591 c 2
 230 593 l 2
 228 595 225 597 221 597 c 2
 117 597 l 2
 113 597 109 595 107 593 c 2
 77 563 l 1
 28 612 l 1
 70 654 l 2
 79 663 90 667 103 667 c 2
 232 667 l 2
 245 667 255 663 264 654 c 2
 293 625 l 2
 301 617 305 607 305 596 c 2
 305 529 l 2
 305 518 301 508 292 499 c 2
 271 478 l 1
 292 457 l 2
 300 449 305 439 305 428 c 2
EndSplineSet
EndChar

StartChar: mu
Encoding: 181 181 112
Width: 608
Flags: MW
HStem: 0 93<238 300 300 302.5 238 311 210 300> 456 20<96 210 210 210 398 512 512 512>
VStem: 96 114<-191 0 118 121 121 476> 398 114<191 476 83 476>
LayerCount: 2
Fore
SplineSet
532 0 m 1
 424 0 l 1
 408 68 l 1
 360 20 l 2
 346 6 330 0 311 0 c 2
 210 0 l 1
 210 -191 l 1
 96 -191 l 1
 96 476 l 1
 210 476 l 1
 210 121 l 2
 210 115 212 111 216 107 c 2
 224 99 l 2
 228 95 233 93 238 93 c 2
 300 93 l 2
 305 93 310 95 314 99 c 2
 392 177 l 2
 396 181 398 185 398 191 c 2
 398 476 l 1
 512 476 l 1
 512 83 l 1
 532 0 l 1
EndSplineSet
EndChar

StartChar: partialdiff
Encoding: 182 182 113
Width: 652
Flags: MW
HStem: 296 100<152 256 183 256 183 256> 567 100<180 183 183 256 363 433 363 363>
VStem: 42 107<427.5 430 430 533 427.5 545> 256 107<0 296 296 296 396 567 0 567> 433 107<0 567 567 567>
LayerCount: 2
Fore
SplineSet
540 0 m 1
 433 0 l 1
 433 567 l 1
 363 567 l 1
 363 0 l 1
 256 0 l 1
 256 296 l 1
 162 296 l 2
 142 296 125 304 111 318 c 2
 59 370 l 2
 46 383 42 399 42 418 c 2
 42 545 l 2
 42 564 46 580 59 593 c 2
 111 645 l 2
 125 659 142 667 162 667 c 2
 540 667 l 1
 540 0 l 1
256 396 m 1
 256 567 l 1
 183 567 l 2
 177 567 172 565 168 561 c 2
 154 547 l 2
 150 543 149 538 149 533 c 2
 149 430 l 2
 149 425 150 420 154 416 c 2
 168 402 l 2
 172 398 177 396 183 396 c 2
 256 396 l 1
EndSplineSet
EndChar

StartChar: summation
Encoding: 183 183 114
Width: 304
Flags: MW
HStem: 270 128<88 216 88 216>
VStem: 88 128<270 398>
LayerCount: 2
Fore
SplineSet
216 270 m 1
 88 270 l 1
 88 398 l 1
 216 398 l 1
 216 270 l 1
EndSplineSet
EndChar

StartChar: product
Encoding: 184 184 115
Width: 465
Flags: HMW
LayerCount: 2
Fore
SplineSet
307 -88 m 1
 207 -188 l 1
 157 -138 l 1
 207 -88 l 1
 157 -38 l 1
 207 12 l 1
 307 -88 l 1
EndSplineSet
EndChar

StartChar: pi
Encoding: 185 185 116
Width: 340
Flags: MW
HStem: 267 64<60 137 207 284 60 137>
VStem: 60 224<267 331 267 331>
LayerCount: 2
Fore
SplineSet
284 267 m 1
 60 267 l 1
 60 331 l 1
 137 331 l 1
 137 595 l 1
 93 551 l 1
 47 597 l 1
 121 667 l 1
 207 667 l 1
 207 331 l 1
 284 331 l 1
 284 267 l 1
EndSplineSet
EndChar

StartChar: ordfeminine
Encoding: 187 187 117
Width: 601
Flags: HMW
LayerCount: 2
Fore
SplineSet
517 238 m 1
 517 238 519 197 487 165 c 2
 375 53 l 1
 304 124 l 1
 404 224 l 2
 412 232 412 244 404 252 c 2
 304 352 l 1
 375 423 l 1
 487 311 l 2
 519 279 517 238 517 238 c 1
297 238 m 1
 297 238 299 197 267 165 c 2
 155 53 l 1
 84 124 l 1
 184 224 l 2
 192 232 192 244 184 252 c 2
 84 352 l 1
 155 423 l 1
 267 311 l 2
 299 279 297 238 297 238 c 1
EndSplineSet
EndChar

StartChar: ordmasculine
Encoding: 188 188 118
Width: 859
Flags: MW
HStem: 101 299<647 666 488 736 647 789 647 736>
VStem: 60 224<267 331 267 331> 488 301<101 152 152 152>
LayerCount: 2
Fore
SplineSet
789 101 m 1
 736 101 l 1
 736 0 l 1
 666 0 l 1
 666 101 l 1
 488 101 l 1
 488 152 l 1
 647 400 l 1
 736 400 l 1
 736 161 l 1
 789 161 l 1
 789 101 l 1
641 672 m 1
 304 0 l 1
 230 0 l 1
 567 672 l 1
 641 672 l 1
284 267 m 1
 60 267 l 1
 60 331 l 1
 137 331 l 1
 137 595 l 1
 93 551 l 1
 47 597 l 1
 121 667 l 1
 207 667 l 1
 207 331 l 1
 284 331 l 1
 284 267 l 1
666 161 m 1
 666 321 l 1
 566 161 l 1
 666 161 l 1
EndSplineSet
EndChar

StartChar: Omega
Encoding: 189 189 119
Width: 859
Flags: MW
HStem: 0 70<626 831 626 831> 267 64<60 137 207 284 60 137>
VStem: 60 224<267 331 267 331> 556 70<70 113 70 137 70 145.5> 761 70<267 316 316 317.5>
LayerCount: 2
Fore
SplineSet
831 0 m 1
 556 0 l 1
 556 137 l 2
 556 154 566 168 582 176 c 2
 753 256 l 2
 757 258 761 262 761 267 c 2
 761 316 l 2
 761 319 760 322 758 324 c 2
 756 326 l 2
 754 328 751 330 747 330 c 2
 643 330 l 2
 639 330 635 328 633 326 c 2
 603 296 l 1
 554 345 l 1
 596 387 l 2
 605 396 616 400 629 400 c 2
 758 400 l 2
 771 400 781 396 790 387 c 2
 819 358 l 2
 827 350 831 340 831 329 c 2
 831 241 l 2
 831 224 821 211 805 203 c 2
 633 123 l 2
 629 121 626 117 626 113 c 2
 626 70 l 1
 831 70 l 1
 831 0 l 1
641 672 m 1
 304 0 l 1
 230 0 l 1
 567 672 l 1
 641 672 l 1
284 267 m 1
 60 267 l 1
 60 331 l 1
 137 331 l 1
 137 595 l 1
 93 551 l 1
 47 597 l 1
 121 667 l 1
 207 667 l 1
 207 331 l 1
 284 331 l 1
 284 267 l 1
EndSplineSet
EndChar

StartChar: ae
Encoding: 190 190 120
Width: 859
Flags: MW
HStem: 101 299<647 666 488 736 647 789 647 736> 442 70<134 209 134 209> 597 70<115 117 117 221>
VStem: 235 70<351 417 417 418.5 538 583 583 584.5> 488 301<101 152 152 152>
LayerCount: 2
Fore
SplineSet
789 101 m 1
 736 101 l 1
 736 0 l 1
 666 0 l 1
 666 101 l 1
 488 101 l 1
 488 152 l 1
 647 400 l 1
 736 400 l 1
 736 161 l 1
 789 161 l 1
 789 101 l 1
641 672 m 1
 304 0 l 1
 230 0 l 1
 567 672 l 1
 641 672 l 1
305 428 m 2
 305 338 l 2
 305 327 301 317 293 309 c 2
 264 280 l 2
 255 271 245 267 232 267 c 2
 103 267 l 2
 90 267 79 271 70 280 c 2
 28 322 l 1
 77 371 l 1
 107 341 l 2
 109 338 113 337 117 337 c 2
 221 337 l 2
 225 337 228 339 230 341 c 2
 232 343 l 2
 234 345 235 348 235 351 c 2
 235 417 l 2
 235 420 234 423 232 425 c 2
 218 439 l 2
 216 441 213 442 209 442 c 2
 134 442 l 1
 134 512 l 1
 209 512 l 2
 213 512 216 514 218 516 c 2
 232 530 l 2
 234 532 235 535 235 538 c 2
 235 583 l 2
 235 586 234 589 232 591 c 2
 230 593 l 2
 228 595 225 597 221 597 c 2
 117 597 l 2
 113 597 109 595 107 593 c 2
 77 563 l 1
 28 612 l 1
 70 654 l 2
 79 663 90 667 103 667 c 2
 232 667 l 2
 245 667 255 663 264 654 c 2
 293 625 l 2
 301 617 305 607 305 596 c 2
 305 529 l 2
 305 518 301 508 292 499 c 2
 271 478 l 1
 292 457 l 2
 300 449 305 439 305 428 c 2
666 161 m 1
 666 321 l 1
 566 161 l 1
 666 161 l 1
EndSplineSet
EndChar

StartChar: oslash
Encoding: 191 191 121
Width: 516
Flags: MW
HStem: -191 100<191 333 222 333 333 336 222 354> 348 128<220 348 220 348>
VStem: 84 114<-69.5 -67 -67 11 -69.5 17 -69.5 26.5> 220 128<348 476>
LayerCount: 2
Fore
SplineSet
348 348 m 1
 220 348 l 1
 220 476 l 1
 348 476 l 1
 348 348 l 1
474 -100 m 1
 405 -169 l 2
 391 -183 374 -191 354 -191 c 2
 201 -191 l 2
 181 -191 164 -183 150 -169 c 2
 103 -122 l 2
 89 -108 84 -93 84 -74 c 2
 84 17 l 2
 84 36 91 53 105 67 c 2
 221 183 l 2
 225 187 227 191 227 197 c 2
 227 250 l 1
 341 250 l 1
 341 191 l 2
 341 172 335 156 321 142 c 2
 204 25 l 2
 200 21 198 16 198 11 c 2
 198 -67 l 2
 198 -72 199 -77 203 -81 c 2
 207 -85 l 2
 211 -89 216 -91 222 -91 c 2
 333 -91 l 2
 339 -91 344 -89 348 -85 c 2
 403 -30 l 1
 474 -100 l 1
EndSplineSet
EndChar

StartChar: questiondown
Encoding: 192 192 122
Width: 690
Flags: MW
HStem: 167 107<252 436 252 477 211 436>
LayerCount: 2
Fore
SplineSet
408 733 m 1
 296 733 l 1
 157 872 l 1
 269 872 l 1
 408 733 l 1
662 0 m 1
 540 0 l 1
 477 167 l 1
 211 167 l 1
 148 0 l 1
 28 0 l 1
 275 667 l 1
 417 667 l 1
 662 0 l 1
436 274 m 1
 344 538 l 1
 252 274 l 1
 436 274 l 1
EndSplineSet
EndChar

StartChar: exclamdown
Encoding: 193 193 123
Width: 690
Flags: MW
HStem: 167 107<252 436 252 477 211 436>
LayerCount: 2
Fore
SplineSet
539 872 m 1
 400 733 l 1
 284 733 l 1
 423 872 l 1
 539 872 l 1
662 0 m 1
 540 0 l 1
 477 167 l 1
 211 167 l 1
 148 0 l 1
 28 0 l 1
 275 667 l 1
 417 667 l 1
 662 0 l 1
436 274 m 1
 344 538 l 1
 252 274 l 1
 436 274 l 1
EndSplineSet
EndChar

StartChar: logicalnot
Encoding: 194 194 124
Width: 690
Flags: MW
HStem: 167 107<252 436 252 477 211 436>
LayerCount: 2
Fore
SplineSet
531 740 m 1
 422 740 l 1
 345 817 l 1
 268 740 l 1
 159 740 l 1
 291 872 l 1
 399 872 l 1
 531 740 l 1
662 0 m 1
 540 0 l 1
 477 167 l 1
 211 167 l 1
 148 0 l 1
 28 0 l 1
 275 667 l 1
 417 667 l 1
 662 0 l 1
436 274 m 1
 344 538 l 1
 252 274 l 1
 436 274 l 1
EndSplineSet
EndChar

StartChar: radical
Encoding: 195 195 125
Width: 690
Flags: MW
HStem: 167 107<252 436 252 477 211 436>
LayerCount: 2
Fore
SplineSet
542 807 m 1
 451 745 l 2
 438 736 426 731 411 731 c 0
 396 731 381 737 368 746 c 2
 284 804 l 2
 280 806 277 806 273 804 c 2
 192 747 l 1
 149 808 l 1
 239 869 l 2
 252 878 264 883 279 883 c 0
 294 883 309 877 322 868 c 2
 402 812 l 2
 405 810 409 809 413 812 c 2
 502 871 l 1
 542 807 l 1
662 0 m 1
 540 0 l 1
 477 167 l 1
 211 167 l 1
 148 0 l 1
 28 0 l 1
 275 667 l 1
 417 667 l 1
 662 0 l 1
436 274 m 1
 344 538 l 1
 252 274 l 1
 436 274 l 1
EndSplineSet
EndChar

StartChar: florin
Encoding: 196 196 126
Width: 690
Flags: MW
HStem: 167 107<252 436 252 477 211 436> 753 119<187 306 187 306 383 502 187 383>
VStem: 187 119<753 872> 383 119<753 872>
LayerCount: 2
Fore
SplineSet
502 753 m 1
 383 753 l 1
 383 872 l 1
 502 872 l 1
 502 753 l 1
306 753 m 1
 187 753 l 1
 187 872 l 1
 306 872 l 1
 306 753 l 1
662 0 m 1
 540 0 l 1
 477 167 l 1
 211 167 l 1
 148 0 l 1
 28 0 l 1
 275 667 l 1
 417 667 l 1
 662 0 l 1
436 274 m 1
 344 538 l 1
 252 274 l 1
 436 274 l 1
EndSplineSet
EndChar

StartChar: approxequal
Encoding: 197 197 127
Width: 678
Flags: W
HStem: 167 107<246 430 246 466 210 430> 538 101<335 341> 745 63<306 311 311 369>
VStem: 222 70<653 658 658 726 653 742> 388 70<658 726 726 731>
LayerCount: 2
Fore
SplineSet
650 0 m 1
 522 0 l 1
 466 167 l 1
 210 167 l 1
 154 0 l 1
 28 0 l 1
 247 598 l 1
 247 598 222 612 222 649 c 2
 222 742 l 2
 222 779 251 808 288 808 c 2
 391 808 l 2
 428 808 458 779 458 742 c 2
 458 649 l 2
 458 612 433 598 433 598 c 1
 650 0 l 1
388 658 m 2
 388 726 l 2
 388 736 379 745 369 745 c 2
 311 745 l 2
 301 745 292 736 292 726 c 2
 292 658 l 2
 292 648 302 639 311 639 c 2
 369 639 l 2
 378 639 388 648 388 658 c 2
430 274 m 1
 347 524 l 2
 345 529 344 538 338 538 c 0
 332 538 331 530 329 524 c 2
 246 274 l 1
 430 274 l 1
EndSplineSet
EndChar

StartChar: Delta
Encoding: 198 198 128
Width: 879
Flags: MW
HStem: 0 114<544 795 544 795> 277 114<218 424 218 424 544 795> 553 114<274 277 277 424 544 795 544 544>
VStem: 98 120<0 277 0 391 391 494> 424 120<114 277 114 277 114 277 391 553>
LayerCount: 2
Fore
SplineSet
795 0 m 1
 424 0 l 1
 424 277 l 1
 218 277 l 1
 218 0 l 1
 98 0 l 1
 98 514 l 2
 98 533 105 550 119 564 c 2
 201 646 l 2
 215 660 232 667 251 667 c 2
 795 667 l 1
 795 553 l 1
 544 553 l 1
 544 391 l 1
 795 391 l 1
 795 277 l 1
 544 277 l 1
 544 114 l 1
 795 114 l 1
 795 0 l 1
424 391 m 1
 424 553 l 1
 277 553 l 2
 271 553 267 551 263 547 c 2
 224 508 l 2
 220 504 218 499 218 494 c 2
 218 391 l 1
 424 391 l 1
EndSplineSet
EndChar

StartChar: guillemotleft
Encoding: 199 199 129
Width: 633
Flags: W
HStem: 0 114<227.5 428 263 325 349 428 428 431 263 454 349 349> 553 114<260 263 263 428>
VStem: 84 120<170.5 173 173 494>
LayerCount: 2
Fore
SplineSet
591 108 m 1
 504 21 l 2
 490 7 473 0 454 0 c 2
 349 0 l 1
 437 -88 l 1
 337 -188 l 1
 287 -138 l 1
 337 -88 l 1
 287 -38 l 1
 325 0 l 1
 237 0 l 2
 218 0 201 7 187 21 c 2
 105 103 l 2
 91 117 84 134 84 153 c 2
 84 514 l 2
 84 533 91 550 105 564 c 2
 187 646 l 2
 201 660 218 667 237 667 c 2
 454 667 l 2
 473 667 490 660 504 646 c 2
 591 559 l 1
 510 479 l 1
 442 547 l 2
 438 551 434 553 428 553 c 2
 263 553 l 2
 257 553 253 551 249 547 c 2
 210 508 l 2
 206 504 204 499 204 494 c 2
 204 173 l 2
 204 168 206 163 210 159 c 2
 249 120 l 2
 253 116 257 114 263 114 c 2
 428 114 l 2
 434 114 438 116 442 120 c 2
 510 188 l 1
 591 108 l 1
EndSplineSet
EndChar

StartChar: guillemotright
Encoding: 200 200 130
Width: 643
Flags: W
HStem: 0 114<232 559 232 559> 277 114<232 559 232 559> 553 319<232 306 194 559 232 232>
VStem: 112 120<114 277 391 553>
LayerCount: 2
Fore
SplineSet
445 733 m 1
 333 733 l 1
 194 872 l 1
 306 872 l 1
 445 733 l 1
559 0 m 1
 112 0 l 1
 112 667 l 1
 559 667 l 1
 559 553 l 1
 232 553 l 1
 232 391 l 1
 559 391 l 1
 559 277 l 1
 232 277 l 1
 232 114 l 1
 559 114 l 1
 559 0 l 1
EndSplineSet
EndChar

StartChar: ellipsis
Encoding: 201 201 131
Width: 643
Flags: MW
HStem: 0 114<232 559 232 559> 277 114<232 559 232 559> 553 319<366 482 366 559 232 482>
VStem: 112 120<114 277 391 553>
LayerCount: 2
Fore
SplineSet
482 872 m 1
 343 733 l 1
 227 733 l 1
 366 872 l 1
 482 872 l 1
559 0 m 1
 112 0 l 1
 112 667 l 1
 559 667 l 1
 559 553 l 1
 232 553 l 1
 232 391 l 1
 559 391 l 1
 559 277 l 1
 232 277 l 1
 232 114 l 1
 559 114 l 1
 559 0 l 1
EndSplineSet
EndChar

StartChar: nbspace
Encoding: 202 202 132
Width: 643
Flags: W
HStem: 0 114<232 559 232 559> 277 114<232 559 232 559> 553 187<232 258 412 521 232 232>
VStem: 112 120<114 277 391 553>
LayerCount: 2
Fore
SplineSet
521 740 m 1
 412 740 l 1
 335 817 l 1
 258 740 l 1
 149 740 l 1
 281 872 l 1
 389 872 l 1
 521 740 l 1
559 0 m 1
 112 0 l 1
 112 667 l 1
 559 667 l 1
 559 553 l 1
 232 553 l 1
 232 391 l 1
 559 391 l 1
 559 277 l 1
 232 277 l 1
 232 114 l 1
 559 114 l 1
 559 0 l 1
EndSplineSet
EndChar

StartChar: Agrave
Encoding: 203 203 133
Width: 643
Flags: MW
HStem: 0 114<232 559 232 559> 277 114<232 559 232 559> 553 114<232 559 232 232> 753 119<178 297 178 297 374 493 178 374>
VStem: 112 120<114 277 391 553> 374 119<753 872>
LayerCount: 2
Fore
SplineSet
493 753 m 1
 374 753 l 1
 374 872 l 1
 493 872 l 1
 493 753 l 1
297 753 m 1
 178 753 l 1
 178 872 l 1
 297 872 l 1
 297 753 l 1
559 0 m 1
 112 0 l 1
 112 667 l 1
 559 667 l 1
 559 553 l 1
 232 553 l 1
 232 391 l 1
 559 391 l 1
 559 277 l 1
 232 277 l 1
 232 114 l 1
 559 114 l 1
 559 0 l 1
EndSplineSet
EndChar

StartChar: Atilde
Encoding: 204 204 134
Width: 444
Flags: MW
HStem: 0 114 553 319
VStem: 162 120<106 561 106 561>
LayerCount: 2
Fore
SplineSet
316 733 m 1
 204 733 l 1
 65 872 l 1
 177 872 l 1
 316 733 l 1
402 0 m 1
 42 0 l 1
 42 106 l 1
 162 106 l 1
 162 561 l 1
 42 561 l 1
 42 667 l 1
 402 667 l 1
 402 561 l 1
 282 561 l 1
 282 106 l 1
 402 106 l 1
 402 0 l 1
EndSplineSet
EndChar

StartChar: Otilde
Encoding: 205 205 135
Width: 444
Flags: MW
HStem: 0 114 553 319
VStem: 162 120<106 561 106 561>
LayerCount: 2
Fore
SplineSet
383 872 m 1
 244 733 l 1
 128 733 l 1
 267 872 l 1
 383 872 l 1
402 0 m 1
 42 0 l 1
 42 106 l 1
 162 106 l 1
 162 561 l 1
 42 561 l 1
 42 667 l 1
 402 667 l 1
 402 561 l 1
 282 561 l 1
 282 106 l 1
 402 106 l 1
 402 0 l 1
EndSplineSet
EndChar

StartChar: OE
Encoding: 206 206 136
Width: 444
Flags: MW
HStem: 0 114 553 187
VStem: 162 120<106 561 106 561>
LayerCount: 2
Fore
SplineSet
408 740 m 1
 299 740 l 1
 222 817 l 1
 145 740 l 1
 36 740 l 1
 168 872 l 1
 276 872 l 1
 408 740 l 1
402 0 m 1
 42 0 l 1
 42 106 l 1
 162 106 l 1
 162 561 l 1
 42 561 l 1
 42 667 l 1
 402 667 l 1
 402 561 l 1
 282 561 l 1
 282 106 l 1
 402 106 l 1
 402 0 l 1
EndSplineSet
EndChar

StartChar: oe
Encoding: 207 207 137
Width: 444
Flags: MW
HStem: 0 114 553 114 753 119<64 183 64 183 260 379 64 260>
VStem: 64 119<753 872> 260 119<753 872>
LayerCount: 2
Fore
SplineSet
379 753 m 1
 260 753 l 1
 260 872 l 1
 379 872 l 1
 379 753 l 1
183 753 m 1
 64 753 l 1
 64 872 l 1
 183 872 l 1
 183 753 l 1
402 0 m 1
 42 0 l 1
 42 106 l 1
 162 106 l 1
 162 561 l 1
 42 561 l 1
 42 667 l 1
 402 667 l 1
 402 561 l 1
 282 561 l 1
 282 106 l 1
 402 106 l 1
 402 0 l 1
EndSplineSet
EndChar

StartChar: endash
Encoding: 208 208 138
Width: 703
Flags: MW
HStem: 0 114<232 440 440 443 232 466> 277 114<20 112 20 112 232 365> 553 114<232 440 232 232>
VStem: 112 120<114 277 114 277 114 277 391 553> 499 120<173 494 494 496.5>
LayerCount: 2
Fore
SplineSet
619 153 m 2
 619 134 612 117 598 103 c 2
 516 21 l 2
 502 7 485 0 466 0 c 2
 112 0 l 1
 112 277 l 1
 20 277 l 1
 20 391 l 1
 112 391 l 1
 112 667 l 1
 466 667 l 2
 485 667 502 660 516 646 c 2
 598 564 l 2
 612 550 619 533 619 514 c 2
 619 153 l 2
499 173 m 2
 499 494 l 2
 499 499 497 504 493 508 c 2
 454 547 l 2
 450 551 446 553 440 553 c 2
 232 553 l 1
 232 391 l 1
 365 391 l 1
 365 277 l 1
 232 277 l 1
 232 114 l 1
 440 114 l 2
 446 114 450 116 454 120 c 2
 493 159 l 2
 497 163 499 168 499 173 c 2
EndSplineSet
EndChar

StartChar: emdash
Encoding: 209 209 139
Width: 731
Flags: MW
VStem: 112 117<0 517 0 667> 502 117<150 667>
LayerCount: 2
Fore
SplineSet
562 807 m 1
 471 745 l 2
 458 736 446 731 431 731 c 0
 416 731 401 737 388 746 c 2
 304 804 l 2
 300 806 297 806 293 804 c 2
 212 747 l 1
 169 808 l 1
 259 869 l 2
 272 878 284 883 299 883 c 0
 314 883 329 877 342 868 c 2
 422 812 l 2
 425 810 429 809 433 812 c 2
 522 871 l 1
 562 807 l 1
619 0 m 1
 449 0 l 1
 229 517 l 1
 229 0 l 1
 112 0 l 1
 112 667 l 1
 282 667 l 1
 502 150 l 1
 502 667 l 1
 619 667 l 1
 619 0 l 1
EndSplineSet
EndChar

StartChar: quotedblleft
Encoding: 210 210 140
Width: 735
Flags: MW
HStem: 0 114<227.5 472 263 472 472 475 263 498> 553 319<260 263 263 307 195 472>
VStem: 84 120<170.5 173 173 494> 531 120<173 494 494 496.5>
LayerCount: 2
Fore
SplineSet
446 733 m 1
 334 733 l 1
 195 872 l 1
 307 872 l 1
 446 733 l 1
651 153 m 2
 651 134 644 117 630 103 c 2
 548 21 l 2
 534 7 517 0 498 0 c 2
 237 0 l 2
 218 0 201 7 187 21 c 2
 105 103 l 2
 91 117 84 134 84 153 c 2
 84 514 l 2
 84 533 91 550 105 564 c 2
 187 646 l 2
 201 660 218 667 237 667 c 2
 498 667 l 2
 517 667 534 660 548 646 c 2
 630 564 l 2
 644 550 651 533 651 514 c 2
 651 153 l 2
531 173 m 2
 531 494 l 2
 531 499 529 504 525 508 c 2
 486 547 l 2
 482 551 478 553 472 553 c 2
 263 553 l 2
 257 553 253 551 249 547 c 2
 210 508 l 2
 206 504 204 499 204 494 c 2
 204 173 l 2
 204 168 206 163 210 159 c 2
 249 120 l 2
 253 116 257 114 263 114 c 2
 472 114 l 2
 478 114 482 116 486 120 c 2
 525 159 l 2
 529 163 531 168 531 173 c 2
EndSplineSet
EndChar

StartChar: quotedblright
Encoding: 211 211 141
Width: 735
Flags: MW
HStem: 0 114<227.5 472 263 472 472 475 263 498> 553 319<260 544 428 472>
VStem: 84 120<170.5 173 173 494> 531 120<173 494 494 496.5>
LayerCount: 2
Fore
SplineSet
544 872 m 1
 405 733 l 1
 289 733 l 1
 428 872 l 1
 544 872 l 1
651 153 m 2
 651 134 644 117 630 103 c 2
 548 21 l 2
 534 7 517 0 498 0 c 2
 237 0 l 2
 218 0 201 7 187 21 c 2
 105 103 l 2
 91 117 84 134 84 153 c 2
 84 514 l 2
 84 533 91 550 105 564 c 2
 187 646 l 2
 201 660 218 667 237 667 c 2
 498 667 l 2
 517 667 534 660 548 646 c 2
 630 564 l 2
 644 550 651 533 651 514 c 2
 651 153 l 2
531 173 m 2
 531 494 l 2
 531 499 529 504 525 508 c 2
 486 547 l 2
 482 551 478 553 472 553 c 2
 263 553 l 2
 257 553 253 551 249 547 c 2
 210 508 l 2
 206 504 204 499 204 494 c 2
 204 173 l 2
 204 168 206 163 210 159 c 2
 249 120 l 2
 253 116 257 114 263 114 c 2
 472 114 l 2
 478 114 482 116 486 120 c 2
 525 159 l 2
 529 163 531 168 531 173 c 2
EndSplineSet
EndChar

StartChar: quoteleft
Encoding: 212 212 142
Width: 735
Flags: MW
HStem: 0 114<227.5 472 263 472 472 475 263 498> 553 187<260 263 263 290 444 472>
VStem: 84 120<170.5 173 173 494> 531 120<173 494 494 496.5>
LayerCount: 2
Fore
SplineSet
553 740 m 1
 444 740 l 1
 367 817 l 1
 290 740 l 1
 181 740 l 1
 313 872 l 1
 421 872 l 1
 553 740 l 1
651 153 m 2
 651 134 644 117 630 103 c 2
 548 21 l 2
 534 7 517 0 498 0 c 2
 237 0 l 2
 218 0 201 7 187 21 c 2
 105 103 l 2
 91 117 84 134 84 153 c 2
 84 514 l 2
 84 533 91 550 105 564 c 2
 187 646 l 2
 201 660 218 667 237 667 c 2
 498 667 l 2
 517 667 534 660 548 646 c 2
 630 564 l 2
 644 550 651 533 651 514 c 2
 651 153 l 2
531 173 m 2
 531 494 l 2
 531 499 529 504 525 508 c 2
 486 547 l 2
 482 551 478 553 472 553 c 2
 263 553 l 2
 257 553 253 551 249 547 c 2
 210 508 l 2
 206 504 204 499 204 494 c 2
 204 173 l 2
 204 168 206 163 210 159 c 2
 249 120 l 2
 253 116 257 114 263 114 c 2
 472 114 l 2
 478 114 482 116 486 120 c 2
 525 159 l 2
 529 163 531 168 531 173 c 2
EndSplineSet
EndChar

StartChar: quoteright
Encoding: 213 213 143
Width: 735
Flags: MW
HStem: 0 114<227.5 472 263 472 472 475 263 498> 553 330<260 308.5 293.5 308.5 293.5 472>
VStem: 84 120<170.5 173 173 494> 531 120<173 494 494 496.5>
LayerCount: 2
Fore
SplineSet
564 807 m 1
 473 745 l 2
 460 736 448 731 433 731 c 0
 418 731 403 737 390 746 c 2
 306 804 l 2
 302 806 299 806 295 804 c 2
 214 747 l 1
 171 808 l 1
 261 869 l 2
 274 878 286 883 301 883 c 0
 316 883 331 877 344 868 c 2
 424 812 l 2
 427 810 431 809 435 812 c 2
 524 871 l 1
 564 807 l 1
651 153 m 2
 651 134 644 117 630 103 c 2
 548 21 l 2
 534 7 517 0 498 0 c 2
 237 0 l 2
 218 0 201 7 187 21 c 2
 105 103 l 2
 91 117 84 134 84 153 c 2
 84 514 l 2
 84 533 91 550 105 564 c 2
 187 646 l 2
 201 660 218 667 237 667 c 2
 498 667 l 2
 517 667 534 660 548 646 c 2
 630 564 l 2
 644 550 651 533 651 514 c 2
 651 153 l 2
531 173 m 2
 531 494 l 2
 531 499 529 504 525 508 c 2
 486 547 l 2
 482 551 478 553 472 553 c 2
 263 553 l 2
 257 553 253 551 249 547 c 2
 210 508 l 2
 206 504 204 499 204 494 c 2
 204 173 l 2
 204 168 206 163 210 159 c 2
 249 120 l 2
 253 116 257 114 263 114 c 2
 472 114 l 2
 478 114 482 116 486 120 c 2
 525 159 l 2
 529 163 531 168 531 173 c 2
EndSplineSet
EndChar

StartChar: divide
Encoding: 214 214 144
Width: 735
Flags: MW
HStem: 0 114<227.5 472 263 472 472 475 263 498> 553 114<260 263 263 472> 753 119<210 329 210 329 406 525 210 406>
VStem: 84 120<170.5 173 173 494> 210 119<753 872> 406 119<753 872> 531 120<173 494 494 496.5>
LayerCount: 2
Fore
SplineSet
525 753 m 1
 406 753 l 1
 406 872 l 1
 525 872 l 1
 525 753 l 1
329 753 m 1
 210 753 l 1
 210 872 l 1
 329 872 l 1
 329 753 l 1
651 153 m 2
 651 134 644 117 630 103 c 2
 548 21 l 2
 534 7 517 0 498 0 c 2
 237 0 l 2
 218 0 201 7 187 21 c 2
 105 103 l 2
 91 117 84 134 84 153 c 2
 84 514 l 2
 84 533 91 550 105 564 c 2
 187 646 l 2
 201 660 218 667 237 667 c 2
 498 667 l 2
 517 667 534 660 548 646 c 2
 630 564 l 2
 644 550 651 533 651 514 c 2
 651 153 l 2
531 173 m 2
 531 494 l 2
 531 499 529 504 525 508 c 2
 486 547 l 2
 482 551 478 553 472 553 c 2
 263 553 l 2
 257 553 253 551 249 547 c 2
 210 508 l 2
 206 504 204 499 204 494 c 2
 204 173 l 2
 204 168 206 163 210 159 c 2
 249 120 l 2
 253 116 257 114 263 114 c 2
 472 114 l 2
 478 114 482 116 486 120 c 2
 525 159 l 2
 529 163 531 168 531 173 c 2
EndSplineSet
EndChar

StartChar: lozenge
Encoding: 215 215 145
Width: 608
Flags: HMW
LayerCount: 2
Fore
SplineSet
519 91 m 1
 448 20 l 1
 304 164 l 1
 160 20 l 1
 89 91 l 1
 233 235 l 1
 89 379 l 1
 160 450 l 1
 304 306 l 1
 448 450 l 1
 519 379 l 1
 375 235 l 1
 519 91 l 1
EndSplineSet
EndChar

StartChar: ydieresis
Encoding: 216 216 146
Width: 735
Flags: MW
HStem: 0 114<227.5 286 237 286 345 472 472 475 263 318> 553 114<260 263 263 390 237 472 237 449>
VStem: 84 120<170.5 173 173 494> 531 120<173 494 494 496.5>
LayerCount: 2
Fore
SplineSet
651 153 m 2
 651 134 644 117 630 103 c 2
 548 21 l 2
 534 7 517 0 498 0 c 2
 318 0 l 1
 285 -139 l 1
 229 -125 l 1
 259 0 l 1
 237 0 l 2
 218 0 201 7 187 21 c 2
 105 103 l 2
 91 117 84 134 84 153 c 2
 84 514 l 2
 84 533 91 550 105 564 c 2
 187 646 l 2
 201 660 218 667 237 667 c 2
 419 667 l 1
 453 808 l 1
 508 795 l 1
 477 667 l 1
 498 667 l 2
 517 667 534 660 548 646 c 2
 630 564 l 2
 644 550 651 533 651 514 c 2
 651 153 l 2
531 173 m 2
 531 494 l 2
 531 499 529 504 525 508 c 2
 486 547 l 2
 482 551 478 553 472 553 c 2
 449 553 l 1
 345 114 l 1
 472 114 l 2
 478 114 482 116 486 120 c 2
 525 159 l 2
 529 163 531 168 531 173 c 2
390 553 m 1
 263 553 l 2
 257 553 253 551 249 547 c 2
 210 508 l 2
 206 504 204 499 204 494 c 2
 204 173 l 2
 204 168 206 163 210 159 c 2
 249 120 l 2
 253 116 257 114 263 114 c 2
 286 114 l 1
 390 553 l 1
EndSplineSet
EndChar

StartChar: Ydieresis
Encoding: 217 217 147
Width: 703
Flags: MW
HStem: 0 114<241.5 426 277 426 426 429 277 452>
VStem: 98 120<170.5 173 173 667> 485 120<173 667>
LayerCount: 2
Fore
SplineSet
455 733 m 1
 343 733 l 1
 204 872 l 1
 316 872 l 1
 455 733 l 1
605 153 m 2
 605 134 598 117 584 103 c 2
 502 21 l 2
 488 7 471 0 452 0 c 2
 251 0 l 2
 232 0 215 7 201 21 c 2
 119 103 l 2
 105 117 98 134 98 153 c 2
 98 667 l 1
 218 667 l 1
 218 173 l 2
 218 168 220 163 224 159 c 2
 263 120 l 2
 267 116 271 114 277 114 c 2
 426 114 l 2
 432 114 436 116 440 120 c 2
 479 159 l 2
 483 163 485 168 485 173 c 2
 485 667 l 1
 605 667 l 1
 605 153 l 2
EndSplineSet
EndChar

StartChar: fraction
Encoding: 218 218 148
Width: 703
Flags: W
HStem: 0 114<241.5 426 277 426 426 429 277 452>
VStem: 98 120<170.5 173 173 667> 485 120<173 667>
LayerCount: 2
Fore
SplineSet
503 872 m 1
 364 733 l 1
 248 733 l 1
 387 872 l 1
 503 872 l 1
605 153 m 2
 605 134 598 117 584 103 c 2
 502 21 l 2
 488 7 471 0 452 0 c 2
 251 0 l 2
 232 0 215 7 201 21 c 2
 119 103 l 2
 105 117 98 134 98 153 c 2
 98 667 l 1
 218 667 l 1
 218 173 l 2
 218 168 220 163 224 159 c 2
 263 120 l 2
 267 116 271 114 277 114 c 2
 426 114 l 2
 432 114 436 116 440 120 c 2
 479 159 l 2
 483 163 485 168 485 173 c 2
 485 667 l 1
 605 667 l 1
 605 153 l 2
EndSplineSet
EndChar

StartChar: currency
Encoding: 219 219 149
Width: 703
Flags: MW
HStem: 0 114<241.5 426 277 426 426 429 277 452>
VStem: 98 120<170.5 173 173 667> 485 120<173 667>
LayerCount: 2
Fore
SplineSet
537 740 m 1
 428 740 l 1
 351 817 l 1
 274 740 l 1
 165 740 l 1
 297 872 l 1
 405 872 l 1
 537 740 l 1
605 153 m 2
 605 134 598 117 584 103 c 2
 502 21 l 2
 488 7 471 0 452 0 c 2
 251 0 l 2
 232 0 215 7 201 21 c 2
 119 103 l 2
 105 117 98 134 98 153 c 2
 98 667 l 1
 218 667 l 1
 218 173 l 2
 218 168 220 163 224 159 c 2
 263 120 l 2
 267 116 271 114 277 114 c 2
 426 114 l 2
 432 114 436 116 440 120 c 2
 479 159 l 2
 483 163 485 168 485 173 c 2
 485 667 l 1
 605 667 l 1
 605 153 l 2
EndSplineSet
EndChar

StartChar: guilsinglleft
Encoding: 220 220 150
Width: 703
Flags: W
HStem: 0 114<241.5 426 277 426 426 429 277 452> 753 119<194 313 194 313 390 509 194 390>
VStem: 98 120<170.5 173 173 667> 390 119<753 872>
LayerCount: 2
Fore
SplineSet
509 753 m 1
 390 753 l 1
 390 872 l 1
 509 872 l 1
 509 753 l 1
313 753 m 1
 194 753 l 1
 194 872 l 1
 313 872 l 1
 313 753 l 1
605 153 m 2
 605 134 598 117 584 103 c 2
 502 21 l 2
 488 7 471 0 452 0 c 2
 251 0 l 2
 232 0 215 7 201 21 c 2
 119 103 l 2
 105 117 98 134 98 153 c 2
 98 667 l 1
 218 667 l 1
 218 173 l 2
 218 168 220 163 224 159 c 2
 263 120 l 2
 267 116 271 114 277 114 c 2
 426 114 l 2
 432 114 436 116 440 120 c 2
 479 159 l 2
 483 163 485 168 485 173 c 2
 485 667 l 1
 605 667 l 1
 605 153 l 2
EndSplineSet
EndChar

StartChar: guilsinglright
Encoding: 221 221 151
Width: 599
Flags: W
VStem: 240 120<0 295 0 295>
LayerCount: 2
Fore
SplineSet
488 872 m 1
 349 733 l 1
 233 733 l 1
 372 872 l 1
 488 872 l 1
585 667 m 1
 360 295 l 1
 360 0 l 1
 240 0 l 1
 240 295 l 1
 14 667 l 1
 145 667 l 1
 301 408 l 1
 456 667 l 1
 585 667 l 1
EndSplineSet
EndChar

StartChar: fi
Encoding: 222 222 152
Width: 668
Flags: MW
HStem: 132 114<232 457 457 460 232 484 232 457> 422 114<232 457 232 484>
VStem: 112 120<0 132 0 246 246 422 536 667> 499 120<288 380 380 383>
LayerCount: 2
Fore
SplineSet
619 268 m 2
 619 248 612 232 598 218 c 2
 532 152 l 2
 519 139 503 132 484 132 c 2
 232 132 l 1
 232 0 l 1
 112 0 l 1
 112 667 l 1
 232 667 l 1
 232 536 l 1
 484 536 l 2
 503 536 519 529 532 516 c 2
 598 450 l 2
 612 436 619 420 619 400 c 2
 619 268 l 2
499 288 m 2
 499 380 l 2
 499 386 497 390 493 394 c 2
 471 416 l 2
 467 420 463 422 457 422 c 2
 232 422 l 1
 232 246 l 1
 457 246 l 2
 463 246 467 248 471 252 c 2
 493 274 l 2
 497 278 499 282 499 288 c 2
EndSplineSet
EndChar

StartChar: fl
Encoding: 223 223 153
Width: 565
Flags: MW
HStem: 0 100<241 374 374 376.5 241 395 241 374> 303 100<269 374 269 374> 567 100<202.5 205 205 374>
VStem: 70 114<-190 546 -190 552 -190 562> 241 268<0 115 100 115>
LayerCount: 2
Fore
SplineSet
509 115 m 2
 509 95 502 78 488 64 c 2
 444 20 l 2
 430 6 414 0 395 0 c 2
 241 0 l 1
 241 100 l 1
 374 100 l 2
 379 100 384 102 388 106 c 2
 389 107 l 2
 393 111 395 115 395 121 c 2
 395 282 l 2
 395 288 393 292 389 296 c 2
 388 297 l 2
 384 301 379 303 374 303 c 2
 269 303 l 1
 269 403 l 1
 374 403 l 2
 379 403 384 405 388 409 c 2
 389 410 l 2
 393 414 395 418 395 424 c 2
 395 546 l 2
 395 552 393 556 389 560 c 2
 388 561 l 2
 384 565 379 567 374 567 c 2
 205 567 l 2
 200 567 195 565 191 561 c 2
 190 560 l 2
 186 556 184 552 184 546 c 2
 184 -190 l 1
 70 -190 l 1
 70 552 l 2
 70 572 77 589 91 603 c 2
 135 647 l 2
 149 661 165 667 184 667 c 2
 395 667 l 2
 414 667 430 661 444 647 c 2
 488 603 l 2
 502 589 509 572 509 552 c 2
 509 425 l 2
 509 405 502 388 488 374 c 2
 467 353 l 1
 488 332 l 2
 502 318 509 301 509 281 c 2
 509 115 l 2
EndSplineSet
EndChar

StartChar: daggerdbl
Encoding: 224 224 154
Width: 574
Flags: MW
HStem: 0 100<146.5 313 177 313 313 315.5 177 333> 206 93<174.5 177 177 369> 376 291<164.5 167 167 225 113 348>
VStem: 42 114<118 121 121 185> 369 114<156 206 206 206 299 355 355 358>
LayerCount: 2
Fore
SplineSet
364 528 m 1
 252 528 l 1
 113 667 l 1
 225 667 l 1
 364 528 l 1
531 73 m 1
 458 0 l 1
 410 48 l 1
 382 20 l 2
 369 7 352 0 333 0 c 2
 156 0 l 2
 137 0 121 6 107 20 c 2
 63 64 l 2
 49 78 42 95 42 115 c 2
 42 191 l 2
 42 211 49 228 63 242 c 2
 100 279 l 2
 113 292 130 299 149 299 c 2
 369 299 l 1
 369 355 l 2
 369 361 367 365 363 369 c 2
 362 370 l 2
 358 374 353 376 348 376 c 2
 167 376 l 2
 162 376 157 374 153 370 c 2
 122 339 l 1
 56 405 l 1
 107 456 l 2
 120 469 137 476 156 476 c 2
 369 476 l 2
 388 476 404 469 418 456 c 2
 462 412 l 2
 476 398 483 381 483 361 c 2
 483 129 l 2
 483 123 485 119 489 115 c 2
 531 73 l 1
369 156 m 2
 369 206 l 1
 177 206 l 2
 172 206 167 204 163 200 c 2
 162 199 l 2
 158 195 156 191 156 185 c 2
 156 121 l 2
 156 115 158 111 162 107 c 2
 163 106 l 2
 167 102 172 100 177 100 c 2
 313 100 l 2
 318 100 323 102 327 106 c 2
 363 142 l 2
 367 146 369 150 369 156 c 2
EndSplineSet
EndChar

StartChar: periodcentered
Encoding: 225 225 155
Width: 574
Flags: MW
HStem: 0 100<146.5 313 177 313 313 315.5 177 333> 206 93<174.5 177 177 369> 376 291<164.5 436 320 348>
VStem: 42 114<118 121 121 185> 369 114<156 206 206 206 299 355 355 358>
LayerCount: 2
Fore
SplineSet
436 667 m 1
 297 528 l 1
 181 528 l 1
 320 667 l 1
 436 667 l 1
531 73 m 1
 458 0 l 1
 410 48 l 1
 382 20 l 2
 369 7 352 0 333 0 c 2
 156 0 l 2
 137 0 121 6 107 20 c 2
 63 64 l 2
 49 78 42 95 42 115 c 2
 42 191 l 2
 42 211 49 228 63 242 c 2
 100 279 l 2
 113 292 130 299 149 299 c 2
 369 299 l 1
 369 355 l 2
 369 361 367 365 363 369 c 2
 362 370 l 2
 358 374 353 376 348 376 c 2
 167 376 l 2
 162 376 157 374 153 370 c 2
 122 339 l 1
 56 405 l 1
 107 456 l 2
 120 469 137 476 156 476 c 2
 369 476 l 2
 388 476 404 469 418 456 c 2
 462 412 l 2
 476 398 483 381 483 361 c 2
 483 129 l 2
 483 123 485 119 489 115 c 2
 531 73 l 1
369 156 m 2
 369 206 l 1
 177 206 l 2
 172 206 167 204 163 200 c 2
 162 199 l 2
 158 195 156 191 156 185 c 2
 156 121 l 2
 156 115 158 111 162 107 c 2
 163 106 l 2
 167 102 172 100 177 100 c 2
 313 100 l 2
 318 100 323 102 327 106 c 2
 363 142 l 2
 367 146 369 150 369 156 c 2
EndSplineSet
EndChar

StartChar: quotesinglbase
Encoding: 226 226 156
Width: 574
Flags: MW
HStem: 0 100<146.5 313 177 313 313 315.5 177 333> 206 93<174.5 177 177 369> 376 159<164.5 167 167 193 347 348>
VStem: 42 114<118 121 121 185> 369 114<156 206 206 206 299 355 355 358>
LayerCount: 2
Fore
SplineSet
456 535 m 1
 347 535 l 1
 270 612 l 1
 193 535 l 1
 84 535 l 1
 216 667 l 1
 324 667 l 1
 456 535 l 1
531 73 m 1
 458 0 l 1
 410 48 l 1
 382 20 l 2
 369 7 352 0 333 0 c 2
 156 0 l 2
 137 0 121 6 107 20 c 2
 63 64 l 2
 49 78 42 95 42 115 c 2
 42 191 l 2
 42 211 49 228 63 242 c 2
 100 279 l 2
 113 292 130 299 149 299 c 2
 369 299 l 1
 369 355 l 2
 369 361 367 365 363 369 c 2
 362 370 l 2
 358 374 353 376 348 376 c 2
 167 376 l 2
 162 376 157 374 153 370 c 2
 122 339 l 1
 56 405 l 1
 107 456 l 2
 120 469 137 476 156 476 c 2
 369 476 l 2
 388 476 404 469 418 456 c 2
 462 412 l 2
 476 398 483 381 483 361 c 2
 483 129 l 2
 483 123 485 119 489 115 c 2
 531 73 l 1
369 156 m 2
 369 206 l 1
 177 206 l 2
 172 206 167 204 163 200 c 2
 162 199 l 2
 158 195 156 191 156 185 c 2
 156 121 l 2
 156 115 158 111 162 107 c 2
 163 106 l 2
 167 102 172 100 177 100 c 2
 313 100 l 2
 318 100 323 102 327 106 c 2
 363 142 l 2
 367 146 369 150 369 156 c 2
EndSplineSet
EndChar

StartChar: quotedblbase
Encoding: 227 227 157
Width: 574
Flags: MW
HStem: 0 100<146.5 313 177 313 313 315.5 177 333> 206 93<174.5 177 177 369> 376 302<164.5 220.5 205.5 220.5 205.5 348>
VStem: 42 114<118 121 121 185> 369 114<156 206 206 206 299 355 355 358>
LayerCount: 2
Fore
SplineSet
476 602 m 1
 385 540 l 2
 372 531 360 526 345 526 c 0
 330 526 315 532 302 541 c 2
 218 599 l 2
 214 601 211 601 207 599 c 2
 126 542 l 1
 83 603 l 1
 173 664 l 2
 186 673 198 678 213 678 c 0
 228 678 243 672 256 663 c 2
 336 607 l 2
 339 605 343 604 347 607 c 2
 436 666 l 1
 476 602 l 1
531 73 m 1
 458 0 l 1
 410 48 l 1
 382 20 l 2
 369 7 352 0 333 0 c 2
 156 0 l 2
 137 0 121 6 107 20 c 2
 63 64 l 2
 49 78 42 95 42 115 c 2
 42 191 l 2
 42 211 49 228 63 242 c 2
 100 279 l 2
 113 292 130 299 149 299 c 2
 369 299 l 1
 369 355 l 2
 369 361 367 365 363 369 c 2
 362 370 l 2
 358 374 353 376 348 376 c 2
 167 376 l 2
 162 376 157 374 153 370 c 2
 122 339 l 1
 56 405 l 1
 107 456 l 2
 120 469 137 476 156 476 c 2
 369 476 l 2
 388 476 404 469 418 456 c 2
 462 412 l 2
 476 398 483 381 483 361 c 2
 483 129 l 2
 483 123 485 119 489 115 c 2
 531 73 l 1
369 156 m 2
 369 206 l 1
 177 206 l 2
 172 206 167 204 163 200 c 2
 162 199 l 2
 158 195 156 191 156 185 c 2
 156 121 l 2
 156 115 158 111 162 107 c 2
 163 106 l 2
 167 102 172 100 177 100 c 2
 313 100 l 2
 318 100 323 102 327 106 c 2
 363 142 l 2
 367 146 369 150 369 156 c 2
EndSplineSet
EndChar

StartChar: perthousand
Encoding: 228 228 158
Width: 574
Flags: MW
HStem: 0 100<146.5 313 177 313 313 315.5 177 333> 206 93<174.5 177 177 369> 376 100<164.5 167 167 348> 566 119<114 233 114 233 310 429 114 310>
VStem: 42 114<118 121 121 185> 310 119<566 685>
LayerCount: 2
Fore
SplineSet
429 566 m 1
 310 566 l 1
 310 685 l 1
 429 685 l 1
 429 566 l 1
233 566 m 1
 114 566 l 1
 114 685 l 1
 233 685 l 1
 233 566 l 1
531 73 m 1
 458 0 l 1
 410 48 l 1
 382 20 l 2
 369 7 352 0 333 0 c 2
 156 0 l 2
 137 0 121 6 107 20 c 2
 63 64 l 2
 49 78 42 95 42 115 c 2
 42 191 l 2
 42 211 49 228 63 242 c 2
 100 279 l 2
 113 292 130 299 149 299 c 2
 369 299 l 1
 369 355 l 2
 369 361 367 365 363 369 c 2
 362 370 l 2
 358 374 353 376 348 376 c 2
 167 376 l 2
 162 376 157 374 153 370 c 2
 122 339 l 1
 56 405 l 1
 107 456 l 2
 120 469 137 476 156 476 c 2
 369 476 l 2
 388 476 404 469 418 456 c 2
 462 412 l 2
 476 398 483 381 483 361 c 2
 483 129 l 2
 483 123 485 119 489 115 c 2
 531 73 l 1
369 156 m 2
 369 206 l 1
 177 206 l 2
 172 206 167 204 163 200 c 2
 162 199 l 2
 158 195 156 191 156 185 c 2
 156 121 l 2
 156 115 158 111 162 107 c 2
 163 106 l 2
 167 102 172 100 177 100 c 2
 313 100 l 2
 318 100 323 102 327 106 c 2
 363 142 l 2
 367 146 369 150 369 156 c 2
EndSplineSet
EndChar

StartChar: Acircumflex
Encoding: 229 229 159
Width: 574
Flags: MW
HStem: 0 100<146.5 313 177 313 313 315.5 177 333> 206 93<174.5 177 177 369> 376 100<151 167 240 285 285 289.5> 576 63<235 240 240 285>
VStem: 42 114<118 121 121 185> 304 70<495 557 557 562>
LayerCount: 2
Fore
SplineSet
531 73 m 1
 458 0 l 1
 410 48 l 1
 382 20 l 2
 369 7 352 0 333 0 c 2
 156 0 l 2
 137 0 121 6 107 20 c 2
 63 64 l 2
 49 78 42 95 42 115 c 2
 42 191 l 2
 42 211 49 228 63 242 c 2
 100 279 l 2
 113 292 130 299 149 299 c 2
 369 299 l 1
 369 355 l 2
 369 361 367 365 363 369 c 2
 362 370 l 2
 358 374 353 376 348 376 c 2
 167 376 l 2
 162 376 157 374 153 370 c 2
 122 339 l 1
 56 405 l 1
 107 456 l 2
 127 476 151 476 151 476 c 1
 151 573 l 2
 151 610 180 639 217 639 c 2
 307 639 l 2
 344 639 374 610 374 573 c 2
 374 476 l 1
 374 476 397 477 418 456 c 2
 462 412 l 2
 476 398 483 381 483 361 c 2
 483 129 l 2
 483 123 485 119 489 115 c 2
 531 73 l 1
304 495 m 2
 304 557 l 2
 304 567 295 576 285 576 c 2
 240 576 l 2
 230 576 221 567 221 557 c 2
 221 495 l 2
 221 485 231 476 240 476 c 2
 285 476 l 2
 294 476 304 485 304 495 c 2
369 156 m 2
 369 206 l 1
 177 206 l 2
 172 206 167 204 163 200 c 2
 162 199 l 2
 158 195 156 191 156 185 c 2
 156 121 l 2
 156 115 158 111 162 107 c 2
 163 106 l 2
 167 102 172 100 177 100 c 2
 313 100 l 2
 318 100 323 102 327 106 c 2
 363 142 l 2
 367 146 369 150 369 156 c 2
EndSplineSet
EndChar

StartChar: Ecircumflex
Encoding: 230 230 160
Width: 810
Flags: MW
HStem: 0 100<146.5 285 177 285 285 287.5 177 305 476 619 619 621.5> 206 93<174.5 177 177 341 455 640> 376 100<164.5 167 167 320 473.5 476 476 619>
VStem: 42 114<118 121 121 185> 341 114<156 206 299 355> 640 114<0 85 299 355 355 358>
LayerCount: 2
Fore
SplineSet
754 206 m 1
 455 206 l 1
 455 121 l 2
 455 115 457 111 461 107 c 2
 462 106 l 2
 466 102 471 100 476 100 c 2
 619 100 l 2
 624 100 629 102 633 106 c 2
 683 156 l 1
 754 85 l 1
 689 20 l 2
 675 6 659 0 640 0 c 2
 455 0 l 2
 436 0 419 7 406 20 c 2
 380 46 l 1
 354 20 l 2
 341 7 324 0 305 0 c 2
 156 0 l 2
 137 0 121 6 107 20 c 2
 63 64 l 2
 49 78 42 95 42 115 c 2
 42 191 l 2
 42 211 49 228 63 242 c 2
 100 279 l 2
 113 292 130 299 149 299 c 2
 341 299 l 1
 341 355 l 2
 341 361 339 365 335 369 c 2
 334 370 l 2
 330 374 325 376 320 376 c 2
 167 376 l 2
 162 376 157 374 153 370 c 2
 122 339 l 1
 56 405 l 1
 107 456 l 2
 120 469 137 476 156 476 c 2
 327 476 l 2
 346 476 363 469 376 456 c 2
 398 434 l 1
 420 456 l 2
 433 469 450 476 469 476 c 2
 640 476 l 2
 659 476 675 470 689 456 c 2
 733 412 l 2
 747 398 754 381 754 361 c 2
 754 206 l 1
640 299 m 1
 640 355 l 2
 640 361 638 365 634 369 c 2
 633 370 l 2
 629 374 624 376 619 376 c 2
 476 376 l 2
 471 376 466 374 462 370 c 2
 461 369 l 2
 457 365 455 361 455 355 c 2
 455 299 l 1
 640 299 l 1
341 156 m 2
 341 206 l 1
 177 206 l 2
 172 206 167 204 163 200 c 2
 162 199 l 2
 158 195 156 191 156 185 c 2
 156 121 l 2
 156 115 158 111 162 107 c 2
 163 106 l 2
 167 102 172 100 177 100 c 2
 285 100 l 2
 290 100 295 102 299 106 c 2
 335 142 l 2
 339 146 341 150 341 156 c 2
EndSplineSet
EndChar

StartChar: Aacute
Encoding: 231 231 161
Width: 511
Flags: MW
HStem: 0 100<160.5 348 191 245 269 348 348 350.5 191 369 269 269> 376 100<188.5 191 191 348>
VStem: 56 114<118 121 121 355>
LayerCount: 2
Fore
SplineSet
483 85 m 1
 418 20 l 2
 404 6 388 0 369 0 c 2
 269 0 l 1
 357 -88 l 1
 257 -188 l 1
 207 -138 l 1
 257 -88 l 1
 207 -38 l 1
 245 0 l 1
 170 0 l 2
 151 0 135 6 121 20 c 2
 77 64 l 2
 63 78 56 95 56 115 c 2
 56 361 l 2
 56 381 63 398 77 412 c 2
 121 456 l 2
 135 470 151 476 170 476 c 2
 369 476 l 2
 388 476 404 470 418 456 c 2
 483 391 l 1
 412 320 l 1
 362 370 l 2
 358 374 353 376 348 376 c 2
 191 376 l 2
 186 376 181 374 177 370 c 2
 176 369 l 2
 172 365 170 361 170 355 c 2
 170 121 l 2
 170 115 172 111 176 107 c 2
 177 106 l 2
 181 102 186 100 191 100 c 2
 348 100 l 2
 353 100 358 102 362 106 c 2
 412 156 l 1
 483 85 l 1
EndSplineSet
EndChar

StartChar: Edieresis
Encoding: 232 232 162
Width: 553
Flags: MW
HStem: 0 100<160.5 362 191 362 362 364.5 191 383> 206 93<170 383 170 497 170 383> 376 100<188.5 191 191 362>
VStem: 56 114<118 121 121 206 299 355> 383 114<0 85 299 355 355 358>
LayerCount: 2
Fore
SplineSet
371 528 m 1
 259 528 l 1
 120 667 l 1
 232 667 l 1
 371 528 l 1
497 206 m 1
 170 206 l 1
 170 121 l 2
 170 115 172 111 176 107 c 2
 177 106 l 2
 181 102 186 100 191 100 c 2
 362 100 l 2
 367 100 372 102 376 106 c 2
 426 156 l 1
 497 85 l 1
 432 20 l 2
 418 6 402 0 383 0 c 2
 170 0 l 2
 151 0 135 6 121 20 c 2
 77 64 l 2
 63 78 56 95 56 115 c 2
 56 361 l 2
 56 381 63 398 77 412 c 2
 121 456 l 2
 135 470 151 476 170 476 c 2
 383 476 l 2
 402 476 418 470 432 456 c 2
 476 412 l 2
 490 398 497 381 497 361 c 2
 497 206 l 1
383 299 m 1
 383 355 l 2
 383 361 381 365 377 369 c 2
 376 370 l 2
 372 374 367 376 362 376 c 2
 191 376 l 2
 186 376 181 374 177 370 c 2
 176 369 l 2
 172 365 170 361 170 355 c 2
 170 299 l 1
 383 299 l 1
EndSplineSet
EndChar

StartChar: Egrave
Encoding: 233 233 163
Width: 553
Flags: MW
HStem: 0 100<160.5 362 191 362 362 364.5 191 383> 206 93<170 383 170 497 170 383> 376 100<188.5 191 191 362>
VStem: 56 114<118 121 121 206 299 355> 383 114<0 85 299 355 355 358>
LayerCount: 2
Fore
SplineSet
447 667 m 1
 308 528 l 1
 192 528 l 1
 331 667 l 1
 447 667 l 1
497 206 m 1
 170 206 l 1
 170 121 l 2
 170 115 172 111 176 107 c 2
 177 106 l 2
 181 102 186 100 191 100 c 2
 362 100 l 2
 367 100 372 102 376 106 c 2
 426 156 l 1
 497 85 l 1
 432 20 l 2
 418 6 402 0 383 0 c 2
 170 0 l 2
 151 0 135 6 121 20 c 2
 77 64 l 2
 63 78 56 95 56 115 c 2
 56 361 l 2
 56 381 63 398 77 412 c 2
 121 456 l 2
 135 470 151 476 170 476 c 2
 383 476 l 2
 402 476 418 470 432 456 c 2
 476 412 l 2
 490 398 497 381 497 361 c 2
 497 206 l 1
383 299 m 1
 383 355 l 2
 383 361 381 365 377 369 c 2
 376 370 l 2
 372 374 367 376 362 376 c 2
 191 376 l 2
 186 376 181 374 177 370 c 2
 176 369 l 2
 172 365 170 361 170 355 c 2
 170 299 l 1
 383 299 l 1
EndSplineSet
EndChar

StartChar: Iacute
Encoding: 234 234 164
Width: 553
Flags: MW
HStem: 0 100<160.5 362 191 362 362 364.5 191 383> 206 93<170 383 170 497 170 383> 376 100<188.5 191 191 362>
VStem: 56 114<118 121 121 206 299 355> 383 114<0 85 299 355 355 358>
LayerCount: 2
Fore
SplineSet
462 535 m 1
 353 535 l 1
 276 612 l 1
 199 535 l 1
 90 535 l 1
 222 667 l 1
 330 667 l 1
 462 535 l 1
497 206 m 1
 170 206 l 1
 170 121 l 2
 170 115 172 111 176 107 c 2
 177 106 l 2
 181 102 186 100 191 100 c 2
 362 100 l 2
 367 100 372 102 376 106 c 2
 426 156 l 1
 497 85 l 1
 432 20 l 2
 418 6 402 0 383 0 c 2
 170 0 l 2
 151 0 135 6 121 20 c 2
 77 64 l 2
 63 78 56 95 56 115 c 2
 56 361 l 2
 56 381 63 398 77 412 c 2
 121 456 l 2
 135 470 151 476 170 476 c 2
 383 476 l 2
 402 476 418 470 432 456 c 2
 476 412 l 2
 490 398 497 381 497 361 c 2
 497 206 l 1
383 299 m 1
 383 355 l 2
 383 361 381 365 377 369 c 2
 376 370 l 2
 372 374 367 376 362 376 c 2
 191 376 l 2
 186 376 181 374 177 370 c 2
 176 369 l 2
 172 365 170 361 170 355 c 2
 170 299 l 1
 383 299 l 1
EndSplineSet
EndChar

StartChar: Icircumflex
Encoding: 235 235 165
Width: 553
Flags: MW
HStem: 0 100<160.5 362 191 362 362 364.5 191 383> 206 93<170 383 170 497 170 383> 376 100<188.5 191 191 362> 566 119<119 238 119 238 315 434 119 315>
VStem: 56 114<118 121 121 206 299 355> 315 119<566 685>
LayerCount: 2
Fore
SplineSet
434 566 m 1
 315 566 l 1
 315 685 l 1
 434 685 l 1
 434 566 l 1
238 566 m 1
 119 566 l 1
 119 685 l 1
 238 685 l 1
 238 566 l 1
497 206 m 1
 170 206 l 1
 170 121 l 2
 170 115 172 111 176 107 c 2
 177 106 l 2
 181 102 186 100 191 100 c 2
 362 100 l 2
 367 100 372 102 376 106 c 2
 426 156 l 1
 497 85 l 1
 432 20 l 2
 418 6 402 0 383 0 c 2
 170 0 l 2
 151 0 135 6 121 20 c 2
 77 64 l 2
 63 78 56 95 56 115 c 2
 56 361 l 2
 56 381 63 398 77 412 c 2
 121 456 l 2
 135 470 151 476 170 476 c 2
 383 476 l 2
 402 476 418 470 432 456 c 2
 476 412 l 2
 490 398 497 381 497 361 c 2
 497 206 l 1
383 299 m 1
 383 355 l 2
 383 361 381 365 377 369 c 2
 376 370 l 2
 372 374 367 376 362 376 c 2
 191 376 l 2
 186 376 181 374 177 370 c 2
 176 369 l 2
 172 365 170 361 170 355 c 2
 170 299 l 1
 383 299 l 1
EndSplineSet
EndChar

StartChar: Idieresis
Encoding: 236 236 166
Width: 310
Flags: MW
HStem: 376 291<4 85 -27 105 4 4>
VStem: -3 215
LayerCount: 2
Fore
SplineSet
224 528 m 1
 112 528 l 1
 -27 667 l 1
 85 667 l 1
 224 528 l 1
219 0 m 1
 105 0 l 1
 105 376 l 1
 4 376 l 1
 4 476 l 1
 219 476 l 1
 219 0 l 1
EndSplineSet
EndChar

StartChar: Igrave
Encoding: 237 237 167
Width: 310
Flags: MW
HStem: 376 100<4 105 4 219>
VStem: -3 215
LayerCount: 2
Fore
SplineSet
254 667 m 1
 115 528 l 1
 -1 528 l 1
 138 667 l 1
 254 667 l 1
219 0 m 1
 105 0 l 1
 105 376 l 1
 4 376 l 1
 4 476 l 1
 219 476 l 1
 219 0 l 1
EndSplineSet
EndChar

StartChar: Oacute
Encoding: 238 238 168
Width: 310
Flags: MW
HStem: 376 159<4 70 -39 105 4 4>
VStem: -3 215
LayerCount: 2
Fore
SplineSet
333 535 m 1
 224 535 l 1
 147 612 l 1
 70 535 l 1
 -39 535 l 1
 93 667 l 1
 201 667 l 1
 333 535 l 1
219 0 m 1
 105 0 l 1
 105 376 l 1
 4 376 l 1
 4 476 l 1
 219 476 l 1
 219 0 l 1
EndSplineSet
EndChar

StartChar: Ocircumflex
Encoding: 239 239 169
Width: 310
Flags: MW
HStem: 376 100<4 105 4 219> 566 119<-18 101 -18 101 178 297 -18 178>
VStem: -25 119 98 114
LayerCount: 2
Fore
SplineSet
297 566 m 1
 178 566 l 1
 178 685 l 1
 297 685 l 1
 297 566 l 1
101 566 m 1
 -18 566 l 1
 -18 685 l 1
 101 685 l 1
 101 566 l 1
219 0 m 1
 105 0 l 1
 105 376 l 1
 4 376 l 1
 4 476 l 1
 219 476 l 1
 219 0 l 1
EndSplineSet
EndChar

StartChar: Ograve
Encoding: 241 241 170
Width: 584
Flags: MW
HStem: 383 295<217.5 296 217.5 358>
VStem: 84 114<0 285 0 393 0 393> 386 114<0 355 355 358>
LayerCount: 2
Fore
SplineSet
488 602 m 1
 397 540 l 2
 384 531 372 526 357 526 c 0
 342 526 327 532 314 541 c 2
 230 599 l 2
 226 601 223 601 219 599 c 2
 138 542 l 1
 95 603 l 1
 185 664 l 2
 198 673 210 678 225 678 c 0
 240 678 255 672 268 663 c 2
 348 607 l 2
 351 605 355 604 359 607 c 2
 448 666 l 1
 488 602 l 1
500 0 m 1
 386 0 l 1
 386 355 l 2
 386 361 384 365 380 369 c 2
 372 377 l 2
 368 381 363 383 358 383 c 2
 296 383 l 2
 291 383 286 381 282 377 c 2
 204 299 l 2
 200 295 198 291 198 285 c 2
 198 0 l 1
 84 0 l 1
 84 393 l 1
 64 476 l 1
 172 476 l 1
 188 408 l 1
 236 456 l 2
 250 470 266 476 285 476 c 2
 386 476 l 2
 405 476 421 470 435 456 c 2
 479 412 l 2
 493 398 500 381 500 361 c 2
 500 0 l 1
EndSplineSet
EndChar

StartChar: Uacute
Encoding: 242 242 171
Width: 553
Flags: MW
HStem: 0 100<160.5 362 191 362 362 364.5 191 383> 376 291<188.5 191 191 223 111 362>
VStem: 56 114<118 121 121 355> 383 114<0 117 121 355 355 358>
LayerCount: 2
Fore
SplineSet
362 528 m 1
 250 528 l 1
 111 667 l 1
 223 667 l 1
 362 528 l 1
497 117 m 2
 497 97 490 78 476 64 c 2
 432 20 l 2
 418 6 402 0 383 0 c 2
 170 0 l 2
 151 0 135 6 121 20 c 2
 77 64 l 2
 63 78 56 95 56 115 c 2
 56 361 l 2
 56 381 63 398 77 412 c 2
 121 456 l 2
 135 470 151 476 170 476 c 2
 383 476 l 2
 402 476 418 470 432 456 c 2
 476 412 l 2
 490 398 497 381 497 361 c 2
 497 117 l 2
383 121 m 2
 383 355 l 2
 383 361 381 365 377 369 c 2
 376 370 l 2
 372 374 367 376 362 376 c 2
 191 376 l 2
 186 376 181 374 177 370 c 2
 176 369 l 2
 172 365 170 361 170 355 c 2
 170 121 l 2
 170 115 172 111 176 107 c 2
 177 106 l 2
 181 102 186 100 191 100 c 2
 362 100 l 2
 367 100 372 102 376 106 c 2
 377 107 l 2
 381 111 383 115 383 121 c 2
EndSplineSet
EndChar

StartChar: Ucircumflex
Encoding: 243 243 172
Width: 553
Flags: MW
HStem: 0 100<160.5 362 191 362 362 364.5 191 383> 376 291<188.5 443 327 362>
VStem: 56 114<118 121 121 355> 383 114<0 117 121 355 355 358>
LayerCount: 2
Fore
SplineSet
443 667 m 1
 304 528 l 1
 188 528 l 1
 327 667 l 1
 443 667 l 1
497 117 m 2
 497 97 490 78 476 64 c 2
 432 20 l 2
 418 6 402 0 383 0 c 2
 170 0 l 2
 151 0 135 6 121 20 c 2
 77 64 l 2
 63 78 56 95 56 115 c 2
 56 361 l 2
 56 381 63 398 77 412 c 2
 121 456 l 2
 135 470 151 476 170 476 c 2
 383 476 l 2
 402 476 418 470 432 456 c 2
 476 412 l 2
 490 398 497 381 497 361 c 2
 497 117 l 2
383 121 m 2
 383 355 l 2
 383 361 381 365 377 369 c 2
 376 370 l 2
 372 374 367 376 362 376 c 2
 191 376 l 2
 186 376 181 374 177 370 c 2
 176 369 l 2
 172 365 170 361 170 355 c 2
 170 121 l 2
 170 115 172 111 176 107 c 2
 177 106 l 2
 181 102 186 100 191 100 c 2
 362 100 l 2
 367 100 372 102 376 106 c 2
 377 107 l 2
 381 111 383 115 383 121 c 2
EndSplineSet
EndChar

StartChar: Ugrave
Encoding: 244 244 173
Width: 553
Flags: MW
HStem: 0 100<160.5 362 191 362 362 364.5 191 383> 376 159<188.5 191 191 199 353 362>
VStem: 56 114<118 121 121 355> 383 114<0 117 121 355 355 358>
LayerCount: 2
Fore
SplineSet
462 535 m 1
 353 535 l 1
 276 612 l 1
 199 535 l 1
 90 535 l 1
 222 667 l 1
 330 667 l 1
 462 535 l 1
497 117 m 2
 497 97 490 78 476 64 c 2
 432 20 l 2
 418 6 402 0 383 0 c 2
 170 0 l 2
 151 0 135 6 121 20 c 2
 77 64 l 2
 63 78 56 95 56 115 c 2
 56 361 l 2
 56 381 63 398 77 412 c 2
 121 456 l 2
 135 470 151 476 170 476 c 2
 383 476 l 2
 402 476 418 470 432 456 c 2
 476 412 l 2
 490 398 497 381 497 361 c 2
 497 117 l 2
383 121 m 2
 383 355 l 2
 383 361 381 365 377 369 c 2
 376 370 l 2
 372 374 367 376 362 376 c 2
 191 376 l 2
 186 376 181 374 177 370 c 2
 176 369 l 2
 172 365 170 361 170 355 c 2
 170 121 l 2
 170 115 172 111 176 107 c 2
 177 106 l 2
 181 102 186 100 191 100 c 2
 362 100 l 2
 367 100 372 102 376 106 c 2
 377 107 l 2
 381 111 383 115 383 121 c 2
EndSplineSet
EndChar

StartChar: dotlessi
Encoding: 245 245 174
Width: 553
Flags: MW
HStem: 0 100<160.5 362 191 362 362 364.5 191 383> 376 302<188.5 217.5 202.5 217.5 202.5 362>
VStem: 56 114<118 121 121 355> 383 114<0 117 121 355 355 358>
LayerCount: 2
Fore
SplineSet
473 602 m 1
 382 540 l 2
 369 531 357 526 342 526 c 0
 327 526 312 532 299 541 c 2
 215 599 l 2
 211 601 208 601 204 599 c 2
 123 542 l 1
 80 603 l 1
 170 664 l 2
 183 673 195 678 210 678 c 0
 225 678 240 672 253 663 c 2
 333 607 l 2
 336 605 340 604 344 607 c 2
 433 666 l 1
 473 602 l 1
497 117 m 2
 497 97 490 78 476 64 c 2
 432 20 l 2
 418 6 402 0 383 0 c 2
 170 0 l 2
 151 0 135 6 121 20 c 2
 77 64 l 2
 63 78 56 95 56 115 c 2
 56 361 l 2
 56 381 63 398 77 412 c 2
 121 456 l 2
 135 470 151 476 170 476 c 2
 383 476 l 2
 402 476 418 470 432 456 c 2
 476 412 l 2
 490 398 497 381 497 361 c 2
 497 117 l 2
383 121 m 2
 383 355 l 2
 383 361 381 365 377 369 c 2
 376 370 l 2
 372 374 367 376 362 376 c 2
 191 376 l 2
 186 376 181 374 177 370 c 2
 176 369 l 2
 172 365 170 361 170 355 c 2
 170 121 l 2
 170 115 172 111 176 107 c 2
 177 106 l 2
 181 102 186 100 191 100 c 2
 362 100 l 2
 367 100 372 102 376 106 c 2
 377 107 l 2
 381 111 383 115 383 121 c 2
EndSplineSet
EndChar

StartChar: circumflex
Encoding: 246 246 175
Width: 553
Flags: W
HStem: 0 100<160.5 362 191 362 362 364.5 191 383> 376 100<188.5 191 191 362> 566 119<119 238 119 238 315 434 119 315>
VStem: 56 114<118 121 121 355> 315 119<566 685>
LayerCount: 2
Fore
SplineSet
434 566 m 1
 315 566 l 1
 315 685 l 1
 434 685 l 1
 434 566 l 1
238 566 m 1
 119 566 l 1
 119 685 l 1
 238 685 l 1
 238 566 l 1
497 117 m 2
 497 97 490 78 476 64 c 2
 432 20 l 2
 418 6 402 0 383 0 c 2
 170 0 l 2
 151 0 135 6 121 20 c 2
 77 64 l 2
 63 78 56 95 56 115 c 2
 56 361 l 2
 56 381 63 398 77 412 c 2
 121 456 l 2
 135 470 151 476 170 476 c 2
 383 476 l 2
 402 476 418 470 432 456 c 2
 476 412 l 2
 490 398 497 381 497 361 c 2
 497 117 l 2
383 121 m 2
 383 355 l 2
 383 361 381 365 377 369 c 2
 376 370 l 2
 372 374 367 376 362 376 c 2
 191 376 l 2
 186 376 181 374 177 370 c 2
 176 369 l 2
 172 365 170 361 170 355 c 2
 170 121 l 2
 170 115 172 111 176 107 c 2
 177 106 l 2
 181 102 186 100 191 100 c 2
 362 100 l 2
 367 100 372 102 376 106 c 2
 377 107 l 2
 381 111 383 115 383 121 c 2
EndSplineSet
EndChar

StartChar: tilde
Encoding: 247 247 176
Width: 608
Flags: W
HStem: 0 128<240 368 240 368> 188 100<66 542 66 542> 348 128<240 368 240 368>
VStem: 240 128<0 128 348 476>
LayerCount: 2
Fore
SplineSet
368 348 m 1
 240 348 l 1
 240 476 l 1
 368 476 l 1
 368 348 l 1
542 188 m 1
 66 188 l 1
 66 288 l 1
 542 288 l 1
 542 188 l 1
368 0 m 1
 240 0 l 1
 240 128 l 1
 368 128 l 1
 368 0 l 1
EndSplineSet
EndChar

StartChar: macron
Encoding: 248 248 177
Width: 553
Flags: MW
HStem: 0 100<160.5 205 170 205 259 362 362 364.5 191 226> 376 100<188.5 191 191 295 170 362 170 348>
VStem: 56 114<118 121 121 355> 383 114<0 117 121 355 355 358>
LayerCount: 2
Fore
SplineSet
497 117 m 2
 497 97 490 78 476 64 c 2
 432 20 l 2
 418 6 402 0 383 0 c 2
 226 0 l 1
 196 -94 l 1
 148 -78 l 1
 173 0 l 1
 170 0 l 2
 151 0 135 6 121 20 c 2
 77 64 l 2
 63 78 56 95 56 115 c 2
 56 361 l 2
 56 381 63 398 77 412 c 2
 121 456 l 2
 135 470 151 476 170 476 c 2
 327 476 l 1
 358 572 l 1
 406 555 l 1
 380 476 l 1
 383 476 l 2
 402 476 418 470 432 456 c 2
 476 412 l 2
 490 398 497 381 497 361 c 2
 497 117 l 2
383 121 m 2
 383 355 l 2
 383 361 381 365 377 369 c 2
 376 370 l 2
 372 374 367 376 362 376 c 2
 348 376 l 1
 259 100 l 1
 362 100 l 2
 367 100 372 102 376 106 c 2
 377 107 l 2
 381 111 383 115 383 121 c 2
295 376 m 1
 191 376 l 2
 186 376 181 374 177 370 c 2
 176 369 l 2
 172 365 170 361 170 355 c 2
 170 121 l 2
 170 115 172 111 176 107 c 2
 177 106 l 2
 181 102 186 100 191 100 c 2
 205 100 l 1
 295 376 l 1
EndSplineSet
EndChar

StartChar: breve
Encoding: 249 249 178
Width: 584
Flags: MW
HStem: 0 93<188.5 288 226 288 288 290.5 226 299>
VStem: 84 114<118 121 121 476> 386 114<191 476 83 476>
LayerCount: 2
Fore
SplineSet
384 528 m 1
 272 528 l 1
 133 667 l 1
 245 667 l 1
 384 528 l 1
520 0 m 1
 412 0 l 1
 396 68 l 1
 348 20 l 2
 334 6 318 0 299 0 c 2
 198 0 l 2
 179 0 163 6 149 20 c 2
 105 64 l 2
 91 78 84 95 84 115 c 2
 84 476 l 1
 198 476 l 1
 198 121 l 2
 198 115 200 111 204 107 c 2
 212 99 l 2
 216 95 221 93 226 93 c 2
 288 93 l 2
 293 93 298 95 302 99 c 2
 380 177 l 2
 384 181 386 185 386 191 c 2
 386 476 l 1
 500 476 l 1
 500 83 l 1
 520 0 l 1
EndSplineSet
EndChar

StartChar: dotaccent
Encoding: 250 250 179
Width: 584
Flags: MW
HStem: 0 93<188.5 288 226 288 288 290.5 226 299>
VStem: 84 114<118 121 121 476> 386 114<191 476 83 476>
LayerCount: 2
Fore
SplineSet
455 667 m 1
 316 528 l 1
 200 528 l 1
 339 667 l 1
 455 667 l 1
520 0 m 1
 412 0 l 1
 396 68 l 1
 348 20 l 2
 334 6 318 0 299 0 c 2
 198 0 l 2
 179 0 163 6 149 20 c 2
 105 64 l 2
 91 78 84 95 84 115 c 2
 84 476 l 1
 198 476 l 1
 198 121 l 2
 198 115 200 111 204 107 c 2
 212 99 l 2
 216 95 221 93 226 93 c 2
 288 93 l 2
 293 93 298 95 302 99 c 2
 380 177 l 2
 384 181 386 185 386 191 c 2
 386 476 l 1
 500 476 l 1
 500 83 l 1
 520 0 l 1
EndSplineSet
EndChar

StartChar: ring
Encoding: 251 251 180
Width: 584
Flags: MW
HStem: 0 93<188.5 288 226 288 288 290.5 226 299>
VStem: 84 114<118 121 121 476> 386 114<191 476 83 476>
LayerCount: 2
Fore
SplineSet
478 535 m 1
 369 535 l 1
 292 612 l 1
 215 535 l 1
 106 535 l 1
 238 667 l 1
 346 667 l 1
 478 535 l 1
520 0 m 1
 412 0 l 1
 396 68 l 1
 348 20 l 2
 334 6 318 0 299 0 c 2
 198 0 l 2
 179 0 163 6 149 20 c 2
 105 64 l 2
 91 78 84 95 84 115 c 2
 84 476 l 1
 198 476 l 1
 198 121 l 2
 198 115 200 111 204 107 c 2
 212 99 l 2
 216 95 221 93 226 93 c 2
 288 93 l 2
 293 93 298 95 302 99 c 2
 380 177 l 2
 384 181 386 185 386 191 c 2
 386 476 l 1
 500 476 l 1
 500 83 l 1
 520 0 l 1
EndSplineSet
EndChar

StartChar: cedilla
Encoding: 252 252 181
Width: 584
Flags: W
HStem: 0 93<188.5 288 226 288 288 290.5 226 299> 566 119<134 253 134 253 330 449 134 330>
VStem: 84 114<118 121 121 476> 330 119<566 685>
LayerCount: 2
Fore
SplineSet
449 566 m 1
 330 566 l 1
 330 685 l 1
 449 685 l 1
 449 566 l 1
253 566 m 1
 134 566 l 1
 134 685 l 1
 253 685 l 1
 253 566 l 1
520 0 m 1
 412 0 l 1
 396 68 l 1
 348 20 l 2
 334 6 318 0 299 0 c 2
 198 0 l 2
 179 0 163 6 149 20 c 2
 105 64 l 2
 91 78 84 95 84 115 c 2
 84 476 l 1
 198 476 l 1
 198 121 l 2
 198 115 200 111 204 107 c 2
 212 99 l 2
 216 95 221 93 226 93 c 2
 288 93 l 2
 293 93 298 95 302 99 c 2
 380 177 l 2
 384 181 386 185 386 191 c 2
 386 476 l 1
 500 476 l 1
 500 83 l 1
 520 0 l 1
EndSplineSet
EndChar

StartChar: hungarumlaut
Encoding: 253 253 182
Width: 476
Flags: HMW
LayerCount: 2
Fore
SplineSet
419 667 m 1
 280 528 l 1
 164 528 l 1
 303 667 l 1
 419 667 l 1
455 476 m 1
 240 -190 l 1
 127 -190 l 1
 174 -16 l 1
 14 476 l 1
 132 476 l 1
 236 130 l 1
 341 476 l 1
 455 476 l 1
EndSplineSet
EndChar

StartChar: ogonek
Encoding: 254 254 183
Width: 581
Flags: W
HStem: 0 100<275.5 390 289 390 390 392.5 289 411> 376 100<286.5 289 289 390>
VStem: 84 114<-191 58 188 191 191 285 418 667> 411 114<0 115 121 355 355 358>
LayerCount: 2
Fore
SplineSet
525 115 m 2
 525 95 518 78 504 64 c 2
 460 20 l 2
 446 6 430 0 411 0 c 2
 285 0 l 2
 266 0 250 6 236 20 c 2
 198 58 l 1
 198 -191 l 1
 84 -191 l 1
 84 667 l 1
 198 667 l 1
 198 418 l 1
 236 456 l 2
 250 470 266 476 285 476 c 2
 411 476 l 2
 430 476 446 470 460 456 c 2
 504 412 l 2
 518 398 525 381 525 361 c 2
 525 115 l 2
411 121 m 2
 411 355 l 2
 411 361 409 365 405 369 c 2
 404 370 l 2
 400 374 395 376 390 376 c 2
 289 376 l 2
 284 376 279 374 275 370 c 2
 204 299 l 2
 200 295 198 291 198 285 c 2
 198 191 l 2
 198 185 200 181 204 177 c 2
 275 106 l 2
 279 102 284 100 289 100 c 2
 390 100 l 2
 395 100 400 102 404 106 c 2
 405 107 l 2
 409 111 411 115 411 121 c 2
EndSplineSet
EndChar

StartChar: caron
Encoding: 255 255 184
Width: 476
Flags: W
HStem: 566 119<77 196 77 196 273 392 77 273>
VStem: 77 119<566 685> 273 119<566 685>
LayerCount: 2
Fore
SplineSet
392 566 m 1
 273 566 l 1
 273 685 l 1
 392 685 l 1
 392 566 l 1
196 566 m 1
 77 566 l 1
 77 685 l 1
 196 685 l 1
 196 566 l 1
455 476 m 1
 240 -190 l 1
 127 -190 l 1
 174 -16 l 1
 14 476 l 1
 132 476 l 1
 236 130 l 1
 341 476 l 1
 455 476 l 1
EndSplineSet
EndChar

StartChar: ellipsis
Encoding: 8230 8230 185
Width: 1000
Flags: W
HStem: 0 128<103 231 103 231 436 564 769 897>
VStem: 103 128<0 128> 436 128<0 128> 769 128<0 128>
LayerCount: 2
Fore
SplineSet
897 0 m 1
 769 0 l 1
 769 128 l 1
 897 128 l 1
 897 0 l 1
564 0 m 1
 436 0 l 1
 436 128 l 1
 564 128 l 1
 564 0 l 1
231 0 m 1
 103 0 l 1
 103 128 l 1
 231 128 l 1
 231 0 l 1
EndSplineSet
EndChar

StartChar: OE
Encoding: 338 338 186
Width: 865
Flags: W
HStem: 0 114<227.5 410 263 410 530 781> 277 114<530 781 530 781> 553 114<260 263 263 410 530 781 530 530>
VStem: 84 120<170.5 173 173 494> 410 120<114 277 391 553>
LayerCount: 2
Fore
SplineSet
781 0 m 1
 237 0 l 2
 218 0 201 7 187 21 c 2
 105 103 l 2
 91 117 84 134 84 153 c 2
 84 514 l 2
 84 533 91 550 105 564 c 2
 187 646 l 2
 201 660 218 667 237 667 c 2
 781 667 l 1
 781 553 l 1
 530 553 l 1
 530 391 l 1
 781 391 l 1
 781 277 l 1
 530 277 l 1
 530 114 l 1
 781 114 l 1
 781 0 l 1
410 114 m 1
 410 553 l 1
 263 553 l 2
 257 553 253 551 249 547 c 2
 210 508 l 2
 206 504 204 499 204 494 c 2
 204 173 l 2
 204 168 206 163 210 159 c 2
 249 120 l 2
 253 116 257 114 263 114 c 2
 410 114 l 1
EndSplineSet
EndChar

StartChar: oe
Encoding: 339 339 187
Width: 824
Flags: W
HStem: 0 100<160.5 334 191 334 334 336.5 191 341 490 633 633 635.5> 206 93<469 654 469 768 469 654> 376 100<188.5 191 191 334 487.5 490 490 633>
VStem: 56 114<118 121 121 355> 355 114<121 206 299 355> 654 114<0 85 299 355 355 358>
LayerCount: 2
Fore
SplineSet
768 206 m 1
 469 206 l 1
 469 121 l 2
 469 115 471 111 475 107 c 2
 476 106 l 2
 480 102 485 100 490 100 c 2
 633 100 l 2
 638 100 643 102 647 106 c 2
 697 156 l 1
 768 85 l 1
 703 20 l 2
 689 6 673 0 654 0 c 2
 483 0 l 2
 464 0 448 6 434 20 c 2
 412 42 l 1
 390 20 l 2
 376 6 360 0 341 0 c 2
 170 0 l 2
 151 0 135 6 121 20 c 2
 77 64 l 2
 63 78 56 95 56 115 c 2
 56 361 l 2
 56 381 63 398 77 412 c 2
 121 456 l 2
 135 470 151 476 170 476 c 2
 341 476 l 2
 360 476 376 470 390 456 c 2
 412 434 l 1
 434 456 l 2
 448 470 464 476 483 476 c 2
 654 476 l 2
 673 476 689 470 703 456 c 2
 747 412 l 2
 761 398 768 381 768 361 c 2
 768 206 l 1
654 299 m 1
 654 355 l 2
 654 361 652 365 648 369 c 2
 647 370 l 2
 643 374 638 376 633 376 c 2
 490 376 l 2
 485 376 480 374 476 370 c 2
 475 369 l 2
 471 365 469 361 469 355 c 2
 469 299 l 1
 654 299 l 1
355 121 m 2
 355 355 l 2
 355 361 353 365 349 369 c 2
 348 370 l 2
 344 374 339 376 334 376 c 2
 191 376 l 2
 186 376 181 374 177 370 c 2
 176 369 l 2
 172 365 170 361 170 355 c 2
 170 121 l 2
 170 115 172 111 176 107 c 2
 177 106 l 2
 181 102 186 100 191 100 c 2
 334 100 l 2
 339 100 344 102 348 106 c 2
 349 107 l 2
 353 111 355 115 355 121 c 2
EndSplineSet
EndChar

StartChar: Dcroat
Encoding: 272 272 188
Width: 703
Flags: W
HStem: 0 114<232 440 440 443 232 466> 277 114<20 112 20 112 232 365> 553 114<232 440 232 232>
VStem: 112 120<114 277 114 277 114 277 391 553> 499 120<173 494 494 496.5>
LayerCount: 2
Fore
SplineSet
619 153 m 2
 619 134 612 117 598 103 c 2
 516 21 l 2
 502 7 485 0 466 0 c 2
 112 0 l 1
 112 277 l 1
 20 277 l 1
 20 391 l 1
 112 391 l 1
 112 667 l 1
 466 667 l 2
 485 667 502 660 516 646 c 2
 598 564 l 2
 612 550 619 533 619 514 c 2
 619 153 l 2
499 173 m 2
 499 494 l 2
 499 499 497 504 493 508 c 2
 454 547 l 2
 450 551 446 553 440 553 c 2
 232 553 l 1
 232 391 l 1
 365 391 l 1
 365 277 l 1
 232 277 l 1
 232 114 l 1
 440 114 l 2
 446 114 450 116 454 120 c 2
 493 159 l 2
 497 163 499 168 499 173 c 2
EndSplineSet
EndChar

StartChar: dcroat
Encoding: 273 273 189
Width: 553
Flags: W
HStem: 0 100<160.5 362 191 362 362 364.5 191 383> 348 100<188.5 191 191 277 170 362>
VStem: 56 114<118 121 121 327> 383 114<0 117 121 327 327 330>
LayerCount: 2
Fore
SplineSet
497 117 m 2
 497 97 490 78 476 64 c 2
 432 20 l 2
 418 6 402 0 383 0 c 2
 170 0 l 2
 151 0 135 6 121 20 c 2
 77 64 l 2
 63 78 56 95 56 115 c 2
 56 333 l 2
 56 353 63 370 77 384 c 2
 121 428 l 2
 135 442 151 448 170 448 c 2
 277 448 l 1
 192 533 l 1
 154 495 l 1
 114 535 l 1
 152 573 l 1
 100 625 l 1
 168 693 l 1
 220 641 l 1
 258 679 l 1
 298 639 l 1
 260 601 l 1
 476 384 l 2
 490 370 497 353 497 333 c 2
 497 117 l 2
383 121 m 2
 383 327 l 2
 383 333 381 337 377 341 c 2
 376 342 l 2
 372 346 367 348 362 348 c 2
 191 348 l 2
 186 348 181 346 177 342 c 2
 176 341 l 2
 172 337 170 333 170 327 c 2
 170 121 l 2
 170 115 172 111 176 107 c 2
 177 106 l 2
 181 102 186 100 191 100 c 2
 362 100 l 2
 367 100 372 102 376 106 c 2
 377 107 l 2
 381 111 383 115 383 121 c 2
EndSplineSet
EndChar

StartChar: Lslash
Encoding: 321 321 190
Width: 580
Flags: W
HStem: 0 114<232 559 232 559>
VStem: 112 120<114 245 245 245 325 365 445 667>
LayerCount: 2
Fore
SplineSet
559 0 m 1
 112 0 l 1
 112 245 l 1
 59 192 l 1
 19 232 l 1
 112 325 l 1
 112 667 l 1
 232 667 l 1
 232 445 l 1
 285 498 l 1
 325 458 l 1
 232 365 l 1
 232 114 l 1
 559 114 l 1
 559 0 l 1
EndSplineSet
EndChar

StartChar: lslash
Encoding: 322 322 191
Width: 303
Flags: W
HStem: 567 100<-3 98 -3 212>
VStem: -3 215<567 667>
LayerCount: 2
Fore
SplineSet
303 451 m 1
 212 360 l 1
 212 0 l 1
 98 0 l 1
 98 246 l 1
 51 199 l 1
 11 239 l 1
 98 326 l 1
 98 567 l 1
 -3 567 l 1
 -3 667 l 1
 212 667 l 1
 212 439 l 1
 263 491 l 1
 303 451 l 1
EndSplineSet
EndChar

StartChar: Scaron
Encoding: 352 352 192
Width: 707
Flags: W
HStem: 0 114<195.5 458 231 458 458 461 231 484> 553 319<246 249 249 276 430 476>
VStem: 70 120<425 430 430 494 425 514 425 523.5> 517 120<173 237 237 242>
LayerCount: 2
Fore
SplineSet
539 872 m 1
 407 740 l 1
 299 740 l 1
 167 872 l 1
 276 872 l 1
 353 795 l 1
 430 872 l 1
 539 872 l 1
637 153 m 2
 637 134 630 117 616 103 c 2
 534 21 l 2
 520 7 503 0 484 0 c 2
 205 0 l 2
 186 0 169 7 155 21 c 2
 70 106 l 1
 150 187 l 1
 217 120 l 2
 221 116 225 114 231 114 c 2
 458 114 l 2
 464 114 468 116 472 120 c 2
 511 159 l 2
 515 163 517 168 517 173 c 2
 517 237 l 2
 517 247 508 256 498 257 c 2
 139 305 l 2
 100 310 70 345 70 383 c 2
 70 514 l 2
 70 533 77 550 91 564 c 2
 173 646 l 2
 187 660 204 667 223 667 c 2
 502 667 l 2
 521 667 538 660 552 646 c 2
 637 561 l 1
 557 480 l 1
 490 547 l 2
 486 551 482 553 476 553 c 2
 249 553 l 2
 243 553 239 551 235 547 c 2
 196 508 l 2
 192 504 190 499 190 494 c 2
 190 430 l 2
 190 420 198 411 208 410 c 2
 568 362 l 2
 607 357 637 322 637 284 c 2
 637 153 l 2
EndSplineSet
EndChar

StartChar: scaron
Encoding: 353 353 193
Width: 525
Flags: W
HStem: 0 100<153.5 333 184 333 333 335.5 184 355> 376 100<188.5 191 191 341>
VStem: 56 114<78 106 316 321 321 355> 354 115<121 161 161 166>
LayerCount: 2
Fore
SplineSet
449 667 m 1
 317 535 l 1
 209 535 l 1
 77 667 l 1
 186 667 l 1
 263 590 l 1
 340 667 l 1
 449 667 l 1
469 115 m 2
 469 95 462 78 448 64 c 2
 404 20 l 2
 390 6 374 0 355 0 c 2
 163 0 l 2
 144 0 128 6 114 20 c 2
 56 78 l 1
 127 149 l 1
 170 106 l 2
 174 102 179 100 184 100 c 2
 333 100 l 2
 338 100 343 102 347 106 c 2
 348 107 l 2
 352 111 354 115 354 121 c 2
 354 161 l 2
 354 171 346 180 336 181 c 2
 118 210 l 2
 85 214 56 245 56 279 c 2
 56 361 l 2
 56 381 63 398 77 412 c 2
 121 456 l 2
 135 470 151 476 170 476 c 2
 362 476 l 2
 381 476 397 470 411 456 c 2
 469 398 l 1
 398 327 l 1
 355 370 l 2
 351 374 346 376 341 376 c 2
 191 376 l 2
 186 376 181 374 177 370 c 2
 176 369 l 2
 172 365 170 361 170 355 c 2
 170 321 l 2
 170 311 178 302 188 301 c 2
 407 272 l 2
 440 268 469 237 469 203 c 2
 469 115 l 2
EndSplineSet
EndChar

StartChar: Euro
Encoding: 8364 8364 194
Width: 608
Flags: W
HStem: 0 114<255.5 399 291 399 399 402 291 425> 247 50<42 112 42 112 232 345> 372 50<42 112 42 112 232 345> 553 114<288 291 291 399>
VStem: 42 303<247 297 247 297 372 422 247 422>
LayerCount: 2
Fore
SplineSet
562 108 m 1
 475 21 l 2
 461 7 444 0 425 0 c 2
 265 0 l 2
 246 0 229 7 215 21 c 2
 133 103 l 2
 119 117 112 134 112 153 c 2
 112 247 l 1
 42 247 l 1
 42 297 l 1
 112 297 l 1
 112 372 l 1
 42 372 l 1
 42 422 l 1
 112 422 l 1
 112 514 l 2
 112 533 119 550 133 564 c 2
 215 646 l 2
 229 660 246 667 265 667 c 2
 425 667 l 2
 444 667 461 660 475 646 c 2
 562 559 l 1
 481 479 l 1
 413 547 l 2
 409 551 405 553 399 553 c 2
 291 553 l 2
 285 553 281 551 277 547 c 2
 238 508 l 2
 234 504 232 499 232 494 c 2
 232 422 l 1
 345 422 l 1
 345 372 l 1
 232 372 l 1
 232 297 l 1
 345 297 l 1
 345 247 l 1
 232 247 l 1
 232 173 l 2
 232 168 234 163 238 159 c 2
 277 120 l 2
 281 116 285 114 291 114 c 2
 399 114 l 2
 405 114 409 116 413 120 c 2
 481 188 l 1
 562 108 l 1
EndSplineSet
EndChar

StartChar: guilsinglleft
Encoding: 8249 8249 195
Width: 381
Flags: HW
LayerCount: 2
Fore
SplineSet
297 124 m 1
 226 53 l 1
 114 165 l 2
 82 197 84 238 84 238 c 1
 84 238 82 279 114 311 c 2
 226 423 l 1
 297 352 l 1
 197 252 l 2
 189 244 189 232 197 224 c 2
 297 124 l 1
EndSplineSet
EndChar

StartChar: guilsinglright
Encoding: 8250 8250 196
Width: 381
Flags: HW
LayerCount: 2
Fore
SplineSet
297 238 m 1
 297 238 299 197 267 165 c 2
 155 53 l 1
 84 124 l 1
 184 224 l 2
 192 232 192 244 184 252 c 2
 84 352 l 1
 155 423 l 1
 267 311 l 2
 299 279 297 238 297 238 c 1
EndSplineSet
EndChar

StartChar: uni24BB
Encoding: 9403 9403 197
Width: 828
Flags: W
HStem: 0 100<193 193 193 201 193 627> 246 94<254 326 254 326 426 571> 417 94<444.5 447 447 571> 567 100<193 627 635 635>
VStem: 84 114 254 313 630 114
LayerCount: 2
Fore
SplineSet
744 117 m 2
 744 98 739 83 725 69 c 2
 678 22 l 2
 664 8 647 0 627 0 c 2
 201 0 l 2
 181 0 164 8 150 22 c 2
 103 69 l 2
 89 83 84 98 84 117 c 2
 84 550 l 2
 84 569 89 584 103 598 c 2
 150 645 l 2
 164 659 181 667 201 667 c 2
 627 667 l 2
 647 667 664 659 678 645 c 2
 725 598 l 2
 739 584 744 569 744 550 c 2
 744 117 l 2
644 118 m 2
 644 549 l 2
 644 554 643 559 639 563 c 2
 635 567 l 2
 631 571 626 573 620 573 c 2
 208 573 l 2
 202 573 197 571 193 567 c 2
 189 563 l 2
 185 559 184 554 184 549 c 2
 184 118 l 2
 184 113 185 108 189 104 c 2
 193 100 l 2
 197 96 202 94 208 94 c 2
 326 94 l 1
 326 246 l 1
 254 246 l 1
 254 340 l 1
 326 340 l 1
 326 403 l 2
 326 423 333 440 347 454 c 2
 384 491 l 2
 398 505 414 511 433 511 c 2
 571 511 l 1
 571 417 l 1
 447 417 l 2
 442 417 437 415 433 411 c 2
 432 410 l 2
 428 406 426 402 426 396 c 2
 426 340 l 1
 571 340 l 1
 571 246 l 1
 426 246 l 1
 426 94 l 1
 620 94 l 2
 626 94 631 96 635 100 c 2
 639 104 l 2
 643 108 644 113 644 118 c 2
EndSplineSet
EndChar

StartChar: dotlessi
Encoding: 305 305 198
Width: 310
Flags: W
HStem: 376 100<4 105 4 219>
VStem: -3 215
LayerCount: 2
Fore
SplineSet
219 0 m 1
 105 0 l 1
 105 376 l 1
 4 376 l 1
 4 476 l 1
 219 476 l 1
 219 0 l 1
EndSplineSet
EndChar

StartChar: circumflex
Encoding: 710 710 199
Width: 465
Flags: HW
LayerCount: 2
Fore
SplineSet
419 535 m 1
 310 535 l 1
 233 612 l 1
 156 535 l 1
 47 535 l 1
 179 667 l 1
 287 667 l 1
 419 535 l 1
EndSplineSet
EndChar

StartChar: breve
Encoding: 728 728 200
Width: 465
Flags: W
HStem: 514 70<180.5 266 200 266 266 268 200 279>
VStem: 87 77<615 617 617 667 615 667> 302 77<617 667 602 667>
LayerCount: 2
Fore
SplineSet
379 609 m 2
 379 595 373 586 364 577 c 2
 313 526 l 2
 303 516 292 514 279 514 c 2
 187 514 l 2
 174 514 163 516 153 526 c 2
 102 577 l 2
 93 586 87 595 87 609 c 2
 87 667 l 1
 164 667 l 1
 164 617 l 2
 164 613 166 611 169 608 c 2
 190 587 l 2
 193 584 196 584 200 584 c 2
 266 584 l 2
 270 584 273 584 276 587 c 2
 297 608 l 2
 300 611 302 613 302 617 c 2
 302 667 l 1
 379 667 l 1
 379 609 l 2
EndSplineSet
EndChar

StartChar: uni02C9
Encoding: 713 713 201
Width: 465
Flags: W
HStem: 563 77<79 387 79 387>
VStem: 79 308<563 640 563 640>
LayerCount: 2
Fore
SplineSet
387 563 m 1
 79 563 l 1
 79 640 l 1
 387 640 l 1
 387 563 l 1
EndSplineSet
EndChar

StartChar: dotaccent
Encoding: 729 729 202
Width: 465
Flags: W
HStem: 561 128<168 296 168 296>
VStem: 168 128<561 689>
LayerCount: 2
Fore
SplineSet
296 561 m 1
 168 561 l 1
 168 689 l 1
 296 689 l 1
 296 561 l 1
EndSplineSet
EndChar

StartChar: ring
Encoding: 730 730 203
Width: 465
Flags: W
HStem: 509 63<168.5 255 210 255 255 259.5 210 277> 672 63<205 210 210 255>
VStem: 121 70<586 591 591 653 586 669> 274 70<591 653 653 658>
LayerCount: 2
Fore
SplineSet
344 575 m 2
 344 538 314 509 277 509 c 2
 187 509 l 2
 150 509 121 538 121 575 c 2
 121 669 l 2
 121 706 150 735 187 735 c 2
 277 735 l 2
 314 735 344 706 344 669 c 2
 344 575 l 2
274 591 m 2
 274 653 l 2
 274 663 265 672 255 672 c 2
 210 672 l 2
 200 672 191 663 191 653 c 2
 191 591 l 2
 191 581 201 572 210 572 c 2
 255 572 l 2
 264 572 274 581 274 591 c 2
EndSplineSet
EndChar

StartChar: ogonek
Encoding: 731 731 204
Width: 465
Flags: HW
LayerCount: 2
Fore
SplineSet
307 -38 m 1
 257 -88 l 1
 307 -138 l 1
 257 -188 l 1
 157 -88 l 1
 257 12 l 1
 307 -38 l 1
EndSplineSet
EndChar

StartChar: hungarumlaut
Encoding: 733 733 205
Width: 465
Flags: W
HStem: 514 153<2 271 194 271 155 310 194 194>
LayerCount: 2
Fore
SplineSet
463 667 m 1
 310 514 l 1
 194 514 l 1
 347 667 l 1
 463 667 l 1
271 667 m 1
 118 514 l 1
 2 514 l 1
 155 667 l 1
 271 667 l 1
EndSplineSet
EndChar

StartChar: Zcaron
Encoding: 381 381 206
Width: 647
Flags: W
HStem: 0 114<238 577 238 577> 553 319<137 246 400 409 70 246>
LayerCount: 2
Fore
SplineSet
509 872 m 1
 377 740 l 1
 269 740 l 1
 137 872 l 1
 246 872 l 1
 323 795 l 1
 400 872 l 1
 509 872 l 1
577 0 m 1
 70 0 l 1
 70 77 l 1
 409 553 l 1
 70 553 l 1
 70 667 l 1
 577 667 l 1
 577 590 l 1
 238 114 l 1
 577 114 l 1
 577 0 l 1
EndSplineSet
EndChar

StartChar: zcaron
Encoding: 382 382 207
Width: 481
Flags: W
HStem: 0 100<198 446 198 446> 376 291<55 164 55 283 35 164>
LayerCount: 2
Fore
SplineSet
427 667 m 1
 295 535 l 1
 187 535 l 1
 55 667 l 1
 164 667 l 1
 241 590 l 1
 318 667 l 1
 427 667 l 1
446 0 m 1
 35 0 l 1
 35 70 l 1
 283 376 l 1
 35 376 l 1
 35 476 l 1
 446 476 l 1
 446 406 l 1
 198 100 l 1
 446 100 l 1
 446 0 l 1
EndSplineSet
EndChar

StartChar: lessequal
Encoding: 8804 8804 208
Width: 608
Flags: W
HStem: -100 100<140 468 140 468> 459 20<372 372>
VStem: 140 328<-100 0 -100 0>
LayerCount: 2
Fore
SplineSet
447 127 m 1
 372 53 l 1
 160 266 l 1
 372 479 l 1
 447 405 l 1
 308 266 l 1
 447 127 l 1
468 -100 m 1
 140 -100 l 1
 140 0 l 1
 468 0 l 1
 468 -100 l 1
EndSplineSet
EndChar

StartChar: greaterequal
Encoding: 8805 8805 209
Width: 608
Flags: W
HStem: -100 100<140 468 140 468> 459 20<236 236>
VStem: 140 328<-100 0 -100 0>
LayerCount: 2
Fore
SplineSet
448 266 m 1
 236 53 l 1
 161 127 l 1
 300 266 l 1
 161 405 l 1
 236 479 l 1
 448 266 l 1
468 -100 m 1
 140 -100 l 1
 140 0 l 1
 468 0 l 1
 468 -100 l 1
EndSplineSet
EndChar

StartChar: notequal
Encoding: 8800 8800 210
Width: 608
Flags: W
HStem: 89 100<66 120 66 221 190 221 290 542 190 190> 289 100<66 321 66 421 389 389 389 421 489 542> 456 20<508 508>
LayerCount: 2
Fore
SplineSet
542 89 m 1
 190 89 l 1
 101 0 l 1
 66 35 l 1
 120 89 l 1
 66 89 l 1
 66 189 l 1
 221 189 l 1
 321 289 l 1
 66 289 l 1
 66 389 l 1
 421 389 l 1
 508 476 l 1
 542 442 l 1
 489 389 l 1
 542 389 l 1
 542 289 l 1
 389 289 l 1
 290 189 l 1
 542 189 l 1
 542 89 l 1
EndSplineSet
EndChar

StartChar: approxequal
Encoding: 8776 8776 211
Width: 608
Flags: HW
LayerCount: 2
Fore
SplineSet
565 396 m 1
 412 243 l 2
 407 238 394 231 379 231 c 0
 363 231 351 238 345 244 c 2
 245 344 l 2
 239 350 231 350 224 344 c 2
 105 225 l 1
 42 288 l 1
 203 449 l 2
 208 454 221 461 236 461 c 0
 252 461 264 454 270 448 c 2
 370 348 l 2
 376 342 384 341 391 348 c 2
 502 459 l 1
 565 396 l 1
565 190 m 1
 404 29 l 2
 399 24 386 17 371 17 c 0
 355 17 343 24 337 30 c 2
 237 130 l 2
 231 136 223 136 216 130 c 2
 105 19 l 1
 42 82 l 1
 195 235 l 2
 200 240 213 247 228 247 c 0
 244 247 256 240 262 234 c 2
 362 134 l 2
 368 128 376 128 383 134 c 2
 502 253 l 1
 565 190 l 1
EndSplineSet
EndChar

StartChar: quoteleft
Encoding: 8216 8216 212
Width: 304
Flags: W
VStem: 95 114<397 582 397 583 397 594>
LayerCount: 2
Fore
SplineSet
246 626 m 1
 216 596 l 2
 212 592 209 588 209 582 c 2
 209 397 l 1
 95 397 l 1
 95 583 l 2
 95 605 100 618 115 633 c 2
 177 695 l 1
 246 626 l 1
EndSplineSet
EndChar

StartChar: quotedblleft
Encoding: 8220 8220 213
Width: 546
Flags: W
VStem: 95 114<397 582 397 583 397 594> 337 114<397 582 397 583 397 594>
LayerCount: 2
Fore
SplineSet
488 626 m 1
 458 596 l 2
 454 592 451 588 451 582 c 2
 451 397 l 1
 337 397 l 1
 337 583 l 2
 337 605 342 618 357 633 c 2
 419 695 l 1
 488 626 l 1
246 626 m 1
 216 596 l 2
 212 592 209 588 209 582 c 2
 209 397 l 1
 95 397 l 1
 95 583 l 2
 95 605 100 618 115 633 c 2
 177 695 l 1
 246 626 l 1
EndSplineSet
EndChar

StartChar: quotedblright
Encoding: 8221 8221 214
Width: 546
Flags: W
VStem: 95 114<482 667> 337 114<482 667>
LayerCount: 2
Fore
SplineSet
451 481 m 2
 451 459 446 446 431 431 c 2
 369 369 l 1
 300 438 l 1
 330 468 l 2
 334 472 337 476 337 482 c 2
 337 667 l 1
 451 667 l 1
 451 481 l 2
209 481 m 2
 209 459 204 446 189 431 c 2
 127 369 l 1
 58 438 l 1
 88 468 l 2
 92 472 95 476 95 482 c 2
 95 667 l 1
 209 667 l 1
 209 481 l 2
EndSplineSet
EndChar

StartChar: quoteright
Encoding: 8217 8217 215
Width: 304
Flags: W
VStem: 95 114<482 667>
LayerCount: 2
Fore
SplineSet
209 481 m 2
 209 459 204 446 189 431 c 2
 127 369 l 1
 58 438 l 1
 88 468 l 2
 92 472 95 476 95 482 c 2
 95 667 l 1
 209 667 l 1
 209 481 l 2
EndSplineSet
EndChar

StartChar: tilde
Encoding: 732 732 216
Width: 465
Flags: HW
LayerCount: 2
Fore
SplineSet
429 602 m 1
 338 540 l 2
 325 531 313 526 298 526 c 0
 283 526 268 532 255 541 c 2
 171 599 l 2
 167 601 164 601 160 599 c 2
 79 542 l 1
 36 603 l 1
 126 664 l 2
 139 673 151 678 166 678 c 0
 181 678 196 672 209 663 c 2
 289 607 l 2
 292 605 296 604 300 607 c 2
 389 666 l 1
 429 602 l 1
EndSplineSet
EndChar

StartChar: trademark
Encoding: 8482 8482 217
Width: 968
Flags: W
HStem: 590 77<7 136 7 349 220 349 220 220>
VStem: 136 84<234 590 234 590> 401 84<234 530 234 667> 772 84<234 530 530 530>
LayerCount: 2
Fore
SplineSet
856 234 m 1
 772 234 l 1
 772 530 l 1
 673 234 l 1
 584 234 l 1
 485 530 l 1
 485 234 l 1
 401 234 l 1
 401 667 l 1
 518 667 l 1
 629 340 l 1
 739 667 l 1
 856 667 l 1
 856 234 l 1
349 590 m 1
 220 590 l 1
 220 234 l 1
 136 234 l 1
 136 590 l 1
 7 590 l 1
 7 667 l 1
 349 667 l 1
 349 590 l 1
EndSplineSet
EndChar

StartChar: quotesinglbase
Encoding: 8218 8218 218
Width: 304
Flags: W
VStem: 95 114<-57 128>
LayerCount: 2
Fore
SplineSet
209 -58 m 2
 209 -80 204 -93 189 -108 c 2
 127 -170 l 1
 58 -101 l 1
 88 -71 l 2
 92 -67 95 -63 95 -57 c 2
 95 128 l 1
 209 128 l 1
 209 -58 l 2
EndSplineSet
EndChar

StartChar: quotedblbase
Encoding: 8222 8222 219
Width: 546
Flags: W
VStem: 95 114<-57 128> 337 114<-57 128>
LayerCount: 2
Fore
SplineSet
451 -58 m 2
 451 -80 446 -93 431 -108 c 2
 369 -170 l 1
 300 -101 l 1
 330 -71 l 2
 334 -67 337 -63 337 -57 c 2
 337 128 l 1
 451 128 l 1
 451 -58 l 2
209 -58 m 2
 209 -80 204 -93 189 -108 c 2
 127 -170 l 1
 58 -101 l 1
 88 -71 l 2
 92 -67 95 -63 95 -57 c 2
 95 128 l 1
 209 128 l 1
 209 -58 l 2
EndSplineSet
EndChar

StartChar: ij
Encoding: 307 307 220
Width: 625
Flags: W
HStem: -190 100<259 399 399 401.5 259 427 259 399> 376 100<4 105 4 219 319 420> 561 128<98 226 98 226 413 541>
VStem: -3 215 252 275
LayerCount: 2
Fore
SplineSet
541 561 m 1
 413 561 l 1
 413 689 l 1
 541 689 l 1
 541 561 l 1
226 561 m 1
 98 561 l 1
 98 689 l 1
 226 689 l 1
 226 561 l 1
534 -82 m 2
 534 -102 527 -119 513 -133 c 2
 476 -170 l 2
 462 -184 446 -190 427 -190 c 2
 259 -190 l 1
 259 -90 l 1
 399 -90 l 2
 404 -90 409 -88 413 -84 c 2
 414 -83 l 2
 418 -79 420 -75 420 -69 c 2
 420 376 l 1
 319 376 l 1
 319 476 l 1
 534 476 l 1
 534 -82 l 2
219 0 m 1
 105 0 l 1
 105 376 l 1
 4 376 l 1
 4 476 l 1
 219 476 l 1
 219 0 l 1
EndSplineSet
EndChar

StartChar: IJ
Encoding: 306 306 221
Width: 702
Flags: W
HStem: 0 114<255.5 425 291 425 425 428 291 451> 553 114<14 112 14 232 316 484 14 316>
VStem: 14 218<553 667> 316 288<553 667>
LayerCount: 2
Fore
SplineSet
604 153 m 2
 604 134 597 117 583 103 c 2
 501 21 l 2
 487 7 470 0 451 0 c 2
 265 0 l 2
 246 0 229 7 215 21 c 2
 133 103 l 2
 119 117 112 134 112 153 c 2
 112 204 l 1
 232 204 l 1
 232 173 l 2
 232 168 234 163 238 159 c 2
 277 120 l 2
 281 116 285 114 291 114 c 2
 425 114 l 2
 431 114 435 116 439 120 c 2
 478 159 l 2
 482 163 484 168 484 173 c 2
 484 553 l 1
 316 553 l 1
 316 667 l 1
 604 667 l 1
 604 153 l 2
232 286 m 1
 112 286 l 1
 112 553 l 1
 14 553 l 1
 14 667 l 1
 232 667 l 1
 232 286 l 1
EndSplineSet
EndChar

StartChar: Ydieresis
Encoding: 376 376 222
Width: 599
Flags: W
HStem: 753 119<142 261 142 261 338 457 142 338>
VStem: 142 119<753 872> 338 119<753 872>
LayerCount: 2
Fore
SplineSet
457 753 m 1
 338 753 l 1
 338 872 l 1
 457 872 l 1
 457 753 l 1
261 753 m 1
 142 753 l 1
 142 872 l 1
 261 872 l 1
 261 753 l 1
585 667 m 1
 360 295 l 1
 360 0 l 1
 240 0 l 1
 240 295 l 1
 14 667 l 1
 145 667 l 1
 301 408 l 1
 456 667 l 1
 585 667 l 1
EndSplineSet
EndChar

StartChar: perthousand
Encoding: 8240 8240 223
Width: 1273
Flags: W
HStem: 0 63<615 738 641 738 738 739 641 758 1002 1099 1099 1100> 280 63<148 271 174 271 271 272 174 291> 609 63<173 174 174 271>
VStem: 84 77<354 355 355 597> 284 77<355 597 597 598> 551 77<74 75 75 317> 751 77<75 317 317 318> 912 77<74 75 75 317> 1112 77<75 317 317 318>
LayerCount: 2
Fore
SplineSet
1189 69 m 2
 1189 58 1184 47 1177 40 c 2
 1151 14 l 2
 1141 4 1131 0 1119 0 c 2
 982 0 l 2
 970 0 960 4 950 14 c 2
 924 40 l 2
 917 47 912 58 912 69 c 2
 912 323 l 2
 912 334 917 345 924 352 c 2
 950 378 l 2
 960 388 970 392 982 392 c 2
 1119 392 l 2
 1131 392 1141 388 1151 378 c 2
 1177 352 l 2
 1184 345 1189 334 1189 323 c 2
 1189 69 l 2
828 69 m 2
 828 58 823 47 816 40 c 2
 790 14 l 2
 780 4 770 0 758 0 c 2
 621 0 l 2
 609 0 599 4 589 14 c 2
 563 40 l 2
 556 47 551 58 551 69 c 2
 551 323 l 2
 551 334 556 345 563 352 c 2
 589 378 l 2
 599 388 609 392 621 392 c 2
 758 392 l 2
 770 392 780 388 790 378 c 2
 816 352 l 2
 823 345 828 334 828 323 c 2
 828 69 l 2
655 672 m 1
 318 0 l 1
 244 0 l 1
 581 672 l 1
 655 672 l 1
361 349 m 2
 361 338 356 327 349 320 c 2
 323 294 l 2
 313 284 303 280 291 280 c 2
 154 280 l 2
 142 280 132 284 122 294 c 2
 96 320 l 2
 89 327 84 338 84 349 c 2
 84 603 l 2
 84 614 89 625 96 632 c 2
 122 658 l 2
 132 668 142 672 154 672 c 2
 291 672 l 2
 303 672 313 668 323 658 c 2
 349 632 l 2
 356 625 361 614 361 603 c 2
 361 349 l 2
1112 75 m 2
 1112 317 l 2
 1112 319 1111 321 1109 323 c 2
 1105 327 l 2
 1104 328 1101 329 1099 329 c 2
 1002 329 l 2
 1000 329 997 328 996 327 c 2
 992 323 l 2
 990 321 989 319 989 317 c 2
 989 75 l 2
 989 73 990 71 992 69 c 2
 996 65 l 2
 997 64 1000 63 1002 63 c 2
 1099 63 l 2
 1101 63 1104 64 1105 65 c 2
 1109 69 l 2
 1111 71 1112 73 1112 75 c 2
751 75 m 2
 751 317 l 2
 751 319 750 321 748 323 c 2
 744 327 l 2
 743 328 740 329 738 329 c 2
 641 329 l 2
 639 329 636 328 635 327 c 2
 631 323 l 2
 629 321 628 319 628 317 c 2
 628 75 l 2
 628 73 629 71 631 69 c 2
 635 65 l 2
 636 64 639 63 641 63 c 2
 738 63 l 2
 740 63 743 64 744 65 c 2
 748 69 l 2
 750 71 751 73 751 75 c 2
284 355 m 2
 284 597 l 2
 284 599 283 601 281 603 c 2
 277 607 l 2
 276 608 273 609 271 609 c 2
 174 609 l 2
 172 609 169 608 168 607 c 2
 164 603 l 2
 162 601 161 599 161 597 c 2
 161 355 l 2
 161 353 162 351 164 349 c 2
 168 345 l 2
 169 344 172 343 174 343 c 2
 271 343 l 2
 273 343 276 344 277 345 c 2
 281 349 l 2
 283 351 284 353 284 355 c 2
EndSplineSet
EndChar
